%TF.GenerationSoftware,KiCad,Pcbnew,9.0.3*%
%TF.CreationDate,2025-09-11T22:04:48-04:00*%
%TF.ProjectId,6502-interposer,36353032-2d69-46e7-9465-72706f736572,rev?*%
%TF.SameCoordinates,Original*%
%TF.FileFunction,Soldermask,Bot*%
%TF.FilePolarity,Negative*%
%FSLAX46Y46*%
G04 Gerber Fmt 4.6, Leading zero omitted, Abs format (unit mm)*
G04 Created by KiCad (PCBNEW 9.0.3) date 2025-09-11 22:04:48*
%MOMM*%
%LPD*%
G01*
G04 APERTURE LIST*
G04 Aperture macros list*
%AMRoundRect*
0 Rectangle with rounded corners*
0 $1 Rounding radius*
0 $2 $3 $4 $5 $6 $7 $8 $9 X,Y pos of 4 corners*
0 Add a 4 corners polygon primitive as box body*
4,1,4,$2,$3,$4,$5,$6,$7,$8,$9,$2,$3,0*
0 Add four circle primitives for the rounded corners*
1,1,$1+$1,$2,$3*
1,1,$1+$1,$4,$5*
1,1,$1+$1,$6,$7*
1,1,$1+$1,$8,$9*
0 Add four rect primitives between the rounded corners*
20,1,$1+$1,$2,$3,$4,$5,0*
20,1,$1+$1,$4,$5,$6,$7,0*
20,1,$1+$1,$6,$7,$8,$9,0*
20,1,$1+$1,$8,$9,$2,$3,0*%
G04 Aperture macros list end*
%ADD10C,1.600000*%
%ADD11RoundRect,0.250000X-0.550000X0.550000X-0.550000X-0.550000X0.550000X-0.550000X0.550000X0.550000X0*%
%ADD12C,1.700000*%
%ADD13R,1.700000X1.700000*%
%ADD14RoundRect,0.250000X-0.550000X-0.550000X0.550000X-0.550000X0.550000X0.550000X-0.550000X0.550000X0*%
G04 APERTURE END LIST*
D10*
%TO.C,U1*%
X100500000Y-79750000D03*
X97960000Y-79750000D03*
X95420000Y-79750000D03*
X92880000Y-79750000D03*
X90340000Y-79750000D03*
X87800000Y-79750000D03*
X85260000Y-79750000D03*
X82720000Y-79750000D03*
X80180000Y-79750000D03*
X77640000Y-79750000D03*
X75100000Y-79750000D03*
X72560000Y-79750000D03*
X70020000Y-79750000D03*
X67480000Y-79750000D03*
X64940000Y-79750000D03*
X62400000Y-79750000D03*
X59860000Y-79750000D03*
X57320000Y-79750000D03*
X54780000Y-79750000D03*
X52240000Y-79750000D03*
X52240000Y-64510000D03*
X54780000Y-64510000D03*
X57320000Y-64510000D03*
X59860000Y-64510000D03*
X62400000Y-64510000D03*
X64940000Y-64510000D03*
X67480000Y-64510000D03*
X70020000Y-64510000D03*
X72560000Y-64510000D03*
X75100000Y-64510000D03*
X77640000Y-64510000D03*
X80180000Y-64510000D03*
X82720000Y-64510000D03*
X85260000Y-64510000D03*
X87800000Y-64510000D03*
X90340000Y-64510000D03*
X92880000Y-64510000D03*
X95420000Y-64510000D03*
X97960000Y-64510000D03*
D11*
X100500000Y-64510000D03*
%TD*%
D12*
%TO.C,J1*%
X85960000Y-54000000D03*
X85960000Y-56540000D03*
X83420000Y-54000000D03*
X83420000Y-56540000D03*
X80880000Y-54000000D03*
X80880000Y-56540000D03*
X78340000Y-54000000D03*
X78340000Y-56540000D03*
X75800000Y-54000000D03*
X75800000Y-56540000D03*
X73260000Y-54000000D03*
X73260000Y-56540000D03*
X70720000Y-54000000D03*
X70720000Y-56540000D03*
X68180000Y-54000000D03*
X68180000Y-56540000D03*
X65640000Y-54000000D03*
X65640000Y-56540000D03*
X63100000Y-54000000D03*
X63100000Y-56540000D03*
X60560000Y-54000000D03*
X60560000Y-56540000D03*
X58020000Y-54000000D03*
X58020000Y-56540000D03*
X55480000Y-54000000D03*
X55480000Y-56540000D03*
X52940000Y-54000000D03*
X52940000Y-56540000D03*
X50400000Y-54000000D03*
X50400000Y-56540000D03*
X47860000Y-54000000D03*
D13*
X47860000Y-56540000D03*
%TD*%
D14*
%TO.C,D1*%
X78690000Y-61000000D03*
D10*
X86310000Y-61000000D03*
%TD*%
D13*
%TO.C,JP1*%
X89960000Y-61000000D03*
D12*
X92500000Y-61000000D03*
X95040000Y-61000000D03*
%TD*%
D13*
%TO.C,J3*%
X108210000Y-79200000D03*
D12*
X110750000Y-79200000D03*
X108210000Y-76660000D03*
X110750000Y-76660000D03*
X108210000Y-74120000D03*
X110750000Y-74120000D03*
X108210000Y-71580000D03*
X110750000Y-71580000D03*
X108210000Y-69040000D03*
X110750000Y-69040000D03*
X108210000Y-66500000D03*
X110750000Y-66500000D03*
X108210000Y-63960000D03*
X110750000Y-63960000D03*
X108210000Y-61420000D03*
X110750000Y-61420000D03*
X108210000Y-58880000D03*
X110750000Y-58880000D03*
%TD*%
%TO.C,J2*%
X50400000Y-44040000D03*
X85960000Y-41500000D03*
X85960000Y-44040000D03*
X83420000Y-41500000D03*
X83420000Y-44040000D03*
X80880000Y-41500000D03*
X80880000Y-44040000D03*
X78340000Y-41500000D03*
X78340000Y-44040000D03*
X75800000Y-41500000D03*
X75800000Y-44040000D03*
X73260000Y-41500000D03*
X73260000Y-44040000D03*
X70720000Y-41500000D03*
X70720000Y-44040000D03*
X68180000Y-41500000D03*
X68180000Y-44040000D03*
X65640000Y-41500000D03*
X65640000Y-44040000D03*
X63100000Y-41500000D03*
X63100000Y-44040000D03*
X60560000Y-41500000D03*
X60560000Y-44040000D03*
X58020000Y-41500000D03*
X58020000Y-44040000D03*
X55480000Y-41500000D03*
X55480000Y-44040000D03*
X52940000Y-41500000D03*
X52940000Y-44040000D03*
X50400000Y-41500000D03*
X47860000Y-41500000D03*
D13*
X47860000Y-44040000D03*
%TD*%
M02*
