%TF.GenerationSoftware,KiCad,Pcbnew,9.0.3*%
%TF.CreationDate,2025-09-22T10:34:38-04:00*%
%TF.ProjectId,6502-interposer,36353032-2d69-46e7-9465-72706f736572,rev?*%
%TF.SameCoordinates,Original*%
%TF.FileFunction,Legend,Bot*%
%TF.FilePolarity,Positive*%
%FSLAX46Y46*%
G04 Gerber Fmt 4.6, Leading zero omitted, Abs format (unit mm)*
G04 Created by KiCad (PCBNEW 9.0.3) date 2025-09-22 10:34:38*
%MOMM*%
%LPD*%
G01*
G04 APERTURE LIST*
%ADD10C,0.000000*%
G04 APERTURE END LIST*
D10*
%TO.C,G\u002A\u002A\u002A*%
G36*
X70858129Y-72197951D02*
G01*
X70849454Y-72206626D01*
X70840779Y-72197951D01*
X70849454Y-72189277D01*
X70858129Y-72197951D01*
G37*
G36*
X70910178Y-72527596D02*
G01*
X70901503Y-72536271D01*
X70892829Y-72527596D01*
X70901503Y-72518921D01*
X70910178Y-72527596D01*
G37*
G36*
X70962227Y-71781558D02*
G01*
X70953553Y-71790233D01*
X70944878Y-71781558D01*
X70953553Y-71772883D01*
X70962227Y-71781558D01*
G37*
G36*
X71031626Y-73273634D02*
G01*
X71022951Y-73282309D01*
X71014277Y-73273634D01*
X71022951Y-73264960D01*
X71031626Y-73273634D01*
G37*
G36*
X71083676Y-73620629D02*
G01*
X71075001Y-73629304D01*
X71066326Y-73620629D01*
X71075001Y-73611954D01*
X71083676Y-73620629D01*
G37*
G36*
X71101025Y-73724727D02*
G01*
X71092350Y-73733402D01*
X71083676Y-73724727D01*
X71092350Y-73716052D01*
X71101025Y-73724727D01*
G37*
G36*
X71153074Y-74071722D02*
G01*
X71144400Y-74080397D01*
X71135725Y-74071722D01*
X71144400Y-74063047D01*
X71153074Y-74071722D01*
G37*
G36*
X71326572Y-75164755D02*
G01*
X71317897Y-75173430D01*
X71309222Y-75164755D01*
X71317897Y-75156080D01*
X71326572Y-75164755D01*
G37*
G36*
X71413320Y-74731011D02*
G01*
X71404645Y-74739686D01*
X71395971Y-74731011D01*
X71404645Y-74722337D01*
X71413320Y-74731011D01*
G37*
G36*
X71413320Y-75702596D02*
G01*
X71404645Y-75711271D01*
X71395971Y-75702596D01*
X71404645Y-75693921D01*
X71413320Y-75702596D01*
G37*
G36*
X71448020Y-75928143D02*
G01*
X71439345Y-75936817D01*
X71430670Y-75928143D01*
X71439345Y-75919468D01*
X71448020Y-75928143D01*
G37*
G36*
X71517419Y-75390301D02*
G01*
X71508744Y-75398976D01*
X71500069Y-75390301D01*
X71508744Y-75381626D01*
X71517419Y-75390301D01*
G37*
G36*
X71690916Y-77454919D02*
G01*
X71682241Y-77463593D01*
X71673566Y-77454919D01*
X71682241Y-77446244D01*
X71690916Y-77454919D01*
G37*
G36*
X71847064Y-77715164D02*
G01*
X71838389Y-77723839D01*
X71829714Y-77715164D01*
X71838389Y-77706490D01*
X71847064Y-77715164D01*
G37*
G36*
X71864413Y-70341531D02*
G01*
X71855738Y-70350205D01*
X71847064Y-70341531D01*
X71855738Y-70332856D01*
X71864413Y-70341531D01*
G37*
G36*
X72645151Y-69699591D02*
G01*
X72636476Y-69708266D01*
X72627801Y-69699591D01*
X72636476Y-69690916D01*
X72645151Y-69699591D01*
G37*
G36*
X72766599Y-69144399D02*
G01*
X72757924Y-69153074D01*
X72749249Y-69144399D01*
X72757924Y-69135725D01*
X72766599Y-69144399D01*
G37*
G36*
X72783949Y-69179099D02*
G01*
X72775274Y-69187774D01*
X72766599Y-69179099D01*
X72775274Y-69170424D01*
X72783949Y-69179099D01*
G37*
G36*
X72905397Y-71052869D02*
G01*
X72896722Y-71061544D01*
X72888047Y-71052869D01*
X72896722Y-71044195D01*
X72905397Y-71052869D01*
G37*
G36*
X72922747Y-71226367D02*
G01*
X72914072Y-71235042D01*
X72905397Y-71226367D01*
X72914072Y-71217692D01*
X72922747Y-71226367D01*
G37*
G36*
X73026845Y-68693307D02*
G01*
X73018170Y-68701981D01*
X73009495Y-68693307D01*
X73018170Y-68684632D01*
X73026845Y-68693307D01*
G37*
G36*
X73078894Y-68658607D02*
G01*
X73070219Y-68667282D01*
X73061544Y-68658607D01*
X73070219Y-68649932D01*
X73078894Y-68658607D01*
G37*
G36*
X73078894Y-69144399D02*
G01*
X73070219Y-69153074D01*
X73061544Y-69144399D01*
X73070219Y-69135725D01*
X73078894Y-69144399D01*
G37*
G36*
X73165643Y-70324181D02*
G01*
X73156968Y-70332856D01*
X73148293Y-70324181D01*
X73156968Y-70315506D01*
X73165643Y-70324181D01*
G37*
G36*
X73200342Y-70688525D02*
G01*
X73191667Y-70697200D01*
X73182992Y-70688525D01*
X73191667Y-70679850D01*
X73200342Y-70688525D01*
G37*
G36*
X73252391Y-71261066D02*
G01*
X73243717Y-71269741D01*
X73235042Y-71261066D01*
X73243717Y-71252391D01*
X73252391Y-71261066D01*
G37*
G36*
X73269741Y-71434563D02*
G01*
X73261066Y-71443238D01*
X73252391Y-71434563D01*
X73261066Y-71425889D01*
X73269741Y-71434563D01*
G37*
G36*
X73287091Y-71608061D02*
G01*
X73278416Y-71616736D01*
X73269741Y-71608061D01*
X73278416Y-71599386D01*
X73287091Y-71608061D01*
G37*
G36*
X73321790Y-68450410D02*
G01*
X73313115Y-68459085D01*
X73304441Y-68450410D01*
X73313115Y-68441736D01*
X73321790Y-68450410D01*
G37*
G36*
X73339140Y-72180602D02*
G01*
X73330465Y-72189277D01*
X73321790Y-72180602D01*
X73330465Y-72171927D01*
X73339140Y-72180602D01*
G37*
G36*
X73356490Y-68450410D02*
G01*
X73347815Y-68459085D01*
X73339140Y-68450410D01*
X73347815Y-68441736D01*
X73356490Y-68450410D01*
G37*
G36*
X73356490Y-69144399D02*
G01*
X73347815Y-69153074D01*
X73339140Y-69144399D01*
X73347815Y-69135725D01*
X73356490Y-69144399D01*
G37*
G36*
X73391189Y-72683744D02*
G01*
X73382514Y-72692419D01*
X73373839Y-72683744D01*
X73382514Y-72675069D01*
X73391189Y-72683744D01*
G37*
G36*
X73425889Y-68780055D02*
G01*
X73417214Y-68788730D01*
X73408539Y-68780055D01*
X73417214Y-68771380D01*
X73425889Y-68780055D01*
G37*
G36*
X73460588Y-70306831D02*
G01*
X73451913Y-70315506D01*
X73443238Y-70306831D01*
X73451913Y-70298156D01*
X73460588Y-70306831D01*
G37*
G36*
X73477938Y-71122268D02*
G01*
X73469263Y-71130943D01*
X73460588Y-71122268D01*
X73469263Y-71113593D01*
X73477938Y-71122268D01*
G37*
G36*
X73495288Y-69144399D02*
G01*
X73486613Y-69153074D01*
X73477938Y-69144399D01*
X73486613Y-69135725D01*
X73495288Y-69144399D01*
G37*
G36*
X73495288Y-70358880D02*
G01*
X73486613Y-70367555D01*
X73477938Y-70358880D01*
X73486613Y-70350205D01*
X73495288Y-70358880D01*
G37*
G36*
X73529987Y-70757924D02*
G01*
X73521312Y-70766599D01*
X73512637Y-70757924D01*
X73521312Y-70749249D01*
X73529987Y-70757924D01*
G37*
G36*
X73529987Y-71694809D02*
G01*
X73521312Y-71703484D01*
X73512637Y-71694809D01*
X73521312Y-71686134D01*
X73529987Y-71694809D01*
G37*
G36*
X73564686Y-69022951D02*
G01*
X73556012Y-69031626D01*
X73547337Y-69022951D01*
X73556012Y-69014277D01*
X73564686Y-69022951D01*
G37*
G36*
X73582036Y-72232651D02*
G01*
X73573361Y-72241326D01*
X73564686Y-72232651D01*
X73573361Y-72223976D01*
X73582036Y-72232651D01*
G37*
G36*
X73599386Y-71538662D02*
G01*
X73590711Y-71547337D01*
X73582036Y-71538662D01*
X73590711Y-71529987D01*
X73599386Y-71538662D01*
G37*
G36*
X73616736Y-72614345D02*
G01*
X73608061Y-72623020D01*
X73599386Y-72614345D01*
X73608061Y-72605670D01*
X73616736Y-72614345D01*
G37*
G36*
X73634085Y-68901503D02*
G01*
X73625411Y-68910178D01*
X73616736Y-68901503D01*
X73625411Y-68892828D01*
X73634085Y-68901503D01*
G37*
G36*
X73634085Y-71868307D02*
G01*
X73625411Y-71876981D01*
X73616736Y-71868307D01*
X73625411Y-71859632D01*
X73634085Y-71868307D01*
G37*
G36*
X73686135Y-72492897D02*
G01*
X73677460Y-72501572D01*
X73668785Y-72492897D01*
X73677460Y-72484222D01*
X73686135Y-72492897D01*
G37*
G36*
X74293375Y-69768990D02*
G01*
X74284700Y-69777664D01*
X74276025Y-69768990D01*
X74284700Y-69760315D01*
X74293375Y-69768990D01*
G37*
G36*
X74432173Y-69127050D02*
G01*
X74423498Y-69135725D01*
X74414823Y-69127050D01*
X74423498Y-69118375D01*
X74432173Y-69127050D01*
G37*
G36*
X74536271Y-68832104D02*
G01*
X74527596Y-68840779D01*
X74518921Y-68832104D01*
X74527596Y-68823430D01*
X74536271Y-68832104D01*
G37*
G36*
X74588320Y-70983470D02*
G01*
X74579645Y-70992145D01*
X74570971Y-70983470D01*
X74579645Y-70974796D01*
X74588320Y-70983470D01*
G37*
G36*
X74605670Y-71174317D02*
G01*
X74596995Y-71182992D01*
X74588320Y-71174317D01*
X74596995Y-71165643D01*
X74605670Y-71174317D01*
G37*
G36*
X74640370Y-71608061D02*
G01*
X74631695Y-71616736D01*
X74623020Y-71608061D01*
X74631695Y-71599386D01*
X74640370Y-71608061D01*
G37*
G36*
X74675069Y-72024454D02*
G01*
X74666394Y-72033129D01*
X74657719Y-72024454D01*
X74666394Y-72015779D01*
X74675069Y-72024454D01*
G37*
G36*
X74709768Y-72475547D02*
G01*
X74701094Y-72484222D01*
X74692419Y-72475547D01*
X74701094Y-72466872D01*
X74709768Y-72475547D01*
G37*
G36*
X74744468Y-70983470D02*
G01*
X74735793Y-70992145D01*
X74727118Y-70983470D01*
X74735793Y-70974796D01*
X74744468Y-70983470D01*
G37*
G36*
X74761818Y-73100137D02*
G01*
X74753143Y-73108812D01*
X74744468Y-73100137D01*
X74753143Y-73091462D01*
X74761818Y-73100137D01*
G37*
G36*
X74779167Y-73308334D02*
G01*
X74770492Y-73317009D01*
X74761818Y-73308334D01*
X74770492Y-73299659D01*
X74779167Y-73308334D01*
G37*
G36*
X74796517Y-70827323D02*
G01*
X74787842Y-70835998D01*
X74779167Y-70827323D01*
X74787842Y-70818648D01*
X74796517Y-70827323D01*
G37*
G36*
X74796517Y-70862022D02*
G01*
X74787842Y-70870697D01*
X74779167Y-70862022D01*
X74787842Y-70853348D01*
X74796517Y-70862022D01*
G37*
G36*
X74813867Y-71018170D02*
G01*
X74805192Y-71026845D01*
X74796517Y-71018170D01*
X74805192Y-71009495D01*
X74813867Y-71018170D01*
G37*
G36*
X74831217Y-70931421D02*
G01*
X74822542Y-70940096D01*
X74813867Y-70931421D01*
X74822542Y-70922746D01*
X74831217Y-70931421D01*
G37*
G36*
X74848566Y-71174317D02*
G01*
X74839891Y-71182992D01*
X74831217Y-71174317D01*
X74839891Y-71165643D01*
X74848566Y-71174317D01*
G37*
G36*
X74865916Y-68398361D02*
G01*
X74857241Y-68407036D01*
X74848566Y-68398361D01*
X74857241Y-68389686D01*
X74865916Y-68398361D01*
G37*
G36*
X74865916Y-71417214D02*
G01*
X74857241Y-71425889D01*
X74848566Y-71417214D01*
X74857241Y-71408539D01*
X74865916Y-71417214D01*
G37*
G36*
X74917965Y-72145902D02*
G01*
X74909290Y-72154577D01*
X74900615Y-72145902D01*
X74909290Y-72137227D01*
X74917965Y-72145902D01*
G37*
G36*
X74935315Y-72423498D02*
G01*
X74926640Y-72432173D01*
X74917965Y-72423498D01*
X74926640Y-72414823D01*
X74935315Y-72423498D01*
G37*
G36*
X74952665Y-72683744D02*
G01*
X74943990Y-72692419D01*
X74935315Y-72683744D01*
X74943990Y-72675069D01*
X74952665Y-72683744D01*
G37*
G36*
X74970014Y-72996039D02*
G01*
X74961339Y-73004714D01*
X74952665Y-72996039D01*
X74961339Y-72987364D01*
X74970014Y-72996039D01*
G37*
G36*
X75004714Y-73551230D02*
G01*
X74996039Y-73559905D01*
X74987364Y-73551230D01*
X74996039Y-73542555D01*
X75004714Y-73551230D01*
G37*
G36*
X75646654Y-67825820D02*
G01*
X75637979Y-67834495D01*
X75629304Y-67825820D01*
X75637979Y-67817145D01*
X75646654Y-67825820D01*
G37*
G36*
X76097747Y-68103416D02*
G01*
X76089072Y-68112091D01*
X76080397Y-68103416D01*
X76089072Y-68094741D01*
X76097747Y-68103416D01*
G37*
G36*
X76097747Y-69560793D02*
G01*
X76089072Y-69569468D01*
X76080397Y-69560793D01*
X76089072Y-69552118D01*
X76097747Y-69560793D01*
G37*
G36*
X76340643Y-69543443D02*
G01*
X76331968Y-69552118D01*
X76323293Y-69543443D01*
X76331968Y-69534768D01*
X76340643Y-69543443D01*
G37*
G36*
X76670288Y-67860520D02*
G01*
X76661613Y-67869195D01*
X76652938Y-67860520D01*
X76661613Y-67851845D01*
X76670288Y-67860520D01*
G37*
G36*
X77416326Y-69474044D02*
G01*
X77407651Y-69482719D01*
X77398976Y-69474044D01*
X77407651Y-69465369D01*
X77416326Y-69474044D01*
G37*
G36*
X77745971Y-69456695D02*
G01*
X77737296Y-69465369D01*
X77728621Y-69456695D01*
X77737296Y-69448020D01*
X77745971Y-69456695D01*
G37*
G36*
X78682856Y-68849454D02*
G01*
X78674181Y-68858129D01*
X78665506Y-68849454D01*
X78674181Y-68840779D01*
X78682856Y-68849454D01*
G37*
G36*
X72882264Y-70269240D02*
G01*
X72884978Y-70274459D01*
X72870697Y-70280807D01*
X72861512Y-70279554D01*
X72859131Y-70269240D01*
X72861674Y-70267164D01*
X72882264Y-70269240D01*
G37*
G36*
X73446491Y-67805294D02*
G01*
X73454522Y-67811538D01*
X73436009Y-67815776D01*
X73418412Y-67814549D01*
X73413238Y-67806663D01*
X73419376Y-67803225D01*
X73446491Y-67805294D01*
G37*
G36*
X73481191Y-68776878D02*
G01*
X73489222Y-68783123D01*
X73470709Y-68787360D01*
X73453112Y-68786134D01*
X73447937Y-68778248D01*
X73454075Y-68774810D01*
X73481191Y-68776878D01*
G37*
G36*
X73543630Y-71538313D02*
G01*
X73541553Y-71558903D01*
X73536335Y-71561617D01*
X73529987Y-71547337D01*
X73531239Y-71538152D01*
X73541553Y-71535770D01*
X73543630Y-71538313D01*
G37*
G36*
X73586374Y-68655792D02*
G01*
X73589317Y-68661816D01*
X73564686Y-68664543D01*
X73540820Y-68662124D01*
X73542999Y-68655792D01*
X73550853Y-68653500D01*
X73586374Y-68655792D01*
G37*
G36*
X73810836Y-69679064D02*
G01*
X73818866Y-69685309D01*
X73800354Y-69689546D01*
X73782756Y-69688319D01*
X73777582Y-69680434D01*
X73783720Y-69676996D01*
X73810836Y-69679064D01*
G37*
G36*
X74341717Y-69924788D02*
G01*
X74339641Y-69945379D01*
X74334422Y-69948093D01*
X74328074Y-69933812D01*
X74329327Y-69924627D01*
X74339641Y-69922246D01*
X74341717Y-69924788D01*
G37*
G36*
X74773384Y-70720333D02*
G01*
X74776098Y-70725551D01*
X74761818Y-70731899D01*
X74752633Y-70730647D01*
X74750251Y-70720333D01*
X74752794Y-70718257D01*
X74773384Y-70720333D01*
G37*
G36*
X74792810Y-70913723D02*
G01*
X74790734Y-70934313D01*
X74785515Y-70937027D01*
X74779167Y-70922746D01*
X74780419Y-70913562D01*
X74790734Y-70911180D01*
X74792810Y-70913723D01*
G37*
G36*
X74810160Y-68085717D02*
G01*
X74808084Y-68106307D01*
X74802865Y-68109022D01*
X74796517Y-68094741D01*
X74797769Y-68085556D01*
X74808084Y-68083175D01*
X74810160Y-68085717D01*
G37*
G36*
X74827510Y-67946920D02*
G01*
X74825433Y-67967510D01*
X74820215Y-67970224D01*
X74813867Y-67955943D01*
X74815119Y-67946758D01*
X74825433Y-67944377D01*
X74827510Y-67946920D01*
G37*
G36*
X75519422Y-69592601D02*
G01*
X75522137Y-69597819D01*
X75507856Y-69604167D01*
X75498671Y-69602915D01*
X75496289Y-69592601D01*
X75498832Y-69590524D01*
X75519422Y-69592601D01*
G37*
G36*
X77160417Y-68846639D02*
G01*
X77163360Y-68852663D01*
X77138730Y-68855390D01*
X77114863Y-68852971D01*
X77117043Y-68846639D01*
X77124896Y-68844347D01*
X77160417Y-68846639D01*
G37*
G36*
X77749224Y-68828927D02*
G01*
X77757254Y-68835172D01*
X77738742Y-68839410D01*
X77721144Y-68838183D01*
X77715970Y-68830297D01*
X77722108Y-68826859D01*
X77749224Y-68828927D01*
G37*
G36*
X74581405Y-70715348D02*
G01*
X74596995Y-70731899D01*
X74599706Y-70738620D01*
X74589344Y-70749249D01*
X74584308Y-70748582D01*
X74570971Y-70731899D01*
X74571170Y-70727973D01*
X74578622Y-70714550D01*
X74581405Y-70715348D01*
G37*
G36*
X76465055Y-76347430D02*
G01*
X76531978Y-76412779D01*
X76482052Y-76462705D01*
X76432126Y-76512632D01*
X76370407Y-76455988D01*
X76308689Y-76399345D01*
X76353410Y-76340713D01*
X76398131Y-76282081D01*
X76465055Y-76347430D01*
G37*
G36*
X77555227Y-76361985D02*
G01*
X77607146Y-76411727D01*
X77569436Y-76451868D01*
X77560830Y-76460810D01*
X77526441Y-76487066D01*
X77495678Y-76484804D01*
X77456481Y-76454285D01*
X77438486Y-76436886D01*
X77420043Y-76410659D01*
X77427015Y-76386930D01*
X77459817Y-76353101D01*
X77503308Y-76312243D01*
X77555227Y-76361985D01*
G37*
G36*
X76990155Y-75784389D02*
G01*
X77039030Y-75827994D01*
X77046925Y-75836963D01*
X77058103Y-75857255D01*
X77049408Y-75877848D01*
X77017891Y-75910210D01*
X76966717Y-75959237D01*
X76922900Y-75917665D01*
X76887063Y-75872311D01*
X76882979Y-75830814D01*
X76911740Y-75790651D01*
X76911815Y-75790584D01*
X76949057Y-75772302D01*
X76990155Y-75784389D01*
G37*
G36*
X77010076Y-76875127D02*
G01*
X77029082Y-76894096D01*
X77057680Y-76925517D01*
X77068626Y-76942168D01*
X77066527Y-76947024D01*
X77048454Y-76972722D01*
X77018048Y-77010083D01*
X76968175Y-77068390D01*
X76915163Y-77010083D01*
X76906213Y-77000121D01*
X76871853Y-76957079D01*
X76862842Y-76933152D01*
X76878039Y-76925752D01*
X76880084Y-76925420D01*
X76899855Y-76907830D01*
X76922882Y-76871723D01*
X76950822Y-76817695D01*
X77010076Y-76875127D01*
G37*
G36*
X73686120Y-68480081D02*
G01*
X73761705Y-68482462D01*
X73805373Y-68486595D01*
X73815754Y-68492431D01*
X73814224Y-68493398D01*
X73786703Y-68498759D01*
X73730866Y-68503872D01*
X73652123Y-68508412D01*
X73555882Y-68512057D01*
X73447554Y-68514482D01*
X73359221Y-68515481D01*
X73246281Y-68515316D01*
X73165128Y-68513068D01*
X73116715Y-68508772D01*
X73101993Y-68502460D01*
X73117828Y-68496808D01*
X73165646Y-68491227D01*
X73242345Y-68486512D01*
X73344878Y-68482845D01*
X73470193Y-68480409D01*
X73579990Y-68479498D01*
X73686120Y-68480081D01*
G37*
G36*
X73636173Y-68363127D02*
G01*
X73721262Y-68365178D01*
X73791203Y-68368814D01*
X73839495Y-68374077D01*
X73859632Y-68381011D01*
X73852330Y-68386131D01*
X73813067Y-68391992D01*
X73741210Y-68396816D01*
X73637947Y-68400531D01*
X73504466Y-68403062D01*
X73464882Y-68403546D01*
X73350837Y-68404440D01*
X73266939Y-68404025D01*
X73209680Y-68402123D01*
X73175551Y-68398555D01*
X73161043Y-68393145D01*
X73162647Y-68385713D01*
X73171731Y-68381629D01*
X73211135Y-68375097D01*
X73274411Y-68369886D01*
X73355056Y-68366040D01*
X73446567Y-68363602D01*
X73542440Y-68362616D01*
X73636173Y-68363127D01*
G37*
G36*
X73455095Y-68833126D02*
G01*
X73539415Y-68835115D01*
X73607118Y-68838468D01*
X73652187Y-68843232D01*
X73668606Y-68849454D01*
X73668598Y-68849611D01*
X73650868Y-68855770D01*
X73600550Y-68861151D01*
X73519700Y-68865639D01*
X73410375Y-68869119D01*
X73274631Y-68871477D01*
X73252149Y-68871734D01*
X73125778Y-68872709D01*
X73030589Y-68872387D01*
X72963550Y-68870639D01*
X72921632Y-68867338D01*
X72901803Y-68862352D01*
X72901032Y-68855554D01*
X72904962Y-68853355D01*
X72937139Y-68847140D01*
X72994815Y-68841954D01*
X73071973Y-68837845D01*
X73162597Y-68834859D01*
X73260669Y-68833046D01*
X73360174Y-68832452D01*
X73455095Y-68833126D01*
G37*
G36*
X73515841Y-68702786D02*
G01*
X73596978Y-68704877D01*
X73661562Y-68708774D01*
X73703565Y-68714560D01*
X73716957Y-68722323D01*
X73707237Y-68730249D01*
X73680974Y-68736617D01*
X73634582Y-68741515D01*
X73564421Y-68745208D01*
X73466846Y-68747964D01*
X73338217Y-68750049D01*
X73290471Y-68750613D01*
X73176900Y-68751434D01*
X73093309Y-68750963D01*
X73036218Y-68749027D01*
X73002148Y-68745453D01*
X72987620Y-68740068D01*
X72989154Y-68732700D01*
X72990731Y-68731456D01*
X73018958Y-68723321D01*
X73072828Y-68716390D01*
X73146314Y-68710747D01*
X73233385Y-68706480D01*
X73328016Y-68703673D01*
X73424177Y-68702413D01*
X73515841Y-68702786D01*
G37*
G36*
X73377034Y-69068468D02*
G01*
X73453006Y-69069854D01*
X73507625Y-69072248D01*
X73534225Y-69075691D01*
X73553635Y-69084901D01*
X73558997Y-69095810D01*
X73537097Y-69104369D01*
X73486455Y-69110741D01*
X73405591Y-69115091D01*
X73293022Y-69117581D01*
X73147269Y-69118375D01*
X73081949Y-69118170D01*
X72975109Y-69116876D01*
X72883569Y-69114551D01*
X72812180Y-69111379D01*
X72765790Y-69107545D01*
X72749249Y-69103233D01*
X72753992Y-69097734D01*
X72783799Y-69087619D01*
X72831921Y-69080146D01*
X72845932Y-69078934D01*
X72910090Y-69075165D01*
X72992876Y-69072149D01*
X73087628Y-69069929D01*
X73187680Y-69068548D01*
X73286370Y-69068047D01*
X73377034Y-69068468D01*
G37*
G36*
X73719147Y-68582508D02*
G01*
X73751691Y-68586159D01*
X73767098Y-68591925D01*
X73769301Y-68599990D01*
X73768560Y-68601635D01*
X73756985Y-68609566D01*
X73729951Y-68615736D01*
X73683609Y-68620434D01*
X73614114Y-68623950D01*
X73517615Y-68626576D01*
X73390266Y-68628601D01*
X73374718Y-68628794D01*
X73252182Y-68629860D01*
X73160709Y-68629598D01*
X73097040Y-68627855D01*
X73057916Y-68624478D01*
X73040080Y-68619315D01*
X73040273Y-68612214D01*
X73056167Y-68605369D01*
X73101050Y-68598101D01*
X73175367Y-68592139D01*
X73280870Y-68587350D01*
X73419308Y-68583603D01*
X73479354Y-68582403D01*
X73586913Y-68580814D01*
X73665532Y-68580788D01*
X73719147Y-68582508D01*
G37*
G36*
X73221706Y-69205027D02*
G01*
X73317853Y-69207262D01*
X73401990Y-69210586D01*
X73468451Y-69214971D01*
X73511563Y-69220389D01*
X73525660Y-69226811D01*
X73516743Y-69233417D01*
X73488415Y-69239628D01*
X73437800Y-69244507D01*
X73361795Y-69248256D01*
X73257298Y-69251076D01*
X73121208Y-69253171D01*
X73059966Y-69253783D01*
X72950174Y-69254309D01*
X72854124Y-69254037D01*
X72777056Y-69253019D01*
X72724206Y-69251308D01*
X72700813Y-69248956D01*
X72691461Y-69242983D01*
X72688450Y-69222596D01*
X72688669Y-69222294D01*
X72710133Y-69216102D01*
X72759275Y-69211199D01*
X72830423Y-69207557D01*
X72917910Y-69205147D01*
X73016066Y-69203941D01*
X73119221Y-69203911D01*
X73221706Y-69205027D01*
G37*
G36*
X73078894Y-71388548D02*
G01*
X73108098Y-71393309D01*
X73125884Y-71397947D01*
X73126293Y-71399277D01*
X73129864Y-71423921D01*
X73135940Y-71474032D01*
X73143738Y-71542356D01*
X73152479Y-71621639D01*
X73161382Y-71704626D01*
X73169665Y-71784064D01*
X73176549Y-71852698D01*
X73181251Y-71903274D01*
X73182992Y-71928537D01*
X73181948Y-71931961D01*
X73161334Y-71942122D01*
X73126414Y-71946232D01*
X73093174Y-71943558D01*
X73077601Y-71933368D01*
X73077596Y-71933318D01*
X73075261Y-71911642D01*
X73069914Y-71862750D01*
X73062348Y-71793853D01*
X73053351Y-71712159D01*
X73045208Y-71632574D01*
X73038160Y-71550802D01*
X73033836Y-71484532D01*
X73032957Y-71443238D01*
X73036760Y-71405636D01*
X73049575Y-71388495D01*
X73078894Y-71388548D01*
G37*
G36*
X73582090Y-68947735D02*
G01*
X73613393Y-68951264D01*
X73628285Y-68956764D01*
X73630491Y-68964367D01*
X73627860Y-68968335D01*
X73612663Y-68975477D01*
X73581349Y-68981055D01*
X73530201Y-68985329D01*
X73455503Y-68988556D01*
X73353540Y-68990997D01*
X73220594Y-68992909D01*
X73089815Y-68993835D01*
X72972031Y-68993119D01*
X72887197Y-68990545D01*
X72835880Y-68986132D01*
X72818648Y-68979897D01*
X72818245Y-68976486D01*
X72816794Y-68971134D01*
X72817833Y-68967064D01*
X72825387Y-68963989D01*
X72843480Y-68961621D01*
X72876137Y-68959674D01*
X72927381Y-68957860D01*
X73001238Y-68955892D01*
X73101730Y-68953483D01*
X73232883Y-68950347D01*
X73352456Y-68947662D01*
X73455347Y-68946065D01*
X73530650Y-68946046D01*
X73582090Y-68947735D01*
G37*
G36*
X73702731Y-74871947D02*
G01*
X73703680Y-74873396D01*
X73710772Y-74900560D01*
X73719386Y-74954168D01*
X73728519Y-75027217D01*
X73737171Y-75112705D01*
X73738130Y-75123249D01*
X73746567Y-75210642D01*
X73754772Y-75287282D01*
X73761852Y-75345226D01*
X73766910Y-75376534D01*
X73768895Y-75386426D01*
X73762947Y-75411994D01*
X73729930Y-75426445D01*
X73696252Y-75429733D01*
X73663177Y-75417926D01*
X73656417Y-75404426D01*
X73644995Y-75360921D01*
X73633427Y-75296839D01*
X73623398Y-75220542D01*
X73618690Y-75175671D01*
X73610672Y-75090371D01*
X73604667Y-75014762D01*
X73601711Y-74961226D01*
X73601268Y-74938236D01*
X73604230Y-74898223D01*
X73616903Y-74878277D01*
X73644031Y-74867940D01*
X73677071Y-74864355D01*
X73702731Y-74871947D01*
G37*
G36*
X77074478Y-76288475D02*
G01*
X77085122Y-76298480D01*
X77130002Y-76343130D01*
X77161528Y-76378528D01*
X77173430Y-76397751D01*
X77171045Y-76403669D01*
X77150141Y-76431372D01*
X77112336Y-76473678D01*
X77063296Y-76524093D01*
X76966579Y-76619949D01*
X76953161Y-76633248D01*
X76855448Y-76532266D01*
X76841537Y-76517800D01*
X76798763Y-76472043D01*
X76768783Y-76437978D01*
X76757386Y-76422109D01*
X76759683Y-76417861D01*
X76774364Y-76400553D01*
X76883529Y-76400553D01*
X76886037Y-76433212D01*
X76918639Y-76471635D01*
X76928720Y-76480825D01*
X76966579Y-76505321D01*
X76997912Y-76499981D01*
X77032991Y-76464130D01*
X77033540Y-76463427D01*
X77055727Y-76415039D01*
X77043749Y-76371794D01*
X76997898Y-76334772D01*
X76982453Y-76327897D01*
X76954212Y-76329076D01*
X76920222Y-76354749D01*
X76911253Y-76363413D01*
X76883529Y-76400553D01*
X76774364Y-76400553D01*
X76780280Y-76393578D01*
X76817679Y-76353831D01*
X76866281Y-76304659D01*
X76975526Y-76196385D01*
X77074478Y-76288475D01*
G37*
G36*
X77671814Y-70722023D02*
G01*
X77672125Y-70722688D01*
X77674548Y-70746320D01*
X77677651Y-70801459D01*
X77681359Y-70885348D01*
X77685601Y-70995233D01*
X77690304Y-71128355D01*
X77695396Y-71281959D01*
X77700803Y-71453289D01*
X77706453Y-71639588D01*
X77712274Y-71838099D01*
X77718193Y-72046067D01*
X77724138Y-72260734D01*
X77730035Y-72479345D01*
X77735812Y-72699143D01*
X77741397Y-72917372D01*
X77746717Y-73131275D01*
X77751699Y-73338096D01*
X77756271Y-73535079D01*
X77760360Y-73719467D01*
X77763894Y-73888504D01*
X77766800Y-74039433D01*
X77769006Y-74169499D01*
X77770438Y-74275944D01*
X77771024Y-74356012D01*
X77770692Y-74406947D01*
X77769369Y-74425993D01*
X77751805Y-74428633D01*
X77704911Y-74431780D01*
X77634285Y-74435108D01*
X77545480Y-74438358D01*
X77444048Y-74441268D01*
X77124872Y-74449265D01*
X77114977Y-74303868D01*
X77113838Y-74283090D01*
X77111356Y-74222258D01*
X77108253Y-74131886D01*
X77104618Y-74015211D01*
X77100544Y-73875468D01*
X77096121Y-73715893D01*
X77091439Y-73539722D01*
X77086590Y-73350191D01*
X77081665Y-73150535D01*
X77076755Y-72943990D01*
X77074787Y-72860032D01*
X77069679Y-72645866D01*
X77064517Y-72434381D01*
X77059406Y-72229579D01*
X77054449Y-72035460D01*
X77049751Y-71856027D01*
X77045416Y-71695279D01*
X77041548Y-71557219D01*
X77038251Y-71445847D01*
X77035631Y-71365164D01*
X77035122Y-71350661D01*
X77031062Y-71232452D01*
X77027283Y-71118509D01*
X77024026Y-71016435D01*
X77021537Y-70933832D01*
X77020057Y-70878303D01*
X77017282Y-70755786D01*
X77342589Y-70737278D01*
X77345663Y-70737103D01*
X77447552Y-70731492D01*
X77536548Y-70726926D01*
X77607215Y-70723659D01*
X77654116Y-70721940D01*
X77671814Y-70722023D01*
G37*
G36*
X68307056Y-68719524D02*
G01*
X68342681Y-68723621D01*
X68357082Y-68737766D01*
X68359768Y-68768064D01*
X68370200Y-68824472D01*
X68407001Y-68867201D01*
X68473006Y-68893368D01*
X68473775Y-68893537D01*
X68507086Y-68896822D01*
X68570268Y-68899675D01*
X68658717Y-68902091D01*
X68767828Y-68904065D01*
X68892996Y-68905592D01*
X69029616Y-68906667D01*
X69173085Y-68907284D01*
X69318798Y-68907437D01*
X69462149Y-68907123D01*
X69598534Y-68906335D01*
X69723349Y-68905069D01*
X69831989Y-68903319D01*
X69919849Y-68901079D01*
X69982325Y-68898346D01*
X70014812Y-68895113D01*
X70016147Y-68894818D01*
X70058437Y-68877681D01*
X70084911Y-68843872D01*
X70102713Y-68784393D01*
X70105651Y-68771455D01*
X70114459Y-68751751D01*
X70133279Y-68741383D01*
X70170340Y-68737358D01*
X70233869Y-68736681D01*
X70354987Y-68736681D01*
X70354987Y-69188566D01*
X70354987Y-69640452D01*
X70239259Y-69635322D01*
X70217576Y-69634319D01*
X70164162Y-69630227D01*
X70133848Y-69622070D01*
X70117706Y-69605993D01*
X70106807Y-69578143D01*
X70103991Y-69569096D01*
X70097459Y-69548287D01*
X70089649Y-69531113D01*
X70077523Y-69517226D01*
X70058042Y-69506280D01*
X70028169Y-69497928D01*
X69984865Y-69491823D01*
X69925091Y-69487619D01*
X69845809Y-69484969D01*
X69743982Y-69483526D01*
X69616571Y-69482944D01*
X69460537Y-69482876D01*
X69272842Y-69482975D01*
X69247080Y-69482983D01*
X69058132Y-69483116D01*
X68900475Y-69483593D01*
X68771076Y-69484737D01*
X68666901Y-69486871D01*
X68584918Y-69490319D01*
X68522093Y-69495404D01*
X68475395Y-69502449D01*
X68441790Y-69511778D01*
X68418245Y-69523713D01*
X68401727Y-69538579D01*
X68389204Y-69556698D01*
X68377643Y-69578394D01*
X68368152Y-69596380D01*
X68345899Y-69628991D01*
X68318300Y-69646811D01*
X68275577Y-69654308D01*
X68207958Y-69655951D01*
X68099523Y-69656216D01*
X68099523Y-69198617D01*
X68099523Y-68741018D01*
X68153740Y-68730175D01*
X68163828Y-68728369D01*
X68221664Y-68721933D01*
X68283863Y-68719331D01*
X68307056Y-68719524D01*
G37*
G36*
X70314168Y-72035023D02*
G01*
X70347288Y-72044197D01*
X70361214Y-72063491D01*
X70363491Y-72082270D01*
X70366763Y-72132490D01*
X70370428Y-72208196D01*
X70374269Y-72304371D01*
X70378071Y-72415999D01*
X70381619Y-72538063D01*
X70393457Y-72982272D01*
X70337354Y-72993493D01*
X70322759Y-72995998D01*
X70263149Y-73002222D01*
X70199417Y-73004714D01*
X70162882Y-73004187D01*
X70129543Y-72997881D01*
X70111580Y-72978159D01*
X70097408Y-72937373D01*
X70092880Y-72921721D01*
X70085609Y-72897863D01*
X70076602Y-72878166D01*
X70062862Y-72862231D01*
X70041392Y-72849661D01*
X70009196Y-72840058D01*
X69963277Y-72833026D01*
X69900639Y-72828166D01*
X69818285Y-72825081D01*
X69713219Y-72823374D01*
X69582443Y-72822646D01*
X69422962Y-72822501D01*
X69231779Y-72822542D01*
X68443530Y-72822542D01*
X68401649Y-72871221D01*
X68397095Y-72876703D01*
X68370589Y-72917873D01*
X68359768Y-72951776D01*
X68355704Y-72969977D01*
X68332325Y-72994183D01*
X68309923Y-72999665D01*
X68254345Y-73004004D01*
X68191565Y-73002030D01*
X68138559Y-72993778D01*
X68099523Y-72983317D01*
X68099523Y-72519325D01*
X68099523Y-72055333D01*
X68193930Y-72045590D01*
X68267133Y-72040787D01*
X68321523Y-72045831D01*
X68350938Y-72063127D01*
X68359768Y-72093954D01*
X68368153Y-72130678D01*
X68392246Y-72173491D01*
X68397148Y-72179194D01*
X68411685Y-72191993D01*
X68431614Y-72202577D01*
X68459866Y-72211102D01*
X68499371Y-72217725D01*
X68553059Y-72222602D01*
X68623860Y-72225890D01*
X68714704Y-72227746D01*
X68828522Y-72228326D01*
X68968242Y-72227787D01*
X69136796Y-72226284D01*
X69337113Y-72223976D01*
X69435661Y-72222753D01*
X69593942Y-72220644D01*
X69722508Y-72218588D01*
X69824600Y-72216399D01*
X69903457Y-72213890D01*
X69962321Y-72210873D01*
X70004431Y-72207161D01*
X70033027Y-72202568D01*
X70051351Y-72196905D01*
X70062641Y-72189986D01*
X70070139Y-72181623D01*
X70084421Y-72154501D01*
X70094741Y-72107457D01*
X70096711Y-72092134D01*
X70122789Y-72059154D01*
X70179719Y-72039585D01*
X70268199Y-72033129D01*
X70314168Y-72035023D01*
G37*
G36*
X69687771Y-69786007D02*
G01*
X69736166Y-69791115D01*
X69804774Y-69799116D01*
X69886941Y-69809171D01*
X69976011Y-69820438D01*
X70065331Y-69832078D01*
X70148245Y-69843251D01*
X70218099Y-69853117D01*
X70268238Y-69860835D01*
X70346312Y-69873888D01*
X70350798Y-70812185D01*
X70355283Y-71750483D01*
X70014740Y-71797199D01*
X69996922Y-71799635D01*
X69894270Y-71813348D01*
X69804915Y-71824751D01*
X69734120Y-71833210D01*
X69687154Y-71838091D01*
X69669281Y-71838761D01*
X69666012Y-71820313D01*
X69662134Y-71776636D01*
X69658500Y-71717234D01*
X69652635Y-71600862D01*
X69765252Y-71543737D01*
X69822583Y-71512769D01*
X69865127Y-71481805D01*
X69895674Y-71444656D01*
X69924825Y-71391189D01*
X69942119Y-71351103D01*
X69968098Y-71270626D01*
X69983211Y-71196005D01*
X69994641Y-71096244D01*
X69250941Y-71096271D01*
X69219349Y-71096274D01*
X69042654Y-71096423D01*
X68896834Y-71096882D01*
X68778595Y-71097776D01*
X68684643Y-71099228D01*
X68611684Y-71101363D01*
X68556425Y-71104305D01*
X68515573Y-71108179D01*
X68485833Y-71113108D01*
X68463912Y-71119218D01*
X68446517Y-71126633D01*
X68400154Y-71159436D01*
X68366249Y-71217692D01*
X68355637Y-71247038D01*
X68339067Y-71269000D01*
X68309281Y-71279099D01*
X68255544Y-71283739D01*
X68221519Y-71285033D01*
X68170733Y-71284198D01*
X68140627Y-71279946D01*
X68139282Y-71279277D01*
X68132319Y-71268714D01*
X68126892Y-71244320D01*
X68122832Y-71202616D01*
X68119970Y-71140127D01*
X68118136Y-71053374D01*
X68117160Y-70938880D01*
X68116872Y-70793168D01*
X68116872Y-70315506D01*
X68199283Y-70315269D01*
X68222625Y-70314846D01*
X68278910Y-70311218D01*
X68318544Y-70305143D01*
X68326280Y-70303307D01*
X68346251Y-70305265D01*
X68358117Y-70326436D01*
X68367279Y-70374511D01*
X68369306Y-70388609D01*
X68373688Y-70416715D01*
X68380198Y-70439959D01*
X68391798Y-70458799D01*
X68411447Y-70473699D01*
X68442108Y-70485118D01*
X68486741Y-70493519D01*
X68548307Y-70499362D01*
X68629766Y-70503109D01*
X68734081Y-70505220D01*
X68864212Y-70506157D01*
X69023120Y-70506381D01*
X69213765Y-70506353D01*
X69973293Y-70506353D01*
X69972912Y-70397917D01*
X69969904Y-70337210D01*
X69946172Y-70232425D01*
X69897835Y-70151331D01*
X69823702Y-70092290D01*
X69722584Y-70053667D01*
X69639153Y-70032659D01*
X69650506Y-69910515D01*
X69650984Y-69905399D01*
X69657067Y-69845704D01*
X69662360Y-69802477D01*
X69665765Y-69784771D01*
X69666242Y-69784632D01*
X69687771Y-69786007D01*
G37*
G36*
X69469209Y-75332781D02*
G01*
X69654311Y-75376287D01*
X69821922Y-75447286D01*
X69975977Y-75547507D01*
X70120406Y-75678676D01*
X70157050Y-75718387D01*
X70250622Y-75838852D01*
X70321137Y-75965819D01*
X70371074Y-76105693D01*
X70402916Y-76264877D01*
X70419142Y-76449775D01*
X70420424Y-76483540D01*
X70413925Y-76695618D01*
X70380677Y-76887355D01*
X70319838Y-77061256D01*
X70230569Y-77219827D01*
X70112030Y-77365573D01*
X70037801Y-77438345D01*
X69926100Y-77526742D01*
X69802324Y-77598405D01*
X69655194Y-77660616D01*
X69632583Y-77668881D01*
X69580543Y-77686600D01*
X69534235Y-77698808D01*
X69485573Y-77706541D01*
X69426471Y-77710836D01*
X69348844Y-77712730D01*
X69300001Y-77712978D01*
X69244604Y-77713260D01*
X69237950Y-77713270D01*
X69133563Y-77712895D01*
X69055177Y-77710839D01*
X68994554Y-77706168D01*
X68943457Y-77697953D01*
X68893647Y-77685261D01*
X68836886Y-77667160D01*
X68834030Y-77666197D01*
X68749553Y-77633806D01*
X68661104Y-77593984D01*
X68587376Y-77555123D01*
X68497871Y-77493617D01*
X68374056Y-77376840D01*
X68265667Y-77235116D01*
X68175743Y-77073348D01*
X68107319Y-76896437D01*
X68063433Y-76709287D01*
X68061158Y-76693156D01*
X68055283Y-76603692D01*
X68055664Y-76547133D01*
X68396419Y-76547133D01*
X68403847Y-76632296D01*
X68421036Y-76697538D01*
X68423264Y-76702587D01*
X68490672Y-76810829D01*
X68588063Y-76901924D01*
X68715135Y-76975648D01*
X68871585Y-77031775D01*
X68874626Y-77032608D01*
X69001128Y-77057046D01*
X69147137Y-77069313D01*
X69300001Y-77069388D01*
X69447069Y-77057250D01*
X69575689Y-77032881D01*
X69725914Y-76984594D01*
X69850702Y-76923770D01*
X69945918Y-76850003D01*
X70013572Y-76761266D01*
X70055676Y-76655536D01*
X70074239Y-76530787D01*
X70076350Y-76473153D01*
X70072964Y-76416267D01*
X70060084Y-76367046D01*
X70035008Y-76310308D01*
X69967577Y-76210077D01*
X69870196Y-76124653D01*
X69745651Y-76056796D01*
X69595765Y-76007281D01*
X69422358Y-75976885D01*
X69227255Y-75966383D01*
X69102435Y-75968541D01*
X68980104Y-75978053D01*
X68874721Y-75996742D01*
X68776986Y-76026338D01*
X68677603Y-76068569D01*
X68634853Y-76090368D01*
X68537330Y-76157093D01*
X68467595Y-76236576D01*
X68420977Y-76333643D01*
X68410853Y-76370553D01*
X68398753Y-76455426D01*
X68396419Y-76547133D01*
X68055664Y-76547133D01*
X68056012Y-76495353D01*
X68062698Y-76380429D01*
X68074692Y-76271208D01*
X68091346Y-76179977D01*
X68125367Y-76063794D01*
X68188497Y-75922013D01*
X68275841Y-75789801D01*
X68392259Y-75658744D01*
X68444894Y-75608128D01*
X68591693Y-75491326D01*
X68745627Y-75405413D01*
X68911147Y-75348699D01*
X69092703Y-75319494D01*
X69294744Y-75316109D01*
X69469209Y-75332781D01*
G37*
G36*
X68933186Y-66797038D02*
G01*
X69041091Y-66831747D01*
X69089662Y-66858612D01*
X69162040Y-66909236D01*
X69223623Y-66963280D01*
X69267187Y-67011901D01*
X69311561Y-67071940D01*
X69355464Y-67144343D01*
X69401737Y-67234254D01*
X69453219Y-67346821D01*
X69512751Y-67487189D01*
X69522109Y-67509583D01*
X69560514Y-67597190D01*
X69597818Y-67676269D01*
X69630169Y-67738893D01*
X69653713Y-67777136D01*
X69683800Y-67812565D01*
X69757654Y-67872033D01*
X69834968Y-67901395D01*
X69911201Y-67900321D01*
X69981814Y-67868478D01*
X70042267Y-67805534D01*
X70052826Y-67789298D01*
X70072450Y-67747449D01*
X70081653Y-67697809D01*
X70083512Y-67627055D01*
X70072994Y-67516548D01*
X70035859Y-67405053D01*
X69972085Y-67315742D01*
X69881791Y-67248770D01*
X69765096Y-67204298D01*
X69724786Y-67192086D01*
X69685794Y-67174808D01*
X69671408Y-67160214D01*
X69671530Y-67158600D01*
X69672758Y-67128866D01*
X69674263Y-67076034D01*
X69675745Y-67010383D01*
X69678348Y-66880260D01*
X69945995Y-66880260D01*
X70213643Y-66880260D01*
X70265812Y-66971443D01*
X70305265Y-67049989D01*
X70359844Y-67201743D01*
X70398099Y-67368830D01*
X70418471Y-67540905D01*
X70419405Y-67707618D01*
X70399341Y-67858623D01*
X70393046Y-67885369D01*
X70338646Y-68045660D01*
X70261922Y-68181835D01*
X70164467Y-68292401D01*
X70047871Y-68375864D01*
X69913725Y-68430729D01*
X69763622Y-68455503D01*
X69646474Y-68454664D01*
X69518391Y-68430987D01*
X69404637Y-68380908D01*
X69303215Y-68302823D01*
X69212126Y-68195126D01*
X69129373Y-68056212D01*
X69052958Y-67884477D01*
X69027910Y-67820687D01*
X68983338Y-67708588D01*
X68947802Y-67622233D01*
X68919124Y-67557069D01*
X68895125Y-67508544D01*
X68873627Y-67472106D01*
X68852453Y-67443203D01*
X68829424Y-67417283D01*
X68798849Y-67388480D01*
X68724645Y-67345382D01*
X68644196Y-67335914D01*
X68554224Y-67359388D01*
X68495825Y-67392631D01*
X68438922Y-67457058D01*
X68405607Y-67545543D01*
X68395189Y-67659389D01*
X68406174Y-67773190D01*
X68443749Y-67897417D01*
X68504832Y-68006192D01*
X68586115Y-68095092D01*
X68684292Y-68159696D01*
X68796058Y-68195581D01*
X68871585Y-68208475D01*
X68871585Y-68346792D01*
X68871585Y-68485110D01*
X68654714Y-68490387D01*
X68641123Y-68490713D01*
X68524023Y-68492664D01*
X68435665Y-68491415D01*
X68370680Y-68485721D01*
X68323699Y-68474341D01*
X68289353Y-68456028D01*
X68262275Y-68429540D01*
X68237094Y-68393633D01*
X68208767Y-68345318D01*
X68142933Y-68194430D01*
X68093130Y-68013999D01*
X68092215Y-68009660D01*
X68076580Y-67901713D01*
X68068598Y-67774432D01*
X68068317Y-67641102D01*
X68075781Y-67515005D01*
X68091037Y-67409427D01*
X68097276Y-67381907D01*
X68146803Y-67232964D01*
X68218036Y-67098047D01*
X68307251Y-66982155D01*
X68410720Y-66890288D01*
X68524719Y-66827447D01*
X68557250Y-66815801D01*
X68679611Y-66788969D01*
X68808808Y-66782747D01*
X68933186Y-66797038D01*
G37*
G36*
X68826531Y-73326925D02*
G01*
X68941445Y-73338935D01*
X69037085Y-73366740D01*
X69122925Y-73413720D01*
X69208439Y-73483258D01*
X69209633Y-73484365D01*
X69271742Y-73549330D01*
X69327991Y-73625073D01*
X69381746Y-73717363D01*
X69436375Y-73831971D01*
X69495244Y-73974664D01*
X69535623Y-74074850D01*
X69588918Y-74194685D01*
X69637841Y-74286493D01*
X69684851Y-74353599D01*
X69732405Y-74399331D01*
X69782961Y-74427016D01*
X69838976Y-74439981D01*
X69911494Y-74438380D01*
X69984381Y-74409647D01*
X70038735Y-74353476D01*
X70072684Y-74271948D01*
X70084357Y-74167145D01*
X70084172Y-74152892D01*
X70066083Y-74028833D01*
X70019866Y-73923270D01*
X69947569Y-73838681D01*
X69851242Y-73777541D01*
X69732931Y-73742327D01*
X69705309Y-73737454D01*
X69673370Y-73727487D01*
X69663581Y-73710141D01*
X69667870Y-73677355D01*
X69671871Y-73649578D01*
X69676532Y-73589292D01*
X69678348Y-73523037D01*
X69678348Y-73421107D01*
X69955057Y-73421107D01*
X70231766Y-73421107D01*
X70283476Y-73529543D01*
X70345144Y-73681691D01*
X70394763Y-73876405D01*
X70418494Y-74089072D01*
X70418747Y-74246029D01*
X70396729Y-74415029D01*
X70349175Y-74564800D01*
X70274907Y-74698848D01*
X70172748Y-74820679D01*
X70167232Y-74826199D01*
X70109541Y-74880660D01*
X70060735Y-74916939D01*
X70008401Y-74942787D01*
X69940127Y-74965958D01*
X69789260Y-74996119D01*
X69642139Y-74995037D01*
X69503528Y-74963476D01*
X69377587Y-74902385D01*
X69268475Y-74812713D01*
X69207939Y-74737521D01*
X69136454Y-74620390D01*
X69062402Y-74470191D01*
X68986204Y-74287704D01*
X68983491Y-74280745D01*
X68928916Y-74149859D01*
X68878364Y-74049242D01*
X68829002Y-73975341D01*
X68777995Y-73924602D01*
X68722510Y-73893474D01*
X68659712Y-73878404D01*
X68644160Y-73877098D01*
X68562795Y-73889656D01*
X68490187Y-73932606D01*
X68432966Y-74002323D01*
X68427331Y-74012279D01*
X68409552Y-74050388D01*
X68400008Y-74090599D01*
X68397011Y-74143729D01*
X68398870Y-74220597D01*
X68405797Y-74301654D01*
X68437079Y-74431624D01*
X68493176Y-74539208D01*
X68574992Y-74626491D01*
X68604034Y-74648429D01*
X68684729Y-74695505D01*
X68767544Y-74727735D01*
X68839769Y-74739686D01*
X68858726Y-74740757D01*
X68871525Y-74748641D01*
X68877579Y-74770303D01*
X68878681Y-74812708D01*
X68876624Y-74882822D01*
X68871585Y-75025957D01*
X68596311Y-75030745D01*
X68545281Y-75031478D01*
X68440654Y-75031488D01*
X68366249Y-75028757D01*
X68318930Y-75023116D01*
X68295565Y-75014394D01*
X68272503Y-74988093D01*
X68236699Y-74928377D01*
X68198279Y-74847648D01*
X68160163Y-74753281D01*
X68125270Y-74652650D01*
X68096523Y-74553128D01*
X68076840Y-74462091D01*
X68074746Y-74443282D01*
X68071546Y-74391049D01*
X68068884Y-74320020D01*
X68067186Y-74239969D01*
X68067116Y-74233840D01*
X68078021Y-74037344D01*
X68114161Y-73860695D01*
X68174801Y-73705360D01*
X68259206Y-73572807D01*
X68366644Y-73464504D01*
X68496380Y-73381919D01*
X68526805Y-73367254D01*
X68580161Y-73345042D01*
X68629377Y-73332513D01*
X68687386Y-73326984D01*
X68767122Y-73325773D01*
X68826531Y-73326925D01*
G37*
G36*
X73866182Y-73474934D02*
G01*
X73870289Y-73512528D01*
X73877315Y-73581576D01*
X73886447Y-73674255D01*
X73897131Y-73784861D01*
X73908809Y-73907685D01*
X73920927Y-74037022D01*
X73930739Y-74142149D01*
X73946846Y-74313280D01*
X73963568Y-74489389D01*
X73980519Y-74666523D01*
X73997313Y-74840731D01*
X74013564Y-75008058D01*
X74028886Y-75164554D01*
X74042893Y-75306265D01*
X74055199Y-75429238D01*
X74065418Y-75529522D01*
X74073165Y-75603163D01*
X74078052Y-75646210D01*
X74088434Y-75728621D01*
X73740598Y-75728621D01*
X73720834Y-75728621D01*
X73392762Y-75728621D01*
X73383795Y-75672234D01*
X73380934Y-75652077D01*
X73374019Y-75595620D01*
X73365733Y-75521431D01*
X73357298Y-75440214D01*
X73354713Y-75414441D01*
X73347521Y-75343217D01*
X73337470Y-75244043D01*
X73324990Y-75121152D01*
X73310514Y-74978781D01*
X73294472Y-74821163D01*
X73277296Y-74652534D01*
X73259417Y-74477127D01*
X73241267Y-74299178D01*
X73223278Y-74122922D01*
X73205879Y-73952592D01*
X73189504Y-73792425D01*
X73174583Y-73646654D01*
X73173770Y-73638722D01*
X73165247Y-73556131D01*
X73160196Y-73507856D01*
X73269741Y-73507856D01*
X73271843Y-73564242D01*
X73273916Y-73594363D01*
X73279647Y-73655159D01*
X73287954Y-73732929D01*
X73297849Y-73818019D01*
X73303160Y-73863608D01*
X73312177Y-73944886D01*
X73323362Y-74048634D01*
X73336302Y-74170781D01*
X73350584Y-74307259D01*
X73365794Y-74453997D01*
X73381518Y-74606926D01*
X73397343Y-74761974D01*
X73412855Y-74915073D01*
X73427640Y-75062151D01*
X73441286Y-75199140D01*
X73453378Y-75321968D01*
X73463502Y-75426567D01*
X73471246Y-75508866D01*
X73476196Y-75564795D01*
X73477938Y-75590284D01*
X73477958Y-75592365D01*
X73480530Y-75605320D01*
X73491161Y-75614236D01*
X73515179Y-75619863D01*
X73557912Y-75622952D01*
X73624688Y-75624255D01*
X73720834Y-75624522D01*
X73803566Y-75624282D01*
X73875215Y-75622993D01*
X73921789Y-75619993D01*
X73948532Y-75614625D01*
X73960690Y-75606233D01*
X73963508Y-75594160D01*
X73963505Y-75593881D01*
X73961591Y-75566814D01*
X73956576Y-75511356D01*
X73949036Y-75433458D01*
X73939546Y-75339073D01*
X73928683Y-75234154D01*
X73918622Y-75137194D01*
X73903707Y-74990676D01*
X73887952Y-74833377D01*
X73872701Y-74678729D01*
X73859297Y-74540164D01*
X73841465Y-74353362D01*
X73823324Y-74163789D01*
X73807912Y-74004088D01*
X73794908Y-73871738D01*
X73783992Y-73764217D01*
X73774843Y-73679004D01*
X73767141Y-73613577D01*
X73760565Y-73565416D01*
X73754796Y-73531998D01*
X73749512Y-73510802D01*
X73744393Y-73499307D01*
X73739118Y-73494991D01*
X73733368Y-73495333D01*
X73726821Y-73497811D01*
X73726379Y-73497971D01*
X73698426Y-73501815D01*
X73643776Y-73504958D01*
X73570132Y-73507078D01*
X73485194Y-73507856D01*
X73269741Y-73507856D01*
X73160196Y-73507856D01*
X73158004Y-73486907D01*
X73152784Y-73438103D01*
X73150330Y-73416770D01*
X73151064Y-73415200D01*
X73173131Y-73409366D01*
X73219752Y-73405259D01*
X73282753Y-73403687D01*
X73342092Y-73402985D01*
X73433953Y-73400611D01*
X73536331Y-73396961D01*
X73636104Y-73392452D01*
X73854994Y-73381288D01*
X73866182Y-73474934D01*
G37*
G36*
X73649138Y-70345868D02*
G01*
X73650402Y-70359989D01*
X73658210Y-70445895D01*
X73668541Y-70558011D01*
X73680755Y-70689455D01*
X73694212Y-70833346D01*
X73708268Y-70982802D01*
X73722284Y-71130943D01*
X73724465Y-71153919D01*
X73738848Y-71305796D01*
X73753427Y-71460223D01*
X73767505Y-71609781D01*
X73780385Y-71747051D01*
X73791368Y-71864615D01*
X73799758Y-71955055D01*
X73808879Y-72053748D01*
X73825632Y-72233790D01*
X73841598Y-72403837D01*
X73856439Y-72560379D01*
X73869817Y-72699909D01*
X73881395Y-72818917D01*
X73890836Y-72913895D01*
X73897802Y-72981334D01*
X73901956Y-73017726D01*
X73909499Y-73074113D01*
X73679969Y-73074113D01*
X73442148Y-73074113D01*
X73353313Y-73074082D01*
X73252391Y-73073828D01*
X73233168Y-73073780D01*
X73141530Y-73072930D01*
X73074548Y-73071258D01*
X73028374Y-73068494D01*
X72999161Y-73064365D01*
X72983059Y-73058598D01*
X72976220Y-73050921D01*
X72974796Y-73041063D01*
X72974771Y-73039405D01*
X72972442Y-73006894D01*
X72966863Y-72948520D01*
X72958815Y-72872026D01*
X72949074Y-72785155D01*
X72946547Y-72763153D01*
X72936966Y-72678630D01*
X72924590Y-72568311D01*
X72910139Y-72438663D01*
X72894333Y-72296156D01*
X72877891Y-72147255D01*
X72861534Y-71998430D01*
X72843152Y-71831770D01*
X72821581Y-71637956D01*
X72798493Y-71431941D01*
X72775153Y-71224990D01*
X72752829Y-71028371D01*
X72732787Y-70853348D01*
X72722101Y-70759821D01*
X72706785Y-70623133D01*
X72693083Y-70497682D01*
X72681483Y-70388114D01*
X72672473Y-70299072D01*
X72671180Y-70285144D01*
X72786061Y-70285144D01*
X72787139Y-70300411D01*
X72789500Y-70325823D01*
X72793495Y-70363855D01*
X72799536Y-70418147D01*
X72808036Y-70492339D01*
X72819407Y-70590068D01*
X72834062Y-70714974D01*
X72852412Y-70870697D01*
X72855488Y-70897063D01*
X72863823Y-70970016D01*
X72874772Y-71067173D01*
X72887932Y-71184866D01*
X72902900Y-71319428D01*
X72919274Y-71467189D01*
X72936651Y-71624481D01*
X72954629Y-71787637D01*
X72972806Y-71952988D01*
X72990777Y-72116865D01*
X73008143Y-72275601D01*
X73024498Y-72425527D01*
X73039442Y-72562975D01*
X73052571Y-72684277D01*
X73063484Y-72785763D01*
X73071777Y-72863767D01*
X73077048Y-72914620D01*
X73078894Y-72934653D01*
X73081114Y-72938113D01*
X73109467Y-72945957D01*
X73167716Y-72950928D01*
X73252391Y-72952664D01*
X73284052Y-72952642D01*
X73351994Y-72951888D01*
X73393818Y-72948968D01*
X73415855Y-72942420D01*
X73424435Y-72930781D01*
X73425889Y-72912589D01*
X73425856Y-72910533D01*
X73423679Y-72877190D01*
X73418490Y-72816135D01*
X73410841Y-72733354D01*
X73401281Y-72634833D01*
X73390363Y-72526558D01*
X73385034Y-72474508D01*
X73372281Y-72348514D01*
X73359306Y-72218154D01*
X73345750Y-72079655D01*
X73331254Y-71929242D01*
X73315456Y-71763140D01*
X73297997Y-71577576D01*
X73278517Y-71368774D01*
X73256657Y-71132960D01*
X73232056Y-70866360D01*
X73176920Y-70267794D01*
X73358741Y-70267794D01*
X73358934Y-70269615D01*
X73362379Y-70300347D01*
X73368504Y-70353799D01*
X73376122Y-70419604D01*
X73377335Y-70430431D01*
X73382904Y-70483777D01*
X73391209Y-70566575D01*
X73401882Y-70675028D01*
X73414555Y-70805341D01*
X73428861Y-70953716D01*
X73444430Y-71116359D01*
X73460896Y-71289474D01*
X73477889Y-71469263D01*
X73481334Y-71505819D01*
X73498841Y-71691428D01*
X73516107Y-71874208D01*
X73532702Y-72049626D01*
X73548197Y-72213153D01*
X73562161Y-72360256D01*
X73574167Y-72486406D01*
X73583782Y-72587071D01*
X73590579Y-72657719D01*
X73595729Y-72711124D01*
X73604016Y-72798212D01*
X73610656Y-72869490D01*
X73615072Y-72918717D01*
X73616684Y-72939652D01*
X73617503Y-72941730D01*
X73638817Y-72949514D01*
X73679969Y-72952664D01*
X73743201Y-72952664D01*
X73731797Y-72835554D01*
X73731643Y-72833969D01*
X73727012Y-72784177D01*
X73719965Y-72705896D01*
X73711015Y-72604931D01*
X73700674Y-72487087D01*
X73689453Y-72358167D01*
X73677864Y-72223976D01*
X73667111Y-72100612D01*
X73654074Y-71954714D01*
X73641072Y-71812688D01*
X73628818Y-71682211D01*
X73618024Y-71570961D01*
X73609404Y-71486613D01*
X73605146Y-71445541D01*
X73595104Y-71342671D01*
X73583550Y-71218190D01*
X73571264Y-71080719D01*
X73559022Y-70938881D01*
X73547602Y-70801298D01*
X73540522Y-70713553D01*
X73529544Y-70577550D01*
X73520497Y-70470704D01*
X73512610Y-70389518D01*
X73505112Y-70330498D01*
X73497232Y-70290148D01*
X73488198Y-70264972D01*
X73477240Y-70251476D01*
X73463585Y-70246163D01*
X73446463Y-70245538D01*
X73425102Y-70246107D01*
X73418688Y-70246162D01*
X73373066Y-70252226D01*
X73358741Y-70267794D01*
X73176920Y-70267794D01*
X73174922Y-70246107D01*
X72979436Y-70246107D01*
X72916713Y-70246210D01*
X72853077Y-70247286D01*
X72814092Y-70250527D01*
X72793860Y-70257123D01*
X72786483Y-70268265D01*
X72786061Y-70285144D01*
X72671180Y-70285144D01*
X72666543Y-70235202D01*
X72664180Y-70201149D01*
X72662501Y-70130167D01*
X73013833Y-70118784D01*
X73014779Y-70118753D01*
X73132066Y-70115171D01*
X73246953Y-70112049D01*
X73351370Y-70109579D01*
X73437248Y-70107950D01*
X73496517Y-70107355D01*
X73627870Y-70107309D01*
X73649138Y-70345868D01*
G37*
G36*
X78785214Y-70388138D02*
G01*
X78818940Y-70391868D01*
X78922534Y-70422711D01*
X79006075Y-70480135D01*
X79066515Y-70562254D01*
X79071607Y-70572622D01*
X79083986Y-70603632D01*
X79093524Y-70640781D01*
X79100947Y-70689778D01*
X79106982Y-70756335D01*
X79112357Y-70846161D01*
X79117799Y-70964967D01*
X79120856Y-71048837D01*
X79124412Y-71176392D01*
X79127776Y-71328699D01*
X79130924Y-71502042D01*
X79133830Y-71692706D01*
X79136470Y-71896975D01*
X79138819Y-72111135D01*
X79140852Y-72331469D01*
X79142545Y-72554262D01*
X79143873Y-72775799D01*
X79144811Y-72992364D01*
X79145334Y-73200243D01*
X79145419Y-73395720D01*
X79145039Y-73575079D01*
X79144170Y-73734605D01*
X79142788Y-73870582D01*
X79140867Y-73979296D01*
X79138384Y-74057031D01*
X79136049Y-74108055D01*
X79131002Y-74210789D01*
X79126202Y-74286554D01*
X79120778Y-74340814D01*
X79113857Y-74379033D01*
X79104569Y-74406677D01*
X79092044Y-74429209D01*
X79075409Y-74452094D01*
X79061029Y-74470695D01*
X79037407Y-74498507D01*
X79012270Y-74521669D01*
X78982304Y-74540821D01*
X78944195Y-74556599D01*
X78894629Y-74569643D01*
X78830292Y-74580589D01*
X78747869Y-74590076D01*
X78644046Y-74598743D01*
X78515510Y-74607226D01*
X78358945Y-74616165D01*
X78171039Y-74626196D01*
X77925752Y-74638828D01*
X77612872Y-74653883D01*
X77327316Y-74666248D01*
X77064875Y-74676074D01*
X76821339Y-74683517D01*
X76592498Y-74688730D01*
X76508791Y-74689932D01*
X76374144Y-74691866D01*
X75930528Y-74696312D01*
X75867589Y-74653236D01*
X75839425Y-74632602D01*
X75801166Y-74596361D01*
X75771953Y-74552949D01*
X75749842Y-74496864D01*
X75732889Y-74422600D01*
X75719150Y-74324652D01*
X75706683Y-74197515D01*
X75705986Y-74189439D01*
X75696432Y-74069880D01*
X75685645Y-73920619D01*
X75673882Y-73746253D01*
X75661402Y-73551382D01*
X75648465Y-73340605D01*
X75635329Y-73118520D01*
X75622252Y-72889726D01*
X75609494Y-72658822D01*
X75597314Y-72430406D01*
X75585969Y-72209078D01*
X75575720Y-71999435D01*
X75566824Y-71806078D01*
X75559541Y-71633604D01*
X75554129Y-71486613D01*
X75549640Y-71331252D01*
X75774710Y-71331252D01*
X75776556Y-71515824D01*
X75780726Y-71723123D01*
X75786967Y-71947406D01*
X75795028Y-72182932D01*
X75804657Y-72423956D01*
X75815604Y-72664738D01*
X75827618Y-72899533D01*
X75840445Y-73122600D01*
X75853836Y-73328196D01*
X75867539Y-73510578D01*
X75881303Y-73664003D01*
X75882876Y-73681099D01*
X75887751Y-73744099D01*
X75893525Y-73829144D01*
X75899606Y-73927239D01*
X75905401Y-74029392D01*
X75909933Y-74106986D01*
X75917994Y-74206630D01*
X75928689Y-74281602D01*
X75943883Y-74338067D01*
X75965443Y-74382193D01*
X75995235Y-74420147D01*
X76035125Y-74458097D01*
X76095724Y-74511304D01*
X76508791Y-74511981D01*
X76592035Y-74511754D01*
X76746282Y-74509834D01*
X76915037Y-74506151D01*
X77094788Y-74500896D01*
X77282020Y-74494261D01*
X77473220Y-74486439D01*
X77664872Y-74477621D01*
X77853464Y-74468000D01*
X78035481Y-74457767D01*
X78207408Y-74447114D01*
X78365733Y-74436234D01*
X78506941Y-74425318D01*
X78627518Y-74414558D01*
X78723950Y-74404147D01*
X78792722Y-74394276D01*
X78830322Y-74385138D01*
X78844404Y-74378048D01*
X78893707Y-74339351D01*
X78937614Y-74286946D01*
X78943473Y-74278004D01*
X78963296Y-74243986D01*
X78976205Y-74209946D01*
X78983932Y-74167214D01*
X78988210Y-74107120D01*
X78990771Y-74020996D01*
X78992130Y-73945104D01*
X78993488Y-73826954D01*
X78994512Y-73684878D01*
X78995216Y-73522542D01*
X78995614Y-73343610D01*
X78995722Y-73151745D01*
X78995554Y-72950611D01*
X78995123Y-72743873D01*
X78994445Y-72535194D01*
X78993534Y-72328239D01*
X78992404Y-72126671D01*
X78991069Y-71934154D01*
X78989545Y-71754353D01*
X78987845Y-71590931D01*
X78985984Y-71447553D01*
X78983976Y-71327882D01*
X78981836Y-71235582D01*
X78979578Y-71174317D01*
X78972969Y-71062396D01*
X78963847Y-70957973D01*
X78951850Y-70878423D01*
X78935457Y-70818427D01*
X78913147Y-70772666D01*
X78883398Y-70735821D01*
X78844691Y-70702573D01*
X78780581Y-70653826D01*
X78258938Y-70658539D01*
X78211516Y-70659127D01*
X78076559Y-70662136D01*
X77924267Y-70667127D01*
X77758106Y-70673870D01*
X77581545Y-70682131D01*
X77398049Y-70691679D01*
X77211086Y-70702283D01*
X77024122Y-70713711D01*
X76840624Y-70725730D01*
X76664059Y-70738109D01*
X76497893Y-70750616D01*
X76345594Y-70763020D01*
X76210628Y-70775088D01*
X76096462Y-70786589D01*
X76006563Y-70797290D01*
X75944398Y-70806961D01*
X75913433Y-70815369D01*
X75905597Y-70820185D01*
X75869181Y-70849045D01*
X75828826Y-70887645D01*
X75776777Y-70942279D01*
X75774835Y-71231796D01*
X75774710Y-71331252D01*
X75549640Y-71331252D01*
X75549065Y-71311336D01*
X75545910Y-71129615D01*
X75546027Y-70981893D01*
X75549416Y-70868305D01*
X75556072Y-70788990D01*
X75565996Y-70744083D01*
X75576886Y-70720954D01*
X75635892Y-70645341D01*
X75721194Y-70591616D01*
X75831701Y-70560532D01*
X75896231Y-70551885D01*
X75995176Y-70541359D01*
X76120491Y-70529884D01*
X76268589Y-70517670D01*
X76435884Y-70504926D01*
X76618789Y-70491862D01*
X76813717Y-70478688D01*
X77017083Y-70465611D01*
X77225300Y-70452843D01*
X77434780Y-70440591D01*
X77641938Y-70429066D01*
X77843187Y-70418477D01*
X78034941Y-70409033D01*
X78213613Y-70400943D01*
X78375616Y-70394417D01*
X78517364Y-70389664D01*
X78635271Y-70386894D01*
X78725750Y-70386316D01*
X78785214Y-70388138D01*
G37*
G36*
X69808041Y-65997568D02*
G01*
X70091335Y-65997792D01*
X70402448Y-65998120D01*
X70742756Y-65998541D01*
X71113634Y-65999047D01*
X71516459Y-65999626D01*
X71952608Y-66000269D01*
X72071472Y-66000444D01*
X72501529Y-66001054D01*
X72898728Y-66001603D01*
X73264529Y-66002123D01*
X73600388Y-66002647D01*
X73907765Y-66003207D01*
X74188117Y-66003836D01*
X74442902Y-66004565D01*
X74673579Y-66005427D01*
X74881606Y-66006455D01*
X75068440Y-66007680D01*
X75235540Y-66009136D01*
X75384365Y-66010853D01*
X75516372Y-66012866D01*
X75633019Y-66015205D01*
X75735765Y-66017903D01*
X75826067Y-66020993D01*
X75905385Y-66024507D01*
X75975175Y-66028477D01*
X76036896Y-66032936D01*
X76092007Y-66037915D01*
X76141965Y-66043448D01*
X76188229Y-66049565D01*
X76232256Y-66056301D01*
X76275505Y-66063687D01*
X76319434Y-66071755D01*
X76365501Y-66080538D01*
X76415165Y-66090068D01*
X76469883Y-66100377D01*
X76657932Y-66138635D01*
X77068540Y-66245239D01*
X77475552Y-66381762D01*
X77875477Y-66546277D01*
X78264821Y-66736852D01*
X78640093Y-66951558D01*
X78997800Y-67188464D01*
X79334449Y-67445640D01*
X79646550Y-67721157D01*
X79930609Y-68013083D01*
X80069684Y-68172610D01*
X80357637Y-68537458D01*
X80613253Y-68913448D01*
X80837344Y-69302058D01*
X81030724Y-69704768D01*
X81194205Y-70123056D01*
X81328598Y-70558402D01*
X81372184Y-70726854D01*
X81449177Y-71078134D01*
X81504664Y-71424002D01*
X81540382Y-71776471D01*
X81558063Y-72147557D01*
X81559981Y-72267944D01*
X81553008Y-72623711D01*
X81525795Y-72969924D01*
X81477188Y-73318216D01*
X81406033Y-73680219D01*
X81395156Y-73728280D01*
X81275266Y-74172924D01*
X81123874Y-74604859D01*
X80941962Y-75022500D01*
X80730512Y-75424262D01*
X80490504Y-75808559D01*
X80222920Y-76173805D01*
X79928743Y-76518417D01*
X79608952Y-76840807D01*
X79264531Y-77139391D01*
X78963985Y-77367992D01*
X78577464Y-77625947D01*
X78180281Y-77851409D01*
X77770860Y-78045110D01*
X77347626Y-78207780D01*
X76909003Y-78340150D01*
X76453416Y-78442950D01*
X76407634Y-78451758D01*
X76362791Y-78460488D01*
X76320779Y-78468537D01*
X76280156Y-78475934D01*
X76239476Y-78482709D01*
X76197298Y-78488892D01*
X76152178Y-78494511D01*
X76102671Y-78499597D01*
X76047335Y-78504178D01*
X75984726Y-78508285D01*
X75913401Y-78511948D01*
X75831916Y-78515195D01*
X75738827Y-78518056D01*
X75632692Y-78520561D01*
X75512066Y-78522740D01*
X75375506Y-78524621D01*
X75221569Y-78526235D01*
X75048811Y-78527611D01*
X74855788Y-78528778D01*
X74641058Y-78529767D01*
X74403176Y-78530606D01*
X74140700Y-78531325D01*
X73852185Y-78531955D01*
X73536188Y-78532523D01*
X73191265Y-78533061D01*
X72815974Y-78533597D01*
X72408871Y-78534161D01*
X71968512Y-78534783D01*
X71589424Y-78535320D01*
X71179496Y-78535868D01*
X70801738Y-78536327D01*
X70454790Y-78536690D01*
X70137292Y-78536947D01*
X69847884Y-78537092D01*
X69585205Y-78537117D01*
X69347896Y-78537014D01*
X69134596Y-78536776D01*
X68943946Y-78536395D01*
X68774584Y-78535862D01*
X68625152Y-78535172D01*
X68494288Y-78534314D01*
X68380632Y-78533283D01*
X68282826Y-78532071D01*
X68199507Y-78530668D01*
X68129317Y-78529069D01*
X68070895Y-78527265D01*
X68022881Y-78525249D01*
X68021449Y-78525167D01*
X67983915Y-78523012D01*
X67952637Y-78520548D01*
X67927686Y-78517848D01*
X67907702Y-78514905D01*
X67891326Y-78511711D01*
X67866936Y-78506060D01*
X67678297Y-78443835D01*
X67506196Y-78354019D01*
X67353375Y-78239417D01*
X67222575Y-78102834D01*
X67116539Y-77947075D01*
X67038008Y-77774947D01*
X66989725Y-77589254D01*
X66989598Y-77588286D01*
X66988467Y-77560631D01*
X66987347Y-77499796D01*
X66986242Y-77407150D01*
X66985158Y-77284061D01*
X66984097Y-77131896D01*
X66983064Y-76952024D01*
X66982063Y-76745813D01*
X66981098Y-76514630D01*
X66980174Y-76259843D01*
X66979294Y-75982820D01*
X66978462Y-75684930D01*
X66977682Y-75367539D01*
X66976960Y-75032016D01*
X66976298Y-74679729D01*
X66975805Y-74376027D01*
X67288958Y-74376027D01*
X67289007Y-74744009D01*
X67289140Y-75083545D01*
X67289359Y-75395733D01*
X67289670Y-75681670D01*
X67290076Y-75942454D01*
X67290582Y-76179180D01*
X67291192Y-76392948D01*
X67291910Y-76584853D01*
X67292741Y-76755993D01*
X67293689Y-76907465D01*
X67294758Y-77040367D01*
X67295952Y-77155795D01*
X67297276Y-77254847D01*
X67298733Y-77338620D01*
X67300329Y-77408211D01*
X67302068Y-77464717D01*
X67303953Y-77509236D01*
X67305989Y-77542865D01*
X67308181Y-77566700D01*
X67310532Y-77581840D01*
X67320967Y-77623009D01*
X67375512Y-77760165D01*
X67455692Y-77889610D01*
X67555043Y-78000278D01*
X67571532Y-78015171D01*
X67644673Y-78075119D01*
X67715741Y-78119919D01*
X67796874Y-78156277D01*
X67900211Y-78190896D01*
X68021449Y-78227715D01*
X72003211Y-78222467D01*
X75984973Y-78217218D01*
X76193170Y-78179971D01*
X76257277Y-78168347D01*
X76469010Y-78127143D01*
X76658152Y-78085133D01*
X76834126Y-78039948D01*
X77006350Y-77989215D01*
X77184245Y-77930566D01*
X77381265Y-77859299D01*
X77809704Y-77679452D01*
X78216845Y-77472633D01*
X78603870Y-77238151D01*
X78971963Y-76975317D01*
X79322307Y-76683440D01*
X79339651Y-76667785D01*
X79553561Y-76459388D01*
X79767563Y-76224122D01*
X79976586Y-75968805D01*
X80175554Y-75700260D01*
X80359394Y-75425305D01*
X80523032Y-75150761D01*
X80661396Y-74883447D01*
X80797790Y-74576290D01*
X80959092Y-74143024D01*
X81086170Y-73705475D01*
X81178952Y-73264107D01*
X81237362Y-72819383D01*
X81261327Y-72371768D01*
X81250773Y-71921724D01*
X81205626Y-71469717D01*
X81164257Y-71209085D01*
X81066415Y-70759691D01*
X80937178Y-70324303D01*
X80776938Y-69903714D01*
X80586084Y-69498715D01*
X80365005Y-69110099D01*
X80114091Y-68738659D01*
X79833732Y-68385186D01*
X79524318Y-68050475D01*
X79342751Y-67875534D01*
X79042970Y-67617441D01*
X78724682Y-67380530D01*
X78380473Y-67159023D01*
X78252672Y-67083996D01*
X78048517Y-66972046D01*
X77846575Y-66872304D01*
X77637691Y-66780603D01*
X77412707Y-66692776D01*
X77162468Y-66604656D01*
X77124244Y-66591871D01*
X76852154Y-66507533D01*
X76592942Y-66440303D01*
X76337324Y-66388535D01*
X76076015Y-66350580D01*
X75799729Y-66324790D01*
X75499181Y-66309519D01*
X75483126Y-66309050D01*
X75412816Y-66307693D01*
X75310340Y-66306398D01*
X75177596Y-66305173D01*
X75016481Y-66304022D01*
X74828893Y-66302952D01*
X74616728Y-66301967D01*
X74381884Y-66301073D01*
X74126259Y-66300275D01*
X73851749Y-66299580D01*
X73560253Y-66298993D01*
X73253666Y-66298518D01*
X72933887Y-66298163D01*
X72602813Y-66297932D01*
X72262341Y-66297830D01*
X71914369Y-66297864D01*
X71560793Y-66298039D01*
X71156904Y-66298332D01*
X70776874Y-66298643D01*
X70428694Y-66298978D01*
X70110925Y-66299350D01*
X69822127Y-66299771D01*
X69560860Y-66300255D01*
X69325684Y-66300816D01*
X69115158Y-66301465D01*
X68927843Y-66302215D01*
X68762299Y-66303081D01*
X68617085Y-66304074D01*
X68490761Y-66305208D01*
X68381888Y-66306495D01*
X68289025Y-66307949D01*
X68210732Y-66309582D01*
X68145569Y-66311408D01*
X68092097Y-66313440D01*
X68048875Y-66315689D01*
X68014463Y-66318171D01*
X67987421Y-66320896D01*
X67966308Y-66323879D01*
X67949686Y-66327132D01*
X67936113Y-66330668D01*
X67794937Y-66383598D01*
X67643879Y-66472137D01*
X67515730Y-66586510D01*
X67411524Y-66725762D01*
X67332296Y-66888935D01*
X67292760Y-66993033D01*
X67289703Y-72232651D01*
X67289499Y-72597703D01*
X67289261Y-73090438D01*
X67289089Y-73550339D01*
X67288986Y-73978503D01*
X67288958Y-74376027D01*
X66975805Y-74376027D01*
X66975701Y-74312046D01*
X66975172Y-73930335D01*
X66974717Y-73535963D01*
X66974339Y-73130299D01*
X66974042Y-72714709D01*
X66973831Y-72290564D01*
X66973808Y-72232568D01*
X66973596Y-71725492D01*
X66973388Y-71251804D01*
X66973205Y-70810325D01*
X66973064Y-70399873D01*
X66972985Y-70019270D01*
X66972987Y-69667333D01*
X66973088Y-69342883D01*
X66973309Y-69044740D01*
X66973667Y-68771723D01*
X66974182Y-68522651D01*
X66974873Y-68296344D01*
X66975759Y-68091621D01*
X66976859Y-67907303D01*
X66978192Y-67742209D01*
X66979777Y-67595158D01*
X66981633Y-67464969D01*
X66983778Y-67350464D01*
X66986233Y-67250460D01*
X66989016Y-67163778D01*
X66992146Y-67089237D01*
X66995642Y-67025657D01*
X66999523Y-66971857D01*
X67003808Y-66926658D01*
X67008516Y-66888877D01*
X67013667Y-66857336D01*
X67019278Y-66830854D01*
X67025370Y-66808249D01*
X67031960Y-66788343D01*
X67039069Y-66769953D01*
X67046716Y-66751901D01*
X67054918Y-66733005D01*
X67063696Y-66712085D01*
X67116419Y-66601095D01*
X67222184Y-66442044D01*
X67353677Y-66302309D01*
X67507322Y-66184932D01*
X67679538Y-66092955D01*
X67866747Y-66029420D01*
X67880615Y-66026027D01*
X67896836Y-66022420D01*
X67914728Y-66019102D01*
X67935666Y-66016065D01*
X67961027Y-66013298D01*
X67992188Y-66010792D01*
X68030525Y-66008537D01*
X68077413Y-66006522D01*
X68134229Y-66004739D01*
X68202349Y-66003177D01*
X68283150Y-66001826D01*
X68378007Y-66000677D01*
X68488297Y-65999720D01*
X68615395Y-65998945D01*
X68760679Y-65998342D01*
X68925524Y-65997902D01*
X69111307Y-65997614D01*
X69319403Y-65997469D01*
X69551189Y-65997457D01*
X69808041Y-65997568D01*
G37*
G36*
X75303129Y-66615272D02*
G01*
X75589163Y-66632652D01*
X75912924Y-66668611D01*
X76224364Y-66722857D01*
X76532351Y-66797281D01*
X76845751Y-66893774D01*
X77173430Y-67014227D01*
X77276046Y-67056049D01*
X77623191Y-67217748D01*
X77967260Y-67408174D01*
X78303781Y-67623902D01*
X78628285Y-67861509D01*
X78936299Y-68117569D01*
X79223354Y-68388658D01*
X79484978Y-68671352D01*
X79716701Y-68962227D01*
X79757016Y-69017374D01*
X79809118Y-69089506D01*
X79850442Y-69148534D01*
X79887146Y-69203544D01*
X79925391Y-69263625D01*
X79971337Y-69337862D01*
X80080121Y-69522444D01*
X80275184Y-69899267D01*
X80441743Y-70287402D01*
X80578330Y-70682840D01*
X80683477Y-71081572D01*
X80755715Y-71479589D01*
X80770513Y-71599984D01*
X80789964Y-71828651D01*
X80801388Y-72073330D01*
X80804722Y-72324081D01*
X80799901Y-72570967D01*
X80786863Y-72804049D01*
X80765542Y-73013389D01*
X80719450Y-73301811D01*
X80624206Y-73716337D01*
X80496602Y-74123412D01*
X80337943Y-74520451D01*
X80149535Y-74904870D01*
X79932681Y-75274084D01*
X79688686Y-75625508D01*
X79418854Y-75956558D01*
X79124490Y-76264650D01*
X78869517Y-76497891D01*
X78514133Y-76783317D01*
X78142315Y-77038708D01*
X77754955Y-77263557D01*
X77352948Y-77457357D01*
X76959919Y-77610730D01*
X76937186Y-77619601D01*
X76508561Y-77749782D01*
X76362983Y-77785399D01*
X76174716Y-77825320D01*
X75980675Y-77860612D01*
X75788629Y-77890103D01*
X75606348Y-77912618D01*
X75441601Y-77926984D01*
X75302158Y-77932027D01*
X75186886Y-77932017D01*
X75186886Y-76646949D01*
X75186886Y-76391820D01*
X76097747Y-76391820D01*
X76105819Y-76408216D01*
X76134557Y-76443007D01*
X76177565Y-76487218D01*
X76227930Y-76533822D01*
X76278739Y-76575792D01*
X76329608Y-76614744D01*
X76231027Y-76714364D01*
X76218581Y-76727156D01*
X76174739Y-76776083D01*
X76144022Y-76816543D01*
X76132446Y-76840820D01*
X76142197Y-76865654D01*
X76168306Y-76900245D01*
X76199498Y-76930278D01*
X76224398Y-76943102D01*
X76234794Y-76935703D01*
X76266447Y-76907253D01*
X76314842Y-76861222D01*
X76375763Y-76801636D01*
X76444994Y-76732518D01*
X76501000Y-76676475D01*
X76562577Y-76615911D01*
X76611912Y-76568592D01*
X76644985Y-76538361D01*
X76657780Y-76529060D01*
X76659009Y-76530739D01*
X76677058Y-76551034D01*
X76711599Y-76588192D01*
X76756591Y-76635696D01*
X76851570Y-76735204D01*
X76665505Y-76921847D01*
X76632569Y-76955300D01*
X76572037Y-77019178D01*
X76523466Y-77073658D01*
X76491165Y-77113811D01*
X76479441Y-77134709D01*
X76481010Y-77148068D01*
X76499689Y-77189112D01*
X76530847Y-77223577D01*
X76563561Y-77238047D01*
X76585919Y-77229317D01*
X76625457Y-77201036D01*
X76670288Y-77159973D01*
X76708160Y-77123613D01*
X76744576Y-77093473D01*
X76765802Y-77081899D01*
X76779738Y-77088239D01*
X76812648Y-77113945D01*
X76853276Y-77152672D01*
X76878128Y-77178175D01*
X76924441Y-77221416D01*
X76959919Y-77240178D01*
X76993232Y-77234279D01*
X77033053Y-77203540D01*
X77088054Y-77147779D01*
X77192749Y-77038525D01*
X77262969Y-77120936D01*
X77298286Y-77158320D01*
X77337456Y-77190835D01*
X77364825Y-77203348D01*
X77384781Y-77196181D01*
X77417453Y-77170558D01*
X77449402Y-77135794D01*
X77471676Y-77101954D01*
X77475322Y-77079104D01*
X77472086Y-77075297D01*
X77448054Y-77051350D01*
X77405058Y-77010385D01*
X77347875Y-76956923D01*
X77281285Y-76895486D01*
X77095356Y-76724986D01*
X77201553Y-76625998D01*
X77307750Y-76527011D01*
X77479148Y-76701835D01*
X77483781Y-76706560D01*
X77560920Y-76784600D01*
X77618413Y-76840267D01*
X77660405Y-76876107D01*
X77691043Y-76894669D01*
X77714472Y-76898501D01*
X77734836Y-76890150D01*
X77756282Y-76872165D01*
X77757607Y-76870907D01*
X77786194Y-76836094D01*
X77798020Y-76806765D01*
X77798018Y-76806606D01*
X77785967Y-76781871D01*
X77754829Y-76742508D01*
X77711277Y-76696966D01*
X77624534Y-76613357D01*
X77696773Y-76548345D01*
X77734637Y-76514109D01*
X77777265Y-76474419D01*
X77801682Y-76449031D01*
X77812760Y-76432675D01*
X77815370Y-76420083D01*
X77814685Y-76417277D01*
X77798469Y-76392487D01*
X77765083Y-76352024D01*
X77720397Y-76303115D01*
X77625424Y-76203546D01*
X77711722Y-76118546D01*
X77712400Y-76117877D01*
X77755556Y-76071397D01*
X77786301Y-76030893D01*
X77798020Y-76005065D01*
X77797579Y-76000607D01*
X77782657Y-75967082D01*
X77753118Y-75928134D01*
X77708216Y-75879683D01*
X77502135Y-76085227D01*
X77449369Y-76137419D01*
X77387569Y-76197299D01*
X77337862Y-76244004D01*
X77304348Y-76273700D01*
X77291128Y-76282552D01*
X77290280Y-76281379D01*
X77273078Y-76261926D01*
X77239248Y-76225444D01*
X77195059Y-76178708D01*
X77103915Y-76083082D01*
X77277470Y-75905601D01*
X77300848Y-75881481D01*
X77359964Y-75818406D01*
X77407626Y-75764526D01*
X77439444Y-75724925D01*
X77451025Y-75704685D01*
X77450759Y-75701502D01*
X77438328Y-75671614D01*
X77414007Y-75634607D01*
X77387070Y-75603127D01*
X77366794Y-75589823D01*
X77349127Y-75601103D01*
X77314597Y-75630712D01*
X77270691Y-75672234D01*
X77186902Y-75754645D01*
X77089080Y-75646088D01*
X77072609Y-75628071D01*
X77027892Y-75581859D01*
X76993012Y-75549689D01*
X76974411Y-75537652D01*
X76971365Y-75538506D01*
X76946732Y-75555555D01*
X76906758Y-75589982D01*
X76858458Y-75635846D01*
X76759352Y-75733918D01*
X76669569Y-75653196D01*
X76668356Y-75652107D01*
X76620893Y-75612027D01*
X76581994Y-75583637D01*
X76559975Y-75573021D01*
X76556319Y-75573630D01*
X76527731Y-75588616D01*
X76490487Y-75617254D01*
X76440810Y-75660939D01*
X76637808Y-75863940D01*
X76682808Y-75910199D01*
X76745172Y-75973908D01*
X76796583Y-76025944D01*
X76832656Y-76061877D01*
X76849008Y-76077280D01*
X76849541Y-76081836D01*
X76834434Y-76106241D01*
X76800879Y-76145536D01*
X76753736Y-76193775D01*
X76644263Y-76299929D01*
X76444481Y-76101024D01*
X76399192Y-76056623D01*
X76334034Y-75995267D01*
X76278829Y-75946291D01*
X76238329Y-75913855D01*
X76217286Y-75902118D01*
X76212898Y-75902400D01*
X76176952Y-75919977D01*
X76145760Y-75954849D01*
X76132446Y-75992962D01*
X76144315Y-76017316D01*
X76176024Y-76055744D01*
X76220621Y-76099627D01*
X76308796Y-76178904D01*
X76203271Y-76276601D01*
X76187065Y-76291813D01*
X76141501Y-76337128D01*
X76109699Y-76372678D01*
X76097747Y-76391820D01*
X75186886Y-76391820D01*
X75186886Y-75361881D01*
X75230260Y-75372167D01*
X75256370Y-75377679D01*
X75318323Y-75386476D01*
X75395413Y-75392104D01*
X75491528Y-75394631D01*
X75610559Y-75394123D01*
X75756395Y-75390647D01*
X75932924Y-75384270D01*
X75987505Y-75382101D01*
X76118103Y-75377096D01*
X76273843Y-75371318D01*
X76448396Y-75364992D01*
X76635431Y-75358344D01*
X76828619Y-75351600D01*
X77021628Y-75344987D01*
X77208129Y-75338730D01*
X77494623Y-75329187D01*
X77788508Y-75319264D01*
X78051108Y-75310215D01*
X78284226Y-75301957D01*
X78489670Y-75294403D01*
X78669245Y-75287469D01*
X78824755Y-75281069D01*
X78958008Y-75275118D01*
X79070809Y-75269531D01*
X79164962Y-75264223D01*
X79242275Y-75259109D01*
X79304553Y-75254103D01*
X79353601Y-75249120D01*
X79391225Y-75244075D01*
X79419231Y-75238882D01*
X79439425Y-75233458D01*
X79477809Y-75219300D01*
X79598620Y-75153562D01*
X79702615Y-75064158D01*
X79784034Y-74956824D01*
X79837118Y-74837297D01*
X79840402Y-74824001D01*
X79849192Y-74764051D01*
X79857333Y-74672553D01*
X79864800Y-74551827D01*
X79871570Y-74404193D01*
X79877616Y-74231972D01*
X79882916Y-74037482D01*
X79887445Y-73823043D01*
X79891178Y-73590976D01*
X79894092Y-73343601D01*
X79896161Y-73083236D01*
X79897362Y-72812203D01*
X79897669Y-72532820D01*
X79897060Y-72247409D01*
X79895508Y-71958288D01*
X79892991Y-71667777D01*
X79889483Y-71378197D01*
X79884961Y-71091867D01*
X79879399Y-70811107D01*
X79878173Y-70755830D01*
X79873043Y-70538101D01*
X79868017Y-70351658D01*
X79862895Y-70193733D01*
X79857482Y-70061556D01*
X79851580Y-69952358D01*
X79844991Y-69863370D01*
X79837519Y-69791823D01*
X79828966Y-69734948D01*
X79819134Y-69689977D01*
X79807826Y-69654139D01*
X79794845Y-69624666D01*
X79789842Y-69615316D01*
X79755089Y-69559396D01*
X79700959Y-69480962D01*
X79629891Y-69383267D01*
X79544326Y-69269565D01*
X79446704Y-69143110D01*
X79339466Y-69007155D01*
X79225052Y-68864954D01*
X79180065Y-68809866D01*
X79100769Y-68715361D01*
X79034948Y-68642477D01*
X78977638Y-68587105D01*
X78923875Y-68545135D01*
X78868698Y-68512457D01*
X78807141Y-68484962D01*
X78734243Y-68458539D01*
X78725980Y-68455743D01*
X78696694Y-68446363D01*
X78667987Y-68438913D01*
X78635938Y-68433254D01*
X78596630Y-68429248D01*
X78546144Y-68426756D01*
X78480560Y-68425639D01*
X78395959Y-68425758D01*
X78288423Y-68426975D01*
X78154032Y-68429150D01*
X77988867Y-68432146D01*
X77852581Y-68434787D01*
X77635690Y-68439461D01*
X77416347Y-68444714D01*
X77197650Y-68450439D01*
X76982692Y-68456530D01*
X76919628Y-68458454D01*
X76774569Y-68462879D01*
X76576376Y-68469381D01*
X76391209Y-68475927D01*
X76385200Y-68476158D01*
X76248990Y-68481383D01*
X76222163Y-68482412D01*
X76072333Y-68488729D01*
X75944815Y-68494770D01*
X75842702Y-68500429D01*
X75769092Y-68505599D01*
X75727079Y-68510174D01*
X75699380Y-68515305D01*
X75588103Y-68548541D01*
X75489105Y-68602963D01*
X75390953Y-68684501D01*
X75385431Y-68689769D01*
X75341244Y-68731086D01*
X75308461Y-68760301D01*
X75293829Y-68771380D01*
X75290737Y-68756574D01*
X75286114Y-68710914D01*
X75280333Y-68638322D01*
X75273618Y-68542781D01*
X75266197Y-68428272D01*
X75258294Y-68298778D01*
X75250136Y-68158282D01*
X75249840Y-68152958D01*
X76033407Y-68152958D01*
X76057149Y-68192411D01*
X76108171Y-68244725D01*
X76156124Y-68286734D01*
X76208872Y-68322274D01*
X76248990Y-68332611D01*
X76280751Y-68319596D01*
X76295159Y-68304231D01*
X76304035Y-68264570D01*
X76289259Y-68233626D01*
X76550516Y-68233626D01*
X76569659Y-68264768D01*
X76578181Y-68272431D01*
X76603954Y-68283307D01*
X76635066Y-68274793D01*
X76677039Y-68244382D01*
X76735398Y-68189570D01*
X76747955Y-68177335D01*
X76793215Y-68137090D01*
X76828001Y-68112030D01*
X76845619Y-68107159D01*
X76850504Y-68116966D01*
X76858816Y-68154732D01*
X76864431Y-68207514D01*
X76867504Y-68248196D01*
X76874528Y-68279344D01*
X76890013Y-68290667D01*
X76919628Y-68290708D01*
X76959793Y-68281510D01*
X77000465Y-68259081D01*
X77017187Y-68233222D01*
X77018654Y-68184570D01*
X76995881Y-68129384D01*
X76951076Y-68075859D01*
X76901566Y-68030953D01*
X76938269Y-67984923D01*
X76974972Y-67938893D01*
X77121530Y-68086216D01*
X77179741Y-68142574D01*
X77232772Y-68189836D01*
X77273513Y-68221794D01*
X77296143Y-68233539D01*
X77300676Y-68233216D01*
X77336104Y-68216039D01*
X77367859Y-68182959D01*
X77381626Y-68148260D01*
X77379472Y-68141659D01*
X77359341Y-68111752D01*
X77322582Y-68067269D01*
X77274778Y-68015166D01*
X77167930Y-67903894D01*
X77305140Y-67904369D01*
X77442350Y-67904843D01*
X77563798Y-68025756D01*
X77597499Y-68058545D01*
X77647189Y-68103940D01*
X77685345Y-68135124D01*
X77705674Y-68146729D01*
X77707189Y-68146621D01*
X77732097Y-68132116D01*
X77762438Y-68100597D01*
X77764531Y-68097961D01*
X77780772Y-68077988D01*
X77788695Y-68062515D01*
X77785464Y-68045359D01*
X77768241Y-68020337D01*
X77734189Y-67981266D01*
X77680472Y-67921964D01*
X77626331Y-67861961D01*
X77712175Y-67771193D01*
X77715811Y-67767331D01*
X77757367Y-67720517D01*
X77786828Y-67682520D01*
X77798020Y-67661248D01*
X77797668Y-67658493D01*
X77782942Y-67631846D01*
X77753263Y-67597314D01*
X77708506Y-67552557D01*
X77637775Y-67619790D01*
X77612600Y-67644126D01*
X77559625Y-67697279D01*
X77515912Y-67743409D01*
X77490098Y-67770302D01*
X77466014Y-67787070D01*
X77434847Y-67795857D01*
X77387392Y-67799240D01*
X77314444Y-67799796D01*
X77164107Y-67799796D01*
X77272866Y-67686113D01*
X77295391Y-67661901D01*
X77339573Y-67609878D01*
X77370181Y-67567324D01*
X77381626Y-67541665D01*
X77381527Y-67539503D01*
X77367705Y-67506182D01*
X77337632Y-67469569D01*
X77293638Y-67428238D01*
X77128395Y-67593481D01*
X76963152Y-67758725D01*
X76922099Y-67716666D01*
X76824943Y-67617128D01*
X76784154Y-67575794D01*
X76716253Y-67510455D01*
X76665177Y-67467910D01*
X76627182Y-67445688D01*
X76598523Y-67441312D01*
X76575455Y-67452310D01*
X76567629Y-67459437D01*
X76553031Y-67483661D01*
X76555606Y-67513738D01*
X76577481Y-67554041D01*
X76620782Y-67608938D01*
X76687637Y-67682800D01*
X76737295Y-67737142D01*
X76790027Y-67800481D01*
X76819002Y-67845314D01*
X76825718Y-67874134D01*
X76811671Y-67889436D01*
X76800868Y-67897953D01*
X76769971Y-67927777D01*
X76725447Y-67973504D01*
X76672873Y-68029508D01*
X76625350Y-68082903D01*
X76576625Y-68146653D01*
X76552259Y-68195574D01*
X76550516Y-68233626D01*
X76289259Y-68233626D01*
X76280896Y-68216113D01*
X76225331Y-68157652D01*
X76171582Y-68110852D01*
X76131510Y-68080223D01*
X76104207Y-68067945D01*
X76083146Y-68071206D01*
X76061800Y-68087195D01*
X76060598Y-68088290D01*
X76035154Y-68120279D01*
X76033407Y-68152958D01*
X75249840Y-68152958D01*
X75241947Y-68010764D01*
X75233955Y-67860209D01*
X75233768Y-67856523D01*
X75597541Y-67856523D01*
X75605996Y-67870557D01*
X75632197Y-67879366D01*
X75680381Y-67884160D01*
X75754788Y-67886150D01*
X75859653Y-67886544D01*
X76124702Y-67886544D01*
X76245219Y-68007992D01*
X76278583Y-68040879D01*
X76327751Y-68086485D01*
X76365362Y-68117803D01*
X76385200Y-68129440D01*
X76392675Y-68128222D01*
X76423171Y-68107825D01*
X76450344Y-68073212D01*
X76462091Y-68038671D01*
X76458762Y-68027345D01*
X76435392Y-67994836D01*
X76397029Y-67958208D01*
X76331968Y-67905057D01*
X76482359Y-67904476D01*
X76508183Y-67904226D01*
X76577007Y-67902061D01*
X76630986Y-67898234D01*
X76660194Y-67893363D01*
X76666369Y-67890648D01*
X76686188Y-67867225D01*
X76676002Y-67836237D01*
X76637253Y-67803344D01*
X76624434Y-67796127D01*
X76587197Y-67782991D01*
X76538920Y-67779196D01*
X76468093Y-67783385D01*
X76466311Y-67783544D01*
X76406297Y-67788042D01*
X76361749Y-67789774D01*
X76342195Y-67788362D01*
X76341457Y-67787579D01*
X76346989Y-67770816D01*
X76369081Y-67745765D01*
X76396884Y-67722987D01*
X76419549Y-67713047D01*
X76433410Y-67710464D01*
X76451007Y-67688639D01*
X76448348Y-67653265D01*
X76424858Y-67614926D01*
X76423628Y-67613626D01*
X76392650Y-67585771D01*
X76370816Y-67574249D01*
X76365989Y-67576062D01*
X76339278Y-67595381D01*
X76297246Y-67631345D01*
X76246581Y-67678348D01*
X76138174Y-67782446D01*
X76136935Y-67782446D01*
X75884349Y-67782446D01*
X75879524Y-67782446D01*
X75781486Y-67782819D01*
X75712321Y-67784360D01*
X75666436Y-67787759D01*
X75638243Y-67793706D01*
X75622149Y-67802891D01*
X75612565Y-67816005D01*
X75602595Y-67836054D01*
X75597541Y-67856523D01*
X75233768Y-67856523D01*
X75226384Y-67710597D01*
X75219460Y-67565911D01*
X75218929Y-67553987D01*
X76029055Y-67553987D01*
X76082995Y-67611730D01*
X76136935Y-67669473D01*
X76212764Y-67583299D01*
X76249745Y-67538827D01*
X76277845Y-67499995D01*
X76288594Y-67477988D01*
X76276263Y-67450263D01*
X76245866Y-67419562D01*
X76210091Y-67396828D01*
X76181642Y-67392244D01*
X76165979Y-67402626D01*
X76131888Y-67434447D01*
X76092550Y-67478027D01*
X76029055Y-67553987D01*
X75218929Y-67553987D01*
X75213410Y-67430133D01*
X75208458Y-67307245D01*
X75205961Y-67234281D01*
X76653200Y-67234281D01*
X76653327Y-67235741D01*
X76666897Y-67263079D01*
X76698449Y-67306867D01*
X76741723Y-67359976D01*
X76790460Y-67415280D01*
X76838400Y-67465652D01*
X76879283Y-67503965D01*
X76906851Y-67523090D01*
X76922099Y-67527648D01*
X76945031Y-67526729D01*
X76972970Y-67512825D01*
X77012547Y-67482209D01*
X77070393Y-67431152D01*
X77098682Y-67405089D01*
X77145838Y-67359007D01*
X77178413Y-67323524D01*
X77190611Y-67304732D01*
X77190408Y-67302944D01*
X77174033Y-67281650D01*
X77139417Y-67256445D01*
X77109131Y-67240055D01*
X77086270Y-67237497D01*
X77060420Y-67252295D01*
X77020203Y-67287403D01*
X76993745Y-67310265D01*
X76957373Y-67337913D01*
X76936442Y-67348703D01*
X76922591Y-67340524D01*
X76892107Y-67311735D01*
X76854207Y-67269357D01*
X76812051Y-67222814D01*
X76761528Y-67182461D01*
X76719625Y-67171500D01*
X76683300Y-67188491D01*
X76664800Y-67208852D01*
X76653200Y-67234281D01*
X75205961Y-67234281D01*
X75204830Y-67201230D01*
X75201754Y-67105614D01*
X75197626Y-66992290D01*
X75193338Y-66888025D01*
X75189245Y-66801363D01*
X75185704Y-66740846D01*
X75176476Y-66610107D01*
X75303129Y-66615272D01*
G37*
G36*
X72141455Y-70629663D02*
G01*
X72149220Y-70675230D01*
X72160125Y-70754077D01*
X72174076Y-70865474D01*
X72190979Y-71008689D01*
X72210740Y-71182992D01*
X72234093Y-71390879D01*
X72299212Y-71955678D01*
X72366406Y-72516140D01*
X72437960Y-73091462D01*
X72449570Y-73184061D01*
X72465323Y-73311202D01*
X72482529Y-73451298D01*
X72499788Y-73592941D01*
X72515700Y-73724727D01*
X72522976Y-73785022D01*
X72539838Y-73923144D01*
X72559172Y-74079889D01*
X72579683Y-74244821D01*
X72600076Y-74407508D01*
X72619057Y-74557514D01*
X72632011Y-74659356D01*
X72649784Y-74799269D01*
X72667025Y-74935177D01*
X72682770Y-75059475D01*
X72696054Y-75164560D01*
X72705915Y-75242828D01*
X72714350Y-75309979D01*
X72728122Y-75419610D01*
X72743832Y-75544656D01*
X72760131Y-75674373D01*
X72775667Y-75798020D01*
X72776411Y-75803944D01*
X72789617Y-75912133D01*
X72801116Y-76011696D01*
X72810212Y-76096189D01*
X72816210Y-76159166D01*
X72818415Y-76194180D01*
X72818237Y-76199870D01*
X72814701Y-76220567D01*
X72805539Y-76247785D01*
X72789307Y-76284055D01*
X72764562Y-76331905D01*
X72729861Y-76393864D01*
X72683762Y-76472462D01*
X72680634Y-76477651D01*
X72624822Y-76570228D01*
X72551597Y-76689691D01*
X72525681Y-76731555D01*
X72474039Y-76814975D01*
X72462645Y-76833380D01*
X72356522Y-77003826D01*
X72355121Y-77006068D01*
X72317894Y-77065636D01*
X72255943Y-77163860D01*
X72208738Y-77236838D01*
X72181348Y-77276905D01*
X72174123Y-77287474D01*
X72149944Y-77318672D01*
X72134047Y-77333337D01*
X72125441Y-77334249D01*
X72124276Y-77334372D01*
X72118478Y-77324682D01*
X72117945Y-77322655D01*
X72112517Y-77293100D01*
X72103042Y-77234690D01*
X72090223Y-77152014D01*
X72074765Y-77049664D01*
X72057371Y-76932231D01*
X72038744Y-76804304D01*
X72032090Y-76758425D01*
X72130055Y-76758425D01*
X72131347Y-76800053D01*
X72144116Y-76865028D01*
X72145294Y-76870360D01*
X72158885Y-76936553D01*
X72170465Y-76999752D01*
X72181348Y-77065077D01*
X72231487Y-76996899D01*
X72250825Y-76970054D01*
X72267649Y-76940233D01*
X72273858Y-76909631D01*
X72271150Y-76867090D01*
X72261223Y-76801451D01*
X72259640Y-76791652D01*
X72254097Y-76759225D01*
X72249289Y-76731098D01*
X72240767Y-76686868D01*
X72235788Y-76667951D01*
X72234031Y-76667446D01*
X72213028Y-76676660D01*
X72177707Y-76699494D01*
X72170053Y-76705037D01*
X72142277Y-76730101D01*
X72130055Y-76758425D01*
X72032090Y-76758425D01*
X72026066Y-76716886D01*
X72011886Y-76620037D01*
X72000992Y-76545632D01*
X71975789Y-76375099D01*
X72076728Y-76375099D01*
X72078022Y-76410749D01*
X72088808Y-76465842D01*
X72109017Y-76547364D01*
X72125441Y-76611394D01*
X72177324Y-76582063D01*
X72195152Y-76571091D01*
X72219812Y-76544330D01*
X72220964Y-76509358D01*
X72218436Y-76495269D01*
X72212993Y-76461348D01*
X72210077Y-76443175D01*
X72201420Y-76383573D01*
X72194132Y-76343185D01*
X72192525Y-76339769D01*
X72282747Y-76339769D01*
X72284081Y-76376101D01*
X72289006Y-76435908D01*
X72298389Y-76505269D01*
X72313388Y-76592259D01*
X72335164Y-76704953D01*
X72355121Y-76805125D01*
X72396038Y-76744911D01*
X72421768Y-76695811D01*
X72436954Y-76607975D01*
X72436902Y-76603576D01*
X72433739Y-76558299D01*
X72426621Y-76495303D01*
X72423544Y-76472580D01*
X72416869Y-76423288D01*
X72405802Y-76350950D01*
X72394741Y-76286990D01*
X72385007Y-76240104D01*
X72377918Y-76218993D01*
X72361428Y-76219986D01*
X72326587Y-76230848D01*
X72308811Y-76238558D01*
X72290527Y-76255176D01*
X72283247Y-76285416D01*
X72282747Y-76339769D01*
X72192525Y-76339769D01*
X72178266Y-76309456D01*
X72152217Y-76305436D01*
X72111170Y-76328170D01*
X72102888Y-76334185D01*
X72102360Y-76334708D01*
X72084994Y-76351906D01*
X72076728Y-76375099D01*
X71975789Y-76375099D01*
X71973953Y-76362677D01*
X71946661Y-76179534D01*
X71920827Y-76007719D01*
X71919139Y-75996622D01*
X72023672Y-75996622D01*
X72028616Y-76072259D01*
X72047436Y-76175376D01*
X72066559Y-76206124D01*
X72102360Y-76213115D01*
X72127755Y-76201115D01*
X72474673Y-76201115D01*
X72476335Y-76251169D01*
X72489568Y-76327186D01*
X72490557Y-76332049D01*
X72503380Y-76398684D01*
X72514724Y-76462729D01*
X72525681Y-76528873D01*
X72557798Y-76488043D01*
X72580976Y-76453456D01*
X72594844Y-76421899D01*
X72595107Y-76420253D01*
X72595241Y-76388377D01*
X72591712Y-76335940D01*
X72585706Y-76273980D01*
X72578410Y-76213534D01*
X72575799Y-76196634D01*
X72571010Y-76165638D01*
X72564692Y-76141331D01*
X72548140Y-76138151D01*
X72514408Y-76148453D01*
X72510001Y-76150560D01*
X72485567Y-76169939D01*
X72474673Y-76201115D01*
X72127755Y-76201115D01*
X72145509Y-76192726D01*
X72148753Y-76190029D01*
X72160561Y-76173950D01*
X72164974Y-76147902D01*
X72162378Y-76103830D01*
X72153163Y-76033679D01*
X72145242Y-75984737D01*
X72130724Y-75926686D01*
X72231464Y-75926686D01*
X72233224Y-75989465D01*
X72241396Y-76079953D01*
X72245355Y-76114209D01*
X72254097Y-76138941D01*
X72274915Y-76138640D01*
X72317292Y-76118066D01*
X72337011Y-76107279D01*
X72337364Y-76106961D01*
X72630190Y-76106961D01*
X72634706Y-76142331D01*
X72645145Y-76195673D01*
X72658143Y-76247101D01*
X72670905Y-76285853D01*
X72680634Y-76301162D01*
X72689433Y-76299733D01*
X72714676Y-76275179D01*
X72730383Y-76225559D01*
X72733939Y-76157903D01*
X72733219Y-76143508D01*
X72726875Y-76078711D01*
X72715167Y-76044135D01*
X72695733Y-76036039D01*
X72666208Y-76050682D01*
X72642477Y-76074765D01*
X72641438Y-76075819D01*
X72630190Y-76106961D01*
X72337364Y-76106961D01*
X72357961Y-76088394D01*
X72363721Y-76059957D01*
X72359042Y-76009630D01*
X72356929Y-75993009D01*
X72351828Y-75954323D01*
X72345951Y-75909751D01*
X72343617Y-75896185D01*
X72425552Y-75896185D01*
X72435860Y-75976046D01*
X72444987Y-76017835D01*
X72456540Y-76044495D01*
X72474039Y-76045398D01*
X72504063Y-76025293D01*
X72517684Y-76014539D01*
X72532021Y-75997329D01*
X72537196Y-75972978D01*
X72534387Y-75932455D01*
X72524774Y-75866724D01*
X72523231Y-75856919D01*
X72512533Y-75795603D01*
X72503006Y-75750918D01*
X72594895Y-75750918D01*
X72596105Y-75779118D01*
X72603155Y-75848680D01*
X72613903Y-75906179D01*
X72614807Y-75909562D01*
X72627841Y-75948646D01*
X72642477Y-75960640D01*
X72666248Y-75952162D01*
X72676718Y-75945877D01*
X72689457Y-75931393D01*
X72695006Y-75906230D01*
X72694496Y-75862450D01*
X72689058Y-75792116D01*
X72687243Y-75772102D01*
X72680412Y-75707932D01*
X72673782Y-75660065D01*
X72668566Y-75637650D01*
X72656439Y-75633351D01*
X72626748Y-75642436D01*
X72626491Y-75642574D01*
X72606028Y-75660962D01*
X72596471Y-75693756D01*
X72594895Y-75750918D01*
X72503006Y-75750918D01*
X72502856Y-75750213D01*
X72496129Y-75729963D01*
X72485671Y-75728298D01*
X72457809Y-75739686D01*
X72437819Y-75769083D01*
X72426472Y-75824321D01*
X72425552Y-75896185D01*
X72343617Y-75896185D01*
X72336654Y-75855706D01*
X72326590Y-75826409D01*
X72313311Y-75817398D01*
X72294370Y-75824209D01*
X72267317Y-75842378D01*
X72250029Y-75858168D01*
X72236829Y-75885093D01*
X72231464Y-75926686D01*
X72130724Y-75926686D01*
X72129936Y-75923534D01*
X72111141Y-75892774D01*
X72086650Y-75889737D01*
X72054256Y-75911701D01*
X72032715Y-75944090D01*
X72023672Y-75996622D01*
X71919139Y-75996622D01*
X71898165Y-75858744D01*
X71883183Y-75760854D01*
X71858262Y-75597436D01*
X71831023Y-75418250D01*
X71803130Y-75234272D01*
X71776249Y-75056475D01*
X71752046Y-74895834D01*
X71732269Y-74764712D01*
X71708234Y-74606320D01*
X71683980Y-74447371D01*
X71660841Y-74296583D01*
X71640152Y-74162677D01*
X71623248Y-74054372D01*
X71618291Y-74022536D01*
X71603883Y-73927942D01*
X71585567Y-73805588D01*
X71564010Y-73660045D01*
X71557005Y-73612377D01*
X71659196Y-73612377D01*
X71665836Y-73637979D01*
X71667333Y-73643668D01*
X71674259Y-73680107D01*
X71685548Y-73746277D01*
X71700697Y-73838952D01*
X71719206Y-73954905D01*
X71740571Y-74090912D01*
X71764292Y-74243746D01*
X71789865Y-74410180D01*
X71816791Y-74586990D01*
X71844566Y-74770947D01*
X71872688Y-74958828D01*
X71900657Y-75147405D01*
X71916416Y-75253645D01*
X71936609Y-75388182D01*
X71955188Y-75510193D01*
X71971474Y-75615315D01*
X71984789Y-75699186D01*
X71994458Y-75757445D01*
X71999801Y-75785729D01*
X72011886Y-75834162D01*
X72067162Y-75785729D01*
X72122438Y-75737296D01*
X72115984Y-75688973D01*
X72091258Y-75503838D01*
X72179995Y-75503838D01*
X72181179Y-75547792D01*
X72189268Y-75613422D01*
X72203867Y-75706969D01*
X72212993Y-75763391D01*
X72264250Y-75736886D01*
X72270130Y-75733741D01*
X72305544Y-75703530D01*
X72315506Y-75661144D01*
X72315221Y-75650608D01*
X72310678Y-75602920D01*
X72302141Y-75544738D01*
X72291607Y-75487303D01*
X72289273Y-75477229D01*
X72281078Y-75441856D01*
X72272551Y-75419636D01*
X72272467Y-75419556D01*
X72253818Y-75422501D01*
X72220624Y-75440400D01*
X72199906Y-75456002D01*
X72194751Y-75463219D01*
X72186106Y-75475321D01*
X72179995Y-75503838D01*
X72091258Y-75503838D01*
X72079391Y-75414988D01*
X72370214Y-75414988D01*
X72373061Y-75473100D01*
X72383602Y-75558732D01*
X72383840Y-75560428D01*
X72393863Y-75618625D01*
X72405713Y-75646623D01*
X72423544Y-75648740D01*
X72451513Y-75629294D01*
X72461570Y-75620464D01*
X72475523Y-75602261D01*
X72480866Y-75576857D01*
X72478629Y-75535235D01*
X72474239Y-75501854D01*
X72469836Y-75468375D01*
X72468100Y-75456306D01*
X72458644Y-75395429D01*
X72450628Y-75351207D01*
X72446113Y-75334314D01*
X72525930Y-75334314D01*
X72526558Y-75343648D01*
X72533001Y-75400238D01*
X72543172Y-75461086D01*
X72555045Y-75516521D01*
X72566596Y-75556873D01*
X72575799Y-75572473D01*
X72594097Y-75564662D01*
X72625447Y-75542111D01*
X72635578Y-75533172D01*
X72649087Y-75515206D01*
X72654011Y-75489937D01*
X72651261Y-75448400D01*
X72641747Y-75381626D01*
X72639884Y-75369552D01*
X72629877Y-75308521D01*
X72621603Y-75263965D01*
X72616696Y-75244816D01*
X72616611Y-75244715D01*
X72599898Y-75248659D01*
X72567619Y-75266903D01*
X72539603Y-75293113D01*
X72535869Y-75304365D01*
X72525930Y-75334314D01*
X72446113Y-75334314D01*
X72445631Y-75332509D01*
X72433734Y-75333293D01*
X72403741Y-75346132D01*
X72390049Y-75355532D01*
X72375673Y-75377949D01*
X72370214Y-75414988D01*
X72079391Y-75414988D01*
X72068273Y-75331744D01*
X72055239Y-75234154D01*
X72040469Y-75124513D01*
X72125987Y-75124513D01*
X72134191Y-75190779D01*
X72134936Y-75194410D01*
X72141858Y-75232005D01*
X72150315Y-75281865D01*
X72152071Y-75291648D01*
X72168119Y-75334456D01*
X72194751Y-75345044D01*
X72234894Y-75324903D01*
X72239292Y-75321531D01*
X72252215Y-75306054D01*
X72257108Y-75281782D01*
X72254537Y-75240276D01*
X72245338Y-75175016D01*
X72245067Y-75173093D01*
X72243193Y-75161006D01*
X72233253Y-75100432D01*
X72225157Y-75056606D01*
X72220506Y-75038320D01*
X72206690Y-75040399D01*
X72204317Y-75040756D01*
X72170275Y-75054117D01*
X72167693Y-75055329D01*
X72136549Y-75081652D01*
X72125987Y-75124513D01*
X72040469Y-75124513D01*
X72036790Y-75097203D01*
X72026504Y-75022019D01*
X72299856Y-75022019D01*
X72302919Y-75045623D01*
X72311411Y-75093819D01*
X72322822Y-75150860D01*
X72334879Y-75206000D01*
X72345306Y-75248491D01*
X72351828Y-75267584D01*
X72368868Y-75264049D01*
X72399965Y-75244556D01*
X72413585Y-75233802D01*
X72427923Y-75216591D01*
X72433097Y-75192241D01*
X72430288Y-75151717D01*
X72420676Y-75085986D01*
X72419094Y-75075917D01*
X72412384Y-75036813D01*
X72408631Y-75014941D01*
X72399457Y-74970140D01*
X72398101Y-74965763D01*
X72491615Y-74965763D01*
X72494284Y-75027295D01*
X72501707Y-75117043D01*
X72505860Y-75153507D01*
X72515914Y-75183479D01*
X72535869Y-75185531D01*
X72571892Y-75163771D01*
X72591923Y-75147707D01*
X72604828Y-75127199D01*
X72608522Y-75096359D01*
X72603814Y-75047289D01*
X72591512Y-74972088D01*
X72588084Y-74952545D01*
X72577990Y-74902406D01*
X72567976Y-74878281D01*
X72553691Y-74873743D01*
X72530788Y-74882366D01*
X72519887Y-74887924D01*
X72503642Y-74902332D01*
X72494476Y-74926193D01*
X72491615Y-74965763D01*
X72398101Y-74965763D01*
X72393404Y-74950599D01*
X72393323Y-74950521D01*
X72375085Y-74953889D01*
X72342072Y-74971957D01*
X72311785Y-74998262D01*
X72299856Y-75022019D01*
X72026504Y-75022019D01*
X72017110Y-74953358D01*
X71997904Y-74815044D01*
X71993874Y-74786490D01*
X71986092Y-74731353D01*
X72074220Y-74731353D01*
X72078784Y-74797314D01*
X72096244Y-74890679D01*
X72115984Y-74980947D01*
X72157042Y-74949804D01*
X72158387Y-74948780D01*
X72179862Y-74929184D01*
X72190253Y-74905926D01*
X72191653Y-74868771D01*
X72186156Y-74807486D01*
X72183262Y-74780824D01*
X72174729Y-74711443D01*
X72166162Y-74669672D01*
X72155043Y-74650161D01*
X72138851Y-74647558D01*
X72115066Y-74656513D01*
X72105381Y-74661770D01*
X72082953Y-74687827D01*
X72074220Y-74731353D01*
X71986092Y-74731353D01*
X71980182Y-74689478D01*
X71973281Y-74641623D01*
X72248135Y-74641623D01*
X72248749Y-74650538D01*
X72254193Y-74698077D01*
X72262908Y-74755370D01*
X72272953Y-74811376D01*
X72282384Y-74855057D01*
X72289259Y-74875370D01*
X72289273Y-74875384D01*
X72307574Y-74872512D01*
X72340535Y-74854707D01*
X72344626Y-74851960D01*
X72373824Y-74820662D01*
X72376452Y-74778621D01*
X72374347Y-74764853D01*
X72366659Y-74710506D01*
X72358675Y-74649810D01*
X72352111Y-74597720D01*
X72438730Y-74597720D01*
X72438871Y-74602981D01*
X72443446Y-74664163D01*
X72452206Y-74725044D01*
X72463139Y-74774174D01*
X72474239Y-74800104D01*
X72490277Y-74796098D01*
X72520863Y-74776528D01*
X72540787Y-74759082D01*
X72552444Y-74736397D01*
X72554439Y-74700577D01*
X72548965Y-74641041D01*
X72546012Y-74616232D01*
X72535348Y-74551641D01*
X72521678Y-74515011D01*
X72502127Y-74501128D01*
X72473820Y-74504778D01*
X72471959Y-74505384D01*
X72449946Y-74518810D01*
X72440158Y-74546178D01*
X72438730Y-74597720D01*
X72352111Y-74597720D01*
X72348442Y-74568609D01*
X72297275Y-74586446D01*
X72258727Y-74608531D01*
X72248135Y-74641623D01*
X71973281Y-74641623D01*
X71964955Y-74583879D01*
X71953233Y-74505465D01*
X71949970Y-74484271D01*
X71945087Y-74452149D01*
X71933491Y-74375868D01*
X71928005Y-74339201D01*
X72008012Y-74339201D01*
X72013779Y-74383351D01*
X72026789Y-74453416D01*
X72036579Y-74496555D01*
X72052575Y-74540613D01*
X72068273Y-74555779D01*
X72072363Y-74555457D01*
X72109796Y-74551880D01*
X72131211Y-74543420D01*
X72140056Y-74522640D01*
X72139779Y-74482105D01*
X72133827Y-74414379D01*
X72133334Y-74409251D01*
X72132525Y-74400835D01*
X72124450Y-74336796D01*
X72119791Y-74312137D01*
X72214007Y-74312137D01*
X72215993Y-74369450D01*
X72222264Y-74450463D01*
X72231997Y-74498378D01*
X72245338Y-74514140D01*
X72264667Y-74506208D01*
X72296870Y-74483778D01*
X72309482Y-74472832D01*
X72322212Y-74455084D01*
X72326606Y-74429359D01*
X72326516Y-74428098D01*
X72323576Y-74386902D01*
X72314033Y-74318955D01*
X72305718Y-74266023D01*
X72295193Y-74217133D01*
X72282867Y-74192840D01*
X72281294Y-74192353D01*
X72265251Y-74187389D01*
X72238851Y-74195026D01*
X72235983Y-74196285D01*
X72221432Y-74212977D01*
X72214636Y-74249100D01*
X72214007Y-74312137D01*
X72119791Y-74312137D01*
X72115245Y-74288077D01*
X72106655Y-74264327D01*
X72084618Y-74261002D01*
X72047476Y-74277739D01*
X72043832Y-74280125D01*
X72022071Y-74295800D01*
X72010453Y-74312755D01*
X72008012Y-74339201D01*
X71928005Y-74339201D01*
X71915706Y-74257004D01*
X71897332Y-74132656D01*
X71886178Y-74056334D01*
X71879085Y-74007799D01*
X71872650Y-73963286D01*
X71953190Y-73963286D01*
X71953632Y-73967704D01*
X71959533Y-74011467D01*
X71968518Y-74065838D01*
X71978512Y-74119588D01*
X71987445Y-74161488D01*
X71993243Y-74180311D01*
X71993874Y-74180735D01*
X72014285Y-74176900D01*
X72050580Y-74160891D01*
X72096338Y-74137229D01*
X72369872Y-74137229D01*
X72370368Y-74139179D01*
X72374313Y-74165298D01*
X72380849Y-74215024D01*
X72388853Y-74279919D01*
X72391213Y-74299118D01*
X72399670Y-74361254D01*
X72407066Y-74406239D01*
X72412019Y-74425404D01*
X72412384Y-74425690D01*
X72430941Y-74420910D01*
X72464445Y-74402001D01*
X72478093Y-74391957D01*
X72494453Y-74371749D01*
X72502298Y-74342368D01*
X72501942Y-74297624D01*
X72493700Y-74231327D01*
X72477887Y-74137287D01*
X72476833Y-74131367D01*
X72468247Y-74097594D01*
X72452458Y-74091535D01*
X72417768Y-74107371D01*
X72413919Y-74109377D01*
X72389255Y-74123369D01*
X72381787Y-74127605D01*
X72369872Y-74137229D01*
X72096338Y-74137229D01*
X72101174Y-74134728D01*
X72078906Y-74007801D01*
X72077120Y-73997624D01*
X72066622Y-73937720D01*
X72059053Y-73894431D01*
X72055949Y-73876537D01*
X72044828Y-73870766D01*
X72017683Y-73881846D01*
X71985861Y-73906899D01*
X71962961Y-73936064D01*
X71953190Y-73963286D01*
X71872650Y-73963286D01*
X71861681Y-73887408D01*
X71857714Y-73859633D01*
X72144173Y-73859633D01*
X72153581Y-73934709D01*
X72165778Y-74004693D01*
X72178617Y-74057175D01*
X72190336Y-74083614D01*
X72206690Y-74090556D01*
X72245146Y-74077484D01*
X72254738Y-74071031D01*
X72268680Y-74055321D01*
X72275197Y-74030943D01*
X72274477Y-73991551D01*
X72266706Y-73930799D01*
X72252070Y-73842342D01*
X72251050Y-73836448D01*
X72242634Y-73802648D01*
X72226912Y-73796583D01*
X72192222Y-73812426D01*
X72189514Y-73813858D01*
X72156546Y-73837848D01*
X72144173Y-73859633D01*
X71857714Y-73859633D01*
X71845836Y-73776457D01*
X71832266Y-73679923D01*
X71821687Y-73602779D01*
X71815597Y-73556013D01*
X71901632Y-73556013D01*
X71904012Y-73582807D01*
X71910775Y-73635279D01*
X71919964Y-73695619D01*
X71929844Y-73753258D01*
X71938677Y-73797629D01*
X71944726Y-73818164D01*
X71945087Y-73818484D01*
X71963003Y-73813570D01*
X71996219Y-73794619D01*
X71998607Y-73792984D01*
X72336561Y-73792984D01*
X72337717Y-73851905D01*
X72349163Y-73936939D01*
X72357808Y-73982731D01*
X72370397Y-74015467D01*
X72389255Y-74023123D01*
X72419474Y-74011068D01*
X72429708Y-74005150D01*
X72444141Y-73990933D01*
X72450585Y-73967192D01*
X72450430Y-73925605D01*
X72445068Y-73857852D01*
X72438455Y-73795002D01*
X72428059Y-73737726D01*
X72414171Y-73709156D01*
X72394803Y-73705848D01*
X72367965Y-73724356D01*
X72367671Y-73724623D01*
X72346333Y-73752962D01*
X72336561Y-73792984D01*
X71998607Y-73792984D01*
X72011952Y-73783849D01*
X72028664Y-73766797D01*
X72036046Y-73742439D01*
X72036063Y-73701702D01*
X72030682Y-73635510D01*
X72028885Y-73616170D01*
X72026566Y-73591213D01*
X72018923Y-73524957D01*
X72011754Y-73493535D01*
X72109180Y-73493535D01*
X72112062Y-73565572D01*
X72123047Y-73667036D01*
X72133334Y-73748143D01*
X72183392Y-73704887D01*
X72233451Y-73661631D01*
X72212993Y-73537750D01*
X72212986Y-73537708D01*
X72211838Y-73530814D01*
X72201043Y-73470573D01*
X72191772Y-73426313D01*
X72188989Y-73417215D01*
X72282847Y-73417215D01*
X72286496Y-73460415D01*
X72294210Y-73517874D01*
X72303908Y-73574645D01*
X72313646Y-73619463D01*
X72321480Y-73641061D01*
X72326516Y-73643689D01*
X72351335Y-73636647D01*
X72381431Y-73614192D01*
X72405596Y-73586053D01*
X72412622Y-73561956D01*
X72407887Y-73538015D01*
X72400541Y-73487612D01*
X72393173Y-73425855D01*
X72381593Y-73317830D01*
X72331200Y-73343890D01*
X72324414Y-73347538D01*
X72290827Y-73376693D01*
X72282847Y-73417215D01*
X72188989Y-73417215D01*
X72185922Y-73407188D01*
X72174664Y-73405532D01*
X72143316Y-73412017D01*
X72129120Y-73420162D01*
X72114749Y-73446530D01*
X72110101Y-73485761D01*
X72109180Y-73493535D01*
X72011754Y-73493535D01*
X72010017Y-73485919D01*
X71997223Y-73469157D01*
X71977916Y-73469733D01*
X71949470Y-73482706D01*
X71941498Y-73487020D01*
X71908927Y-73515831D01*
X71901632Y-73556013D01*
X71815597Y-73556013D01*
X71814814Y-73550003D01*
X71812364Y-73526568D01*
X71803660Y-73514627D01*
X71775313Y-73516991D01*
X71736115Y-73534760D01*
X71695253Y-73564923D01*
X71678000Y-73582037D01*
X71668790Y-73591173D01*
X71659196Y-73612377D01*
X71557005Y-73612377D01*
X71539885Y-73495884D01*
X71513862Y-73317675D01*
X71500033Y-73222428D01*
X71608862Y-73222428D01*
X71610073Y-73273358D01*
X71622559Y-73347637D01*
X71625072Y-73360243D01*
X71637968Y-73412936D01*
X71653392Y-73437525D01*
X71678000Y-73439269D01*
X71718446Y-73423429D01*
X71781119Y-73395083D01*
X71773659Y-73328873D01*
X71769390Y-73290984D01*
X71768505Y-73283155D01*
X71757304Y-73192687D01*
X71748470Y-73144897D01*
X71833479Y-73144897D01*
X71839708Y-73198165D01*
X71853519Y-73278721D01*
X71864615Y-73331425D01*
X71876652Y-73372072D01*
X71886178Y-73387468D01*
X71906322Y-73384297D01*
X71944829Y-73375595D01*
X71958999Y-73371795D01*
X71976565Y-73362590D01*
X71984350Y-73343653D01*
X71984503Y-73306715D01*
X71979175Y-73243507D01*
X71970676Y-73168179D01*
X71958623Y-73110595D01*
X71944149Y-73083987D01*
X72041384Y-73083987D01*
X72046091Y-73135191D01*
X72058947Y-73212910D01*
X72063747Y-73239133D01*
X72076430Y-73293121D01*
X72090549Y-73318619D01*
X72110101Y-73320070D01*
X72139088Y-73301917D01*
X72156962Y-73287274D01*
X72168619Y-73269888D01*
X72172175Y-73243485D01*
X72169009Y-73204660D01*
X72168599Y-73199632D01*
X72158859Y-73129902D01*
X72140558Y-73004742D01*
X72232560Y-73004742D01*
X72233868Y-73052196D01*
X72240555Y-73126162D01*
X72245215Y-73168744D01*
X72253527Y-73220905D01*
X72264504Y-73247164D01*
X72281294Y-73253116D01*
X72307044Y-73244356D01*
X72319932Y-73237061D01*
X72340581Y-73212099D01*
X72350134Y-73170721D01*
X72349396Y-73107200D01*
X72339172Y-73015810D01*
X72333770Y-72986916D01*
X72314259Y-72943981D01*
X72285766Y-72933435D01*
X72249577Y-72956134D01*
X72247742Y-72958044D01*
X72237046Y-72975968D01*
X72232560Y-73004742D01*
X72140558Y-73004742D01*
X72138176Y-72988455D01*
X72088043Y-73014379D01*
X72087096Y-73014871D01*
X72060794Y-73031286D01*
X72045921Y-73051839D01*
X72041384Y-73083987D01*
X71944149Y-73083987D01*
X71941541Y-73079193D01*
X71932049Y-73075450D01*
X71916772Y-73069426D01*
X71881656Y-73076750D01*
X71869715Y-73081107D01*
X71847539Y-73093139D01*
X71836467Y-73111025D01*
X71835774Y-73112145D01*
X71833479Y-73144897D01*
X71748470Y-73144897D01*
X71746331Y-73133325D01*
X71733094Y-73101831D01*
X71715101Y-73094967D01*
X71689861Y-73109495D01*
X71654882Y-73142177D01*
X71646535Y-73150746D01*
X71620493Y-73184879D01*
X71609752Y-73219555D01*
X71608862Y-73222428D01*
X71500033Y-73222428D01*
X71486611Y-73129989D01*
X71472708Y-73033703D01*
X71458802Y-72937396D01*
X71431856Y-72749688D01*
X71536781Y-72749688D01*
X71540026Y-72760752D01*
X71546041Y-72791436D01*
X71555547Y-72846445D01*
X71569442Y-72930765D01*
X71579833Y-72990436D01*
X71591949Y-73030499D01*
X71609752Y-73042070D01*
X71639157Y-73028263D01*
X71686079Y-72992195D01*
X71686508Y-72991851D01*
X71704744Y-72975716D01*
X71714510Y-72958167D01*
X71716403Y-72931018D01*
X71711018Y-72886081D01*
X71698949Y-72815170D01*
X71694227Y-72788888D01*
X71693508Y-72785202D01*
X71779677Y-72785202D01*
X71783022Y-72831772D01*
X71789028Y-72874591D01*
X71798873Y-72921348D01*
X71808859Y-72960350D01*
X71819654Y-72976752D01*
X71836467Y-72976961D01*
X71864509Y-72967381D01*
X71869180Y-72965738D01*
X71895798Y-72953672D01*
X71909881Y-72935458D01*
X71915367Y-72901583D01*
X71916197Y-72842531D01*
X71915451Y-72796029D01*
X71909928Y-72739359D01*
X71896388Y-72709586D01*
X71871741Y-72701842D01*
X71832899Y-72711258D01*
X71805726Y-72722501D01*
X71783551Y-72745108D01*
X71779677Y-72785202D01*
X71693508Y-72785202D01*
X71681969Y-72726053D01*
X71671686Y-72680594D01*
X71669358Y-72673516D01*
X71988003Y-72673516D01*
X71991063Y-72692632D01*
X71997636Y-72736891D01*
X72006155Y-72795874D01*
X72014701Y-72851385D01*
X72022653Y-72894892D01*
X72027796Y-72913634D01*
X72028885Y-72914532D01*
X72051332Y-72912780D01*
X72083423Y-72895286D01*
X72112189Y-72870820D01*
X72124659Y-72848149D01*
X72124173Y-72838156D01*
X72119121Y-72797393D01*
X72110334Y-72744343D01*
X72099995Y-72690662D01*
X72091822Y-72654738D01*
X72176219Y-72654738D01*
X72185332Y-72718443D01*
X72186298Y-72721640D01*
X72193509Y-72753899D01*
X72202105Y-72800890D01*
X72212993Y-72865987D01*
X72265583Y-72838792D01*
X72278155Y-72832515D01*
X72296300Y-72822498D01*
X72307027Y-72809840D01*
X72310946Y-72788185D01*
X72308667Y-72751176D01*
X72300800Y-72692456D01*
X72287957Y-72605670D01*
X72285426Y-72589844D01*
X72277094Y-72551579D01*
X72269996Y-72536271D01*
X72252421Y-72544243D01*
X72219472Y-72564291D01*
X72190177Y-72598400D01*
X72176219Y-72654738D01*
X72091822Y-72654738D01*
X72090291Y-72648006D01*
X72083404Y-72628031D01*
X72079153Y-72628399D01*
X72066093Y-72629529D01*
X72031478Y-72642505D01*
X72000303Y-72659895D01*
X71997789Y-72662679D01*
X71988003Y-72673516D01*
X71669358Y-72673516D01*
X71665221Y-72660941D01*
X71660324Y-72660598D01*
X71634389Y-72673124D01*
X71595965Y-72699557D01*
X71578394Y-72713172D01*
X71547922Y-72738194D01*
X71545220Y-72740982D01*
X71536781Y-72749688D01*
X71431856Y-72749688D01*
X71431107Y-72744468D01*
X71411305Y-72606399D01*
X71386347Y-72433255D01*
X71379331Y-72384877D01*
X71485731Y-72384877D01*
X71492216Y-72442959D01*
X71507894Y-72527596D01*
X71511749Y-72546363D01*
X71526495Y-72599531D01*
X71545220Y-72622787D01*
X71574029Y-72619791D01*
X71619026Y-72594201D01*
X71633148Y-72584086D01*
X71651710Y-72556480D01*
X71649138Y-72513890D01*
X71645118Y-72491775D01*
X71635953Y-72432238D01*
X71627495Y-72367539D01*
X71625680Y-72354679D01*
X71713084Y-72354679D01*
X71715383Y-72398487D01*
X71728032Y-72466872D01*
X71740381Y-72527938D01*
X71751541Y-72579031D01*
X71761338Y-72605857D01*
X71773659Y-72613675D01*
X71792385Y-72607745D01*
X71821401Y-72593328D01*
X71821562Y-72593251D01*
X71864756Y-72564843D01*
X71874279Y-72537333D01*
X71868987Y-72509063D01*
X71865760Y-72485323D01*
X71861874Y-72456734D01*
X71854752Y-72392895D01*
X71854722Y-72392587D01*
X71847120Y-72332580D01*
X71846244Y-72328020D01*
X71935931Y-72328020D01*
X71938706Y-72383576D01*
X71952567Y-72464931D01*
X71953186Y-72468073D01*
X71965353Y-72521935D01*
X71978221Y-72546697D01*
X71997789Y-72547293D01*
X72030054Y-72528656D01*
X72046956Y-72516955D01*
X72062449Y-72500037D01*
X72069119Y-72475100D01*
X72068765Y-72433307D01*
X72063185Y-72365821D01*
X72061870Y-72351702D01*
X72055455Y-72290181D01*
X72049686Y-72245538D01*
X72045677Y-72226623D01*
X72044410Y-72226090D01*
X72023436Y-72232851D01*
X71987063Y-72252051D01*
X71968479Y-72264451D01*
X71945453Y-72290800D01*
X71935931Y-72328020D01*
X71846244Y-72328020D01*
X71838520Y-72287831D01*
X71830778Y-72268008D01*
X71828150Y-72267238D01*
X71802295Y-72274007D01*
X71763426Y-72294019D01*
X71746966Y-72304526D01*
X71731988Y-72318181D01*
X71722993Y-72326381D01*
X71713084Y-72354679D01*
X71625680Y-72354679D01*
X71622358Y-72331134D01*
X71613284Y-72287707D01*
X71604833Y-72267762D01*
X71602258Y-72267030D01*
X71576640Y-72273952D01*
X71537880Y-72294019D01*
X71530601Y-72298556D01*
X71504007Y-72319818D01*
X71489356Y-72346211D01*
X71485731Y-72384877D01*
X71379331Y-72384877D01*
X71363056Y-72272649D01*
X71341892Y-72127699D01*
X71323313Y-72001522D01*
X71307779Y-71897232D01*
X71295750Y-71817947D01*
X71288501Y-71771964D01*
X71398432Y-71771964D01*
X71401501Y-71805063D01*
X71408816Y-71863225D01*
X71418958Y-71934809D01*
X71430674Y-72011850D01*
X71442708Y-72086379D01*
X71453808Y-72150430D01*
X71462719Y-72196035D01*
X71468188Y-72215228D01*
X71472708Y-72215543D01*
X71497521Y-72202449D01*
X71534329Y-72174742D01*
X71592442Y-72126228D01*
X71561186Y-71884494D01*
X71552750Y-71819447D01*
X71539761Y-71723884D01*
X71528853Y-71657689D01*
X71518472Y-71617586D01*
X71507066Y-71600302D01*
X71493079Y-71602565D01*
X71474959Y-71621099D01*
X71451153Y-71652633D01*
X71434884Y-71676666D01*
X71407654Y-71730243D01*
X71398432Y-71771964D01*
X71288501Y-71771964D01*
X71287684Y-71766784D01*
X71284042Y-71746858D01*
X71278492Y-71725301D01*
X71279926Y-71699569D01*
X71290958Y-71667559D01*
X71313689Y-71625871D01*
X71350219Y-71571107D01*
X71375991Y-71536088D01*
X71608442Y-71536088D01*
X71612023Y-71598937D01*
X71621290Y-71682338D01*
X71636248Y-71790849D01*
X71656901Y-71929031D01*
X71656959Y-71929416D01*
X71672395Y-72031148D01*
X71685955Y-72120973D01*
X71696801Y-72193291D01*
X71704093Y-72242504D01*
X71706990Y-72263013D01*
X71713249Y-72273478D01*
X71731988Y-72273882D01*
X71742965Y-72257918D01*
X71743193Y-72255784D01*
X71756753Y-72229645D01*
X71764294Y-72220249D01*
X72126870Y-72220249D01*
X72130122Y-72251253D01*
X72137264Y-72304107D01*
X72146349Y-72363898D01*
X72155723Y-72420295D01*
X72163731Y-72462969D01*
X72168720Y-72481589D01*
X72169009Y-72481824D01*
X72186343Y-72476053D01*
X72218351Y-72455565D01*
X72230245Y-72445200D01*
X72257973Y-72392329D01*
X72263057Y-72316254D01*
X72245195Y-72219639D01*
X72240657Y-72204186D01*
X72222801Y-72165944D01*
X72197970Y-72156829D01*
X72158218Y-72172537D01*
X72138796Y-72188966D01*
X72136627Y-72194655D01*
X72126870Y-72220249D01*
X71764294Y-72220249D01*
X71784825Y-72194667D01*
X71789621Y-72189319D01*
X71813761Y-72154699D01*
X71820084Y-72130363D01*
X71819249Y-72126857D01*
X71814129Y-72094923D01*
X71805840Y-72035584D01*
X71797890Y-71975371D01*
X71883957Y-71975371D01*
X71893320Y-72050479D01*
X71902863Y-72105862D01*
X71915609Y-72152192D01*
X71932049Y-72169890D01*
X71956236Y-72162330D01*
X71992220Y-72132890D01*
X72003260Y-72122625D01*
X72020572Y-72101592D01*
X72027719Y-72076227D01*
X72027383Y-72066798D01*
X72026305Y-72036547D01*
X72017928Y-71972567D01*
X72017284Y-71968069D01*
X72008017Y-71908200D01*
X72000831Y-71868894D01*
X72091910Y-71868894D01*
X72094244Y-71930425D01*
X72102598Y-72020117D01*
X72105819Y-72046165D01*
X72115960Y-72077688D01*
X72136627Y-72079926D01*
X72175147Y-72056560D01*
X72181252Y-72052185D01*
X72199972Y-72034463D01*
X72209017Y-72010680D01*
X72210334Y-71971362D01*
X72205869Y-71907032D01*
X72205587Y-71903701D01*
X72199576Y-71843305D01*
X72193498Y-71798589D01*
X72188627Y-71779018D01*
X72171121Y-71778929D01*
X72135740Y-71789318D01*
X72129866Y-71791704D01*
X72108837Y-71805689D01*
X72096479Y-71829367D01*
X72091910Y-71868894D01*
X72000831Y-71868894D01*
X71999985Y-71864268D01*
X71994865Y-71845502D01*
X71993790Y-71845010D01*
X71972593Y-71850487D01*
X71935424Y-71867473D01*
X71929309Y-71870752D01*
X71900108Y-71893517D01*
X71885605Y-71925720D01*
X71883957Y-71975371D01*
X71797890Y-71975371D01*
X71795096Y-71954211D01*
X71782611Y-71856178D01*
X71769100Y-71746858D01*
X71764928Y-71712820D01*
X71751470Y-71605781D01*
X71739089Y-71511287D01*
X71728533Y-71434816D01*
X71720552Y-71381847D01*
X71715896Y-71357858D01*
X71709972Y-71350146D01*
X71690433Y-71357428D01*
X71656327Y-71392557D01*
X71650875Y-71399039D01*
X71631763Y-71425267D01*
X71618316Y-71453811D01*
X71610541Y-71489232D01*
X71608442Y-71536088D01*
X71375991Y-71536088D01*
X71402646Y-71499868D01*
X71473072Y-71408755D01*
X71560199Y-71298662D01*
X71800461Y-71298662D01*
X71805459Y-71370774D01*
X71816477Y-71464448D01*
X71833590Y-71583875D01*
X71856875Y-71733244D01*
X71865760Y-71789029D01*
X71927030Y-71759812D01*
X71966565Y-71737485D01*
X71981289Y-71714292D01*
X71978830Y-71678002D01*
X71973499Y-71644011D01*
X71964792Y-71582398D01*
X71954238Y-71503780D01*
X71953143Y-71495287D01*
X72040496Y-71495287D01*
X72044052Y-71529654D01*
X72051995Y-71581588D01*
X72061891Y-71634878D01*
X72071500Y-71677616D01*
X72078584Y-71697892D01*
X72079153Y-71698329D01*
X72099269Y-71694382D01*
X72133588Y-71675698D01*
X72159156Y-71656089D01*
X72173184Y-71628074D01*
X72169984Y-71583225D01*
X72169404Y-71579671D01*
X72162417Y-71527502D01*
X72159284Y-71486613D01*
X72156889Y-71465406D01*
X72143662Y-71427969D01*
X72135876Y-71418432D01*
X72116978Y-71416322D01*
X72083749Y-71436644D01*
X72083003Y-71437191D01*
X72052348Y-71467648D01*
X72040496Y-71495287D01*
X71953143Y-71495287D01*
X71943079Y-71417214D01*
X71932938Y-71338065D01*
X71921943Y-71254700D01*
X71912583Y-71186224D01*
X71906168Y-71142412D01*
X71895541Y-71075808D01*
X71845983Y-71133738D01*
X71839137Y-71142045D01*
X71820820Y-71169805D01*
X71808217Y-71202367D01*
X71801405Y-71243923D01*
X71800461Y-71298662D01*
X71560199Y-71298662D01*
X71563595Y-71294371D01*
X71677876Y-71151668D01*
X71772921Y-71034428D01*
X71988142Y-71034428D01*
X71990694Y-71082192D01*
X71996450Y-71150402D01*
X72004049Y-71220531D01*
X72012378Y-71283450D01*
X72020324Y-71330027D01*
X72026772Y-71351134D01*
X72027383Y-71351605D01*
X72047485Y-71347427D01*
X72081229Y-71327833D01*
X72102266Y-71311725D01*
X72115655Y-71293433D01*
X72121483Y-71265687D01*
X72121430Y-71220101D01*
X72117175Y-71148293D01*
X72116037Y-71131694D01*
X72109751Y-71053865D01*
X72102723Y-70983757D01*
X72096274Y-70934832D01*
X72085119Y-70868843D01*
X72035490Y-70916391D01*
X72016046Y-70936752D01*
X71992712Y-70978796D01*
X71988142Y-71034428D01*
X71772921Y-71034428D01*
X71786573Y-71017588D01*
X71883604Y-70899643D01*
X71967370Y-70799718D01*
X72036274Y-70719693D01*
X72088719Y-70661452D01*
X72123106Y-70626876D01*
X72137839Y-70617848D01*
X72141455Y-70629663D01*
G37*
G36*
X73245885Y-66784805D02*
G01*
X73286078Y-66819357D01*
X73319978Y-66881841D01*
X73348213Y-66973895D01*
X73371410Y-67097161D01*
X73390198Y-67253279D01*
X73395977Y-67311823D01*
X73404923Y-67399172D01*
X73413098Y-67475467D01*
X73419263Y-67528963D01*
X73429812Y-67613800D01*
X74101407Y-67601179D01*
X74193686Y-67599475D01*
X74350118Y-67596822D01*
X74477189Y-67595143D01*
X74578426Y-67594511D01*
X74657358Y-67595002D01*
X74717513Y-67596691D01*
X74762418Y-67599653D01*
X74795600Y-67603964D01*
X74820588Y-67609698D01*
X74840910Y-67616931D01*
X74891079Y-67641617D01*
X74962759Y-67699439D01*
X75003662Y-67771985D01*
X75004265Y-67774436D01*
X75008749Y-67805486D01*
X75015659Y-67865311D01*
X75024549Y-67949134D01*
X75034976Y-68052181D01*
X75046497Y-68169676D01*
X75058667Y-68296844D01*
X75071042Y-68428908D01*
X75083178Y-68561094D01*
X75094631Y-68688626D01*
X75104958Y-68806728D01*
X75113715Y-68910626D01*
X75120457Y-68995543D01*
X75124741Y-69056705D01*
X75126123Y-69089335D01*
X75126238Y-69089462D01*
X75144553Y-69090051D01*
X75188058Y-69089021D01*
X75248015Y-69086572D01*
X75369946Y-69080793D01*
X75454369Y-68956449D01*
X75515143Y-68871599D01*
X75577426Y-68798318D01*
X75634281Y-68748962D01*
X75690028Y-68719184D01*
X75713285Y-68712851D01*
X75756229Y-68705942D01*
X75817889Y-68699427D01*
X75899863Y-68693241D01*
X76003750Y-68687321D01*
X76131148Y-68681604D01*
X76283654Y-68676025D01*
X76462868Y-68670521D01*
X76670387Y-68665029D01*
X76907810Y-68659485D01*
X77176735Y-68653825D01*
X77478761Y-68647986D01*
X77554416Y-68646571D01*
X77784387Y-68642285D01*
X77982977Y-68638791D01*
X78152735Y-68636280D01*
X78296207Y-68634947D01*
X78415942Y-68634983D01*
X78514488Y-68636581D01*
X78594394Y-68639933D01*
X78658207Y-68645233D01*
X78708475Y-68652673D01*
X78747746Y-68662446D01*
X78778569Y-68674744D01*
X78803491Y-68689759D01*
X78825061Y-68707686D01*
X78845826Y-68728715D01*
X78868336Y-68753041D01*
X78878399Y-68764101D01*
X78923858Y-68817399D01*
X78982781Y-68890069D01*
X79051665Y-68977455D01*
X79127009Y-69074899D01*
X79205311Y-69177747D01*
X79283068Y-69281341D01*
X79356778Y-69381025D01*
X79422940Y-69472144D01*
X79478051Y-69550040D01*
X79518609Y-69610058D01*
X79541112Y-69647542D01*
X79562381Y-69696434D01*
X79577120Y-69750099D01*
X79586275Y-69816973D01*
X79591942Y-69907787D01*
X79592242Y-69916196D01*
X79593304Y-69965074D01*
X79594506Y-70045742D01*
X79595831Y-70155985D01*
X79597262Y-70293586D01*
X79598781Y-70456329D01*
X79600369Y-70641998D01*
X79602009Y-70848377D01*
X79603684Y-71073251D01*
X79605375Y-71314403D01*
X79607064Y-71569617D01*
X79608734Y-71836678D01*
X79610367Y-72113368D01*
X79611945Y-72397473D01*
X79613166Y-72630922D01*
X79614775Y-72967220D01*
X79616021Y-73270757D01*
X79616900Y-73542712D01*
X79617409Y-73784265D01*
X79617545Y-73996595D01*
X79617304Y-74180882D01*
X79616683Y-74338306D01*
X79615677Y-74470046D01*
X79614284Y-74577282D01*
X79612499Y-74661193D01*
X79610320Y-74722960D01*
X79607742Y-74763762D01*
X79604763Y-74784778D01*
X79574826Y-74862991D01*
X79516970Y-74946903D01*
X79441964Y-75004432D01*
X79431418Y-75009033D01*
X79406453Y-75016450D01*
X79370890Y-75023616D01*
X79323125Y-75030618D01*
X79261552Y-75037544D01*
X79184564Y-75044485D01*
X79090556Y-75051528D01*
X78977923Y-75058763D01*
X78845059Y-75066278D01*
X78690358Y-75074162D01*
X78512214Y-75082504D01*
X78309022Y-75091392D01*
X78079175Y-75100916D01*
X77821069Y-75111164D01*
X77533097Y-75122225D01*
X77213654Y-75134188D01*
X76861135Y-75147141D01*
X76699389Y-75153191D01*
X76521821Y-75160132D01*
X76345024Y-75167322D01*
X76175779Y-75174472D01*
X76020869Y-75181297D01*
X75887074Y-75187510D01*
X75781177Y-75192823D01*
X75610898Y-75201876D01*
X75403883Y-75212881D01*
X75322089Y-75170788D01*
X75271661Y-75139950D01*
X75228590Y-75098539D01*
X75196339Y-75044078D01*
X75172594Y-74971163D01*
X75155046Y-74874392D01*
X75141382Y-74748361D01*
X75133392Y-74661257D01*
X75123850Y-74573275D01*
X75115097Y-74517097D01*
X75106502Y-74491095D01*
X75097434Y-74493639D01*
X75087263Y-74523099D01*
X75075356Y-74577845D01*
X75073826Y-74585467D01*
X75065090Y-74624080D01*
X75051745Y-74677132D01*
X75033199Y-74746714D01*
X75008858Y-74834915D01*
X74978130Y-74943823D01*
X74940421Y-75075529D01*
X74895138Y-75232121D01*
X74841688Y-75415689D01*
X74779478Y-75628322D01*
X74707915Y-75872109D01*
X74690812Y-75922084D01*
X74657285Y-75994905D01*
X74621828Y-76048297D01*
X74606141Y-76065294D01*
X74594359Y-76075773D01*
X74581001Y-76087653D01*
X74551548Y-76105908D01*
X74514406Y-76120466D01*
X74466199Y-76131738D01*
X74403550Y-76140133D01*
X74323085Y-76146058D01*
X74221426Y-76149924D01*
X74095199Y-76152139D01*
X74040949Y-76152481D01*
X73941027Y-76153112D01*
X73755533Y-76153253D01*
X73122268Y-76152817D01*
X73120692Y-76248676D01*
X73120623Y-76252503D01*
X73118457Y-76291411D01*
X73111724Y-76326656D01*
X73097508Y-76364759D01*
X73072893Y-76412238D01*
X73034961Y-76475614D01*
X72980795Y-76561408D01*
X72898042Y-76692451D01*
X72796301Y-76856073D01*
X72685565Y-77036319D01*
X72570106Y-77226197D01*
X72454196Y-77418714D01*
X72342108Y-77606877D01*
X72303967Y-77670096D01*
X72252487Y-77751798D01*
X72206485Y-77820804D01*
X72169870Y-77871304D01*
X72146555Y-77897485D01*
X72145883Y-77898011D01*
X72122523Y-77912916D01*
X72093191Y-77922775D01*
X72050711Y-77928584D01*
X72018757Y-77929986D01*
X71987903Y-77931339D01*
X71897589Y-77932036D01*
X71833510Y-77931541D01*
X71750023Y-77927795D01*
X71743398Y-77927498D01*
X71678243Y-77917893D01*
X71631887Y-77900953D01*
X71598171Y-77874903D01*
X71570935Y-77837971D01*
X71565250Y-77828231D01*
X71552550Y-77802499D01*
X71540740Y-77770608D01*
X71528968Y-77728534D01*
X71516380Y-77672254D01*
X71502122Y-77597744D01*
X71485339Y-77500980D01*
X71465179Y-77377939D01*
X71440788Y-77224597D01*
X71435607Y-77191811D01*
X71419285Y-77088964D01*
X71398525Y-76958604D01*
X71374094Y-76805531D01*
X71346760Y-76634543D01*
X71317289Y-76450439D01*
X71286451Y-76258018D01*
X71255011Y-76062078D01*
X71223737Y-75867419D01*
X71200064Y-75720160D01*
X71157621Y-75456135D01*
X71120117Y-75222782D01*
X71087170Y-75017726D01*
X71058403Y-74838591D01*
X71033437Y-74683001D01*
X71011892Y-74548583D01*
X70993389Y-74432959D01*
X70977550Y-74333755D01*
X70963995Y-74248595D01*
X70952345Y-74175103D01*
X70942222Y-74110906D01*
X70933246Y-74053625D01*
X70925038Y-74000888D01*
X70917220Y-73950317D01*
X70909412Y-73899538D01*
X70901235Y-73846175D01*
X70896420Y-73814833D01*
X70878437Y-73699025D01*
X70856973Y-73562233D01*
X70833611Y-73414478D01*
X70809933Y-73265781D01*
X70787523Y-73126162D01*
X70780213Y-73080770D01*
X70757353Y-72938007D01*
X70733854Y-72790210D01*
X70711267Y-72647200D01*
X70691148Y-72518797D01*
X70675047Y-72414823D01*
X70670812Y-72387267D01*
X70650900Y-72258762D01*
X70629096Y-72119396D01*
X70607763Y-71984225D01*
X70589265Y-71868307D01*
X70586239Y-71849197D01*
X70565713Y-71697178D01*
X70556902Y-71597654D01*
X70754031Y-71597654D01*
X70755996Y-71689606D01*
X70756079Y-71692868D01*
X70760583Y-71758203D01*
X70769849Y-71839645D01*
X70781981Y-71920356D01*
X70782328Y-71922363D01*
X70793706Y-71990106D01*
X70809912Y-72089279D01*
X70830512Y-72217128D01*
X70855069Y-72370897D01*
X70883150Y-72547830D01*
X70914318Y-72745173D01*
X70948139Y-72960171D01*
X70984177Y-73190067D01*
X71021997Y-73432107D01*
X71061164Y-73683536D01*
X71101243Y-73941599D01*
X71109556Y-73995149D01*
X71137978Y-74177525D01*
X71167244Y-74364320D01*
X71196335Y-74549080D01*
X71224229Y-74725353D01*
X71249906Y-74886687D01*
X71272347Y-75026630D01*
X71290531Y-75138730D01*
X71296477Y-75175097D01*
X71320430Y-75322170D01*
X71345748Y-75478386D01*
X71370680Y-75632900D01*
X71393475Y-75774868D01*
X71412381Y-75893443D01*
X71429573Y-76001276D01*
X71453036Y-76147328D01*
X71478310Y-76303707D01*
X71503319Y-76457579D01*
X71525990Y-76596107D01*
X71544448Y-76709800D01*
X71569427Y-76866940D01*
X71595021Y-77030948D01*
X71619096Y-77188132D01*
X71639517Y-77324796D01*
X71653284Y-77419473D01*
X71669558Y-77531881D01*
X71682542Y-77616583D01*
X71693719Y-77677445D01*
X71704572Y-77718336D01*
X71716585Y-77743120D01*
X71731241Y-77755666D01*
X71750023Y-77759840D01*
X71774416Y-77759509D01*
X71805901Y-77758539D01*
X71855893Y-77757831D01*
X71886367Y-77753333D01*
X71896336Y-77741678D01*
X71893332Y-77719502D01*
X71892460Y-77715371D01*
X71886358Y-77680587D01*
X71875835Y-77616579D01*
X71861513Y-77527260D01*
X71844009Y-77416543D01*
X71823945Y-77288344D01*
X71801940Y-77146575D01*
X71778615Y-76995151D01*
X71777886Y-76990404D01*
X71738839Y-76736602D01*
X71695647Y-76456925D01*
X71649588Y-76159602D01*
X71601944Y-75852861D01*
X71553994Y-75544933D01*
X71507018Y-75244046D01*
X71462295Y-74958429D01*
X71421106Y-74696312D01*
X71419871Y-74688465D01*
X71403004Y-74580579D01*
X71382745Y-74449961D01*
X71360737Y-74307274D01*
X71338626Y-74163181D01*
X71318057Y-74028348D01*
X71315961Y-74014559D01*
X71296999Y-73889984D01*
X71274279Y-73740935D01*
X71249129Y-73576117D01*
X71222877Y-73404237D01*
X71196854Y-73234000D01*
X71172388Y-73074113D01*
X71156835Y-72972444D01*
X71104130Y-72626395D01*
X71055482Y-72304549D01*
X71011395Y-72010254D01*
X70972374Y-71746858D01*
X70951951Y-71608061D01*
X70902821Y-71605477D01*
X70902631Y-71605467D01*
X71068741Y-71605467D01*
X71071964Y-71628893D01*
X71078940Y-71677129D01*
X71087954Y-71738184D01*
X71090545Y-71755661D01*
X71099782Y-71818507D01*
X71112590Y-71906105D01*
X71127986Y-72011714D01*
X71144987Y-72128593D01*
X71162610Y-72250001D01*
X71163463Y-72255887D01*
X71187976Y-72423392D01*
X71216120Y-72613254D01*
X71247030Y-72819804D01*
X71279839Y-73037373D01*
X71313681Y-73260292D01*
X71347690Y-73482892D01*
X71381001Y-73699504D01*
X71412746Y-73904459D01*
X71442061Y-74092088D01*
X71468079Y-74256722D01*
X71489935Y-74392692D01*
X71490322Y-74395072D01*
X71505435Y-74488976D01*
X71524971Y-74611848D01*
X71548120Y-74758519D01*
X71574070Y-74923819D01*
X71602014Y-75102577D01*
X71631140Y-75289622D01*
X71660638Y-75479786D01*
X71689699Y-75667897D01*
X71693755Y-75694209D01*
X71722059Y-75877659D01*
X71750026Y-76058688D01*
X71776951Y-76232740D01*
X71802128Y-76395264D01*
X71824851Y-76541706D01*
X71844415Y-76667512D01*
X71860112Y-76768129D01*
X71871238Y-76839003D01*
X71882788Y-76912777D01*
X71903551Y-77048310D01*
X71923994Y-77185090D01*
X71943269Y-77317194D01*
X71960529Y-77438705D01*
X71974925Y-77543700D01*
X71985611Y-77626260D01*
X71991737Y-77680465D01*
X71999982Y-77725169D01*
X72018757Y-77750881D01*
X72046857Y-77743300D01*
X72084175Y-77702464D01*
X72130602Y-77628416D01*
X72141574Y-77608995D01*
X72196796Y-77513129D01*
X72265958Y-77395319D01*
X72345456Y-77261555D01*
X72431682Y-77117828D01*
X72521031Y-76970130D01*
X72609897Y-76824452D01*
X72694674Y-76686786D01*
X72771756Y-76563123D01*
X72961413Y-76261219D01*
X72949837Y-76138055D01*
X72947203Y-76111708D01*
X72940130Y-76045390D01*
X72929965Y-75952994D01*
X72917280Y-75839638D01*
X72902652Y-75710442D01*
X72886653Y-75570523D01*
X72869857Y-75425001D01*
X72859847Y-75338581D01*
X72842907Y-75191949D01*
X72826795Y-75052012D01*
X72812148Y-74924322D01*
X72799601Y-74814435D01*
X72789792Y-74727905D01*
X72783358Y-74670287D01*
X72776289Y-74606628D01*
X72764649Y-74503491D01*
X72751956Y-74392445D01*
X72739928Y-74288593D01*
X72734085Y-74238393D01*
X72722751Y-74140478D01*
X72708985Y-74021112D01*
X72693681Y-73888060D01*
X72677734Y-73749085D01*
X72662036Y-73611954D01*
X72656398Y-73562723D01*
X72637548Y-73399077D01*
X72616837Y-73220465D01*
X72595705Y-73039247D01*
X72575594Y-72867786D01*
X72557943Y-72718443D01*
X72546813Y-72624391D01*
X72528994Y-72472581D01*
X72509521Y-72305480D01*
X72488799Y-72126642D01*
X72467232Y-71939623D01*
X72445224Y-71747976D01*
X72423179Y-71555255D01*
X72401501Y-71365014D01*
X72380593Y-71180808D01*
X72360861Y-71006190D01*
X72342707Y-70844715D01*
X72326535Y-70699938D01*
X72312750Y-70575411D01*
X72301756Y-70474690D01*
X72293956Y-70401328D01*
X72289755Y-70358880D01*
X72283634Y-70294319D01*
X72275961Y-70222887D01*
X72269245Y-70169405D01*
X72266325Y-70149739D01*
X72259427Y-70118999D01*
X72253783Y-70117416D01*
X72249500Y-70116215D01*
X72231069Y-70136693D01*
X72219558Y-70150952D01*
X72182269Y-70196796D01*
X72127777Y-70263546D01*
X72059268Y-70347320D01*
X71979925Y-70444235D01*
X71892932Y-70550408D01*
X71801476Y-70661957D01*
X71708740Y-70775000D01*
X71617909Y-70885654D01*
X71532167Y-70990036D01*
X71454699Y-71084264D01*
X71388689Y-71164456D01*
X71337323Y-71226729D01*
X71303784Y-71267200D01*
X71270194Y-71308090D01*
X71212648Y-71380474D01*
X71161428Y-71447559D01*
X71124668Y-71498827D01*
X71099201Y-71539095D01*
X71076532Y-71581319D01*
X71068741Y-71605467D01*
X70902631Y-71605467D01*
X70852991Y-71602857D01*
X70754031Y-71597654D01*
X70556902Y-71597654D01*
X70553692Y-71561398D01*
X70551081Y-71455516D01*
X70756797Y-71455516D01*
X70870040Y-71457445D01*
X70902821Y-71458256D01*
X70937762Y-71458122D01*
X70965749Y-71453197D01*
X70991588Y-71439793D01*
X71020089Y-71414221D01*
X71056058Y-71372793D01*
X71104305Y-71311820D01*
X71169636Y-71227615D01*
X71212265Y-71171035D01*
X71250388Y-71116420D01*
X71274627Y-71076741D01*
X71281022Y-71058025D01*
X71278969Y-71053595D01*
X71287967Y-71048102D01*
X71290984Y-71047339D01*
X71312830Y-71028390D01*
X71350413Y-70988003D01*
X71399910Y-70930964D01*
X71457497Y-70862061D01*
X71519353Y-70786078D01*
X71581655Y-70707802D01*
X71640579Y-70632020D01*
X71692302Y-70563516D01*
X71733004Y-70507078D01*
X71758859Y-70467492D01*
X71766047Y-70449542D01*
X71763037Y-70442641D01*
X71773434Y-70443014D01*
X71781575Y-70443216D01*
X71806499Y-70425571D01*
X71836879Y-70391997D01*
X71865356Y-70352211D01*
X71884571Y-70315927D01*
X71887166Y-70292862D01*
X71884245Y-70286456D01*
X71893801Y-70286199D01*
X71903505Y-70283316D01*
X71930979Y-70260231D01*
X71968781Y-70221023D01*
X72010849Y-70172744D01*
X72051122Y-70122445D01*
X72083536Y-70077176D01*
X72102032Y-70043988D01*
X72104248Y-70032967D01*
X72096245Y-70024410D01*
X72071011Y-70020598D01*
X72022755Y-70020800D01*
X71945684Y-70024287D01*
X71913155Y-70026254D01*
X71822187Y-70036189D01*
X71763115Y-70051524D01*
X71733994Y-70072962D01*
X71732876Y-70101206D01*
X71735230Y-70111557D01*
X71726462Y-70120113D01*
X71726235Y-70120068D01*
X71709793Y-70132526D01*
X71678422Y-70168180D01*
X71636141Y-70221414D01*
X71586973Y-70286612D01*
X71534937Y-70358158D01*
X71484055Y-70430435D01*
X71438347Y-70497829D01*
X71401833Y-70554722D01*
X71378536Y-70595499D01*
X71372475Y-70614543D01*
X71375789Y-70621829D01*
X71366537Y-70622381D01*
X71360588Y-70623945D01*
X71336884Y-70645616D01*
X71301051Y-70686581D01*
X71257801Y-70740545D01*
X71211847Y-70801209D01*
X71167901Y-70862275D01*
X71130677Y-70917447D01*
X71104886Y-70960426D01*
X71095242Y-70984915D01*
X71094049Y-70994140D01*
X71083170Y-71000508D01*
X71071169Y-71008660D01*
X71043209Y-71040177D01*
X71004113Y-71090116D01*
X70958297Y-71153081D01*
X70921982Y-71204994D01*
X70872288Y-71277200D01*
X70829860Y-71340136D01*
X70801147Y-71384316D01*
X70756797Y-71455516D01*
X70551081Y-71455516D01*
X70550953Y-71450340D01*
X70554509Y-71292619D01*
X70735925Y-70990572D01*
X70783077Y-70912573D01*
X70858222Y-70789531D01*
X70944725Y-70648956D01*
X71038449Y-70497498D01*
X71135256Y-70341807D01*
X71231009Y-70188534D01*
X71321571Y-70044327D01*
X71402805Y-69915838D01*
X71428999Y-69874821D01*
X72410718Y-69874821D01*
X72411009Y-69905458D01*
X72414767Y-69951162D01*
X72420871Y-70006262D01*
X72431006Y-70096868D01*
X72444012Y-70212546D01*
X72459322Y-70348297D01*
X72476370Y-70499122D01*
X72494592Y-70660025D01*
X72513422Y-70826006D01*
X72532293Y-70992068D01*
X72550641Y-71153212D01*
X72567900Y-71304440D01*
X72571172Y-71333090D01*
X72585997Y-71463134D01*
X72603904Y-71620531D01*
X72624251Y-71799623D01*
X72646397Y-71994754D01*
X72669698Y-72200269D01*
X72693515Y-72410509D01*
X72717205Y-72619819D01*
X72740126Y-72822542D01*
X72779326Y-73169106D01*
X72820906Y-73535873D01*
X72858916Y-73870152D01*
X72893478Y-74173011D01*
X72924715Y-74445522D01*
X72952751Y-74688754D01*
X72977708Y-74903778D01*
X72999710Y-75091664D01*
X73018879Y-75253482D01*
X73035339Y-75390301D01*
X73035736Y-75393566D01*
X73049542Y-75507904D01*
X73062690Y-75617981D01*
X73074289Y-75716253D01*
X73083448Y-75795175D01*
X73089276Y-75847200D01*
X73097226Y-75900233D01*
X73108654Y-75943963D01*
X73120338Y-75962934D01*
X73126945Y-75963733D01*
X73164065Y-75965692D01*
X73229396Y-75968018D01*
X73318603Y-75970590D01*
X73427352Y-75973288D01*
X73551307Y-75975992D01*
X73686135Y-75978583D01*
X73870702Y-75981204D01*
X74040949Y-75981855D01*
X74179360Y-75980131D01*
X74287393Y-75975974D01*
X74366505Y-75969326D01*
X74418155Y-75960129D01*
X74443800Y-75948324D01*
X74445250Y-75940279D01*
X74445108Y-75902141D01*
X74442018Y-75837412D01*
X74436288Y-75751060D01*
X74428223Y-75648054D01*
X74418133Y-75533362D01*
X74412564Y-75473166D01*
X74385616Y-75181461D01*
X74359306Y-74895950D01*
X74333849Y-74618994D01*
X74309458Y-74352957D01*
X74286348Y-74100201D01*
X74264735Y-73863092D01*
X74244833Y-73643990D01*
X74226857Y-73445260D01*
X74211021Y-73269265D01*
X74197541Y-73118367D01*
X74186630Y-72994930D01*
X74178505Y-72901317D01*
X74173378Y-72839891D01*
X74170757Y-72807520D01*
X74163411Y-72719217D01*
X74153789Y-72605692D01*
X74142429Y-72473199D01*
X74129867Y-72327992D01*
X74116642Y-72176326D01*
X74103290Y-72024454D01*
X74099868Y-71985678D01*
X74085151Y-71818303D01*
X74069763Y-71642489D01*
X74054453Y-71466835D01*
X74039969Y-71299943D01*
X74027060Y-71150413D01*
X74016473Y-71026845D01*
X74015122Y-71010983D01*
X74002886Y-70867325D01*
X73989690Y-70712400D01*
X73976510Y-70557668D01*
X73964322Y-70414589D01*
X73954103Y-70294624D01*
X73945129Y-70194092D01*
X73935606Y-70096709D01*
X73926711Y-70014524D01*
X73919146Y-69954001D01*
X73913612Y-69921605D01*
X73911514Y-69913913D01*
X73904380Y-69893727D01*
X73893464Y-69877209D01*
X73875676Y-69864057D01*
X73847924Y-69853972D01*
X73807117Y-69846654D01*
X73750164Y-69841802D01*
X73673974Y-69839115D01*
X73575456Y-69838294D01*
X73451517Y-69839039D01*
X73299068Y-69841048D01*
X73115017Y-69844022D01*
X72990338Y-69846284D01*
X72819771Y-69850096D01*
X72676950Y-69854246D01*
X72563266Y-69858678D01*
X72480109Y-69863334D01*
X72428870Y-69868156D01*
X72410939Y-69873088D01*
X72410718Y-69874821D01*
X71428999Y-69874821D01*
X71470574Y-69809717D01*
X71486733Y-69786339D01*
X74052929Y-69786339D01*
X74054059Y-69801797D01*
X74057892Y-69849544D01*
X74063795Y-69920807D01*
X74071216Y-70008943D01*
X74079603Y-70107309D01*
X74083715Y-70155439D01*
X74092053Y-70253578D01*
X74102564Y-70377747D01*
X74114812Y-70522803D01*
X74128365Y-70683601D01*
X74142789Y-70854999D01*
X74157650Y-71031852D01*
X74172514Y-71209017D01*
X74189260Y-71407846D01*
X74213532Y-71693056D01*
X74238585Y-71984260D01*
X74264211Y-72279204D01*
X74290204Y-72575635D01*
X74316356Y-72871297D01*
X74342458Y-73163939D01*
X74368305Y-73451306D01*
X74393688Y-73731143D01*
X74418400Y-74001199D01*
X74442233Y-74259218D01*
X74464981Y-74502947D01*
X74486435Y-74730133D01*
X74506387Y-74938521D01*
X74524632Y-75125859D01*
X74540961Y-75289891D01*
X74555166Y-75428365D01*
X74567040Y-75539026D01*
X74576377Y-75619621D01*
X74582967Y-75667897D01*
X74594359Y-75737296D01*
X74609936Y-75659222D01*
X74610446Y-75656759D01*
X74620306Y-75616604D01*
X74638415Y-75548839D01*
X74663347Y-75458582D01*
X74693675Y-75350950D01*
X74727970Y-75231061D01*
X74764805Y-75104031D01*
X74792093Y-75010554D01*
X74842277Y-74838559D01*
X74883899Y-74695714D01*
X74917756Y-74579209D01*
X74944645Y-74486235D01*
X74965363Y-74413981D01*
X74980708Y-74359640D01*
X74991475Y-74320400D01*
X74998463Y-74293452D01*
X75002467Y-74275987D01*
X75004285Y-74265196D01*
X75004714Y-74258268D01*
X75004063Y-74254616D01*
X74981100Y-74241148D01*
X74940124Y-74237684D01*
X74926640Y-74236544D01*
X74848566Y-74236544D01*
X74848566Y-74310551D01*
X74846332Y-74345210D01*
X74831121Y-74408362D01*
X74805263Y-74461644D01*
X74773181Y-74499029D01*
X74739299Y-74514491D01*
X74708041Y-74502003D01*
X74707179Y-74500812D01*
X74699881Y-74473773D01*
X74690670Y-74417020D01*
X74680033Y-74334839D01*
X74668453Y-74231512D01*
X74656415Y-74111324D01*
X74644403Y-73978559D01*
X74632901Y-73837501D01*
X74632159Y-73827914D01*
X74624637Y-73733222D01*
X74614536Y-73609313D01*
X74602260Y-73460941D01*
X74588216Y-73292860D01*
X74572807Y-73109821D01*
X74556438Y-72916579D01*
X74539514Y-72717887D01*
X74522439Y-72518498D01*
X74505619Y-72323165D01*
X74489458Y-72136641D01*
X74474361Y-71963680D01*
X74460732Y-71809035D01*
X74448977Y-71677460D01*
X74444652Y-71629495D01*
X74430673Y-71474306D01*
X74416637Y-71318274D01*
X74403180Y-71168479D01*
X74390938Y-71032002D01*
X74380546Y-70915924D01*
X74372640Y-70827323D01*
X74369080Y-70784364D01*
X74542495Y-70784364D01*
X74543211Y-70843176D01*
X74546197Y-70888047D01*
X74549300Y-70916526D01*
X74555229Y-70978940D01*
X74563568Y-71072343D01*
X74574354Y-71197185D01*
X74587626Y-71353917D01*
X74603420Y-71542989D01*
X74621776Y-71764852D01*
X74642731Y-72019957D01*
X74666323Y-72308755D01*
X74692589Y-72631695D01*
X74706429Y-72802160D01*
X74724010Y-73018619D01*
X74739148Y-73204763D01*
X74752054Y-73363107D01*
X74762944Y-73496166D01*
X74772030Y-73606454D01*
X74779526Y-73696486D01*
X74785645Y-73768778D01*
X74790602Y-73825843D01*
X74794610Y-73870197D01*
X74797882Y-73904354D01*
X74800632Y-73930829D01*
X74803073Y-73952137D01*
X74805419Y-73970792D01*
X74807884Y-73989311D01*
X74817807Y-74063047D01*
X74938454Y-74063047D01*
X74940124Y-74063047D01*
X75002743Y-74062038D01*
X75037555Y-74057855D01*
X75051285Y-74048677D01*
X75050658Y-74032685D01*
X75050500Y-74032086D01*
X75046339Y-74002286D01*
X75041296Y-73946019D01*
X75040107Y-73929224D01*
X75035994Y-73871127D01*
X75031053Y-73785451D01*
X75025245Y-73675019D01*
X75014997Y-73489106D01*
X75003565Y-73290826D01*
X74991140Y-73082944D01*
X74977915Y-72868226D01*
X74964082Y-72649435D01*
X74949832Y-72429338D01*
X74935359Y-72210698D01*
X74920853Y-71996282D01*
X74906506Y-71788853D01*
X74892512Y-71591177D01*
X74879062Y-71406019D01*
X74866347Y-71236143D01*
X74854560Y-71084315D01*
X74843894Y-70953299D01*
X74834539Y-70845861D01*
X74826688Y-70764765D01*
X74820533Y-70712776D01*
X74816265Y-70692659D01*
X74815044Y-70691724D01*
X74788110Y-70685698D01*
X74737614Y-70682702D01*
X74673388Y-70683374D01*
X74544946Y-70688525D01*
X74542822Y-70766599D01*
X74542495Y-70784364D01*
X74369080Y-70784364D01*
X74366425Y-70752332D01*
X74358838Y-70624725D01*
X74357995Y-70529456D01*
X74363868Y-70465393D01*
X74368496Y-70436525D01*
X74369244Y-70426815D01*
X75077289Y-70426815D01*
X75077345Y-70513246D01*
X75079353Y-70620728D01*
X75083366Y-70751199D01*
X75089433Y-70906599D01*
X75097605Y-71088865D01*
X75107934Y-71299938D01*
X75120469Y-71541756D01*
X75135261Y-71816257D01*
X75151533Y-72113520D01*
X75168104Y-72415392D01*
X75182980Y-72685316D01*
X75196241Y-72924720D01*
X75207969Y-73135032D01*
X75218245Y-73317680D01*
X75227151Y-73474092D01*
X75234768Y-73605697D01*
X75241178Y-73713923D01*
X75246461Y-73800198D01*
X75250700Y-73865950D01*
X75253975Y-73912608D01*
X75256368Y-73941599D01*
X75258016Y-73960549D01*
X75262418Y-74017250D01*
X75268421Y-74099135D01*
X75275597Y-74200220D01*
X75283516Y-74314525D01*
X75291751Y-74436066D01*
X75294073Y-74470369D01*
X75304716Y-74615008D01*
X75315240Y-74729758D01*
X75326583Y-74818581D01*
X75339687Y-74885437D01*
X75355490Y-74934289D01*
X75374933Y-74969097D01*
X75398956Y-74993823D01*
X75428499Y-75012429D01*
X75434104Y-75015175D01*
X75447245Y-75020274D01*
X75464171Y-75024552D01*
X75486940Y-75027966D01*
X75517612Y-75030474D01*
X75558244Y-75032031D01*
X75610898Y-75032593D01*
X75677630Y-75032119D01*
X75760500Y-75030564D01*
X75861568Y-75027885D01*
X75982891Y-75024038D01*
X76126529Y-75018980D01*
X76294541Y-75012668D01*
X76488985Y-75005059D01*
X76711921Y-74996108D01*
X76965408Y-74985773D01*
X77251503Y-74974010D01*
X77354547Y-74969769D01*
X77658526Y-74957294D01*
X77930275Y-74946125D01*
X78171646Y-74936081D01*
X78384489Y-74926981D01*
X78570655Y-74918645D01*
X78731995Y-74910893D01*
X78870361Y-74903543D01*
X78987602Y-74896417D01*
X79085569Y-74889333D01*
X79166114Y-74882111D01*
X79231088Y-74874571D01*
X79282341Y-74866532D01*
X79321724Y-74857814D01*
X79351088Y-74848236D01*
X79372284Y-74837619D01*
X79387163Y-74825781D01*
X79397575Y-74812543D01*
X79405372Y-74797723D01*
X79412405Y-74781142D01*
X79420523Y-74762620D01*
X79420620Y-74762415D01*
X79425023Y-74751808D01*
X79428971Y-74738422D01*
X79432481Y-74720484D01*
X79435568Y-74696219D01*
X79438249Y-74663856D01*
X79440540Y-74621621D01*
X79442456Y-74567740D01*
X79444013Y-74500440D01*
X79445227Y-74417947D01*
X79446115Y-74318489D01*
X79446692Y-74200291D01*
X79446973Y-74061581D01*
X79446976Y-73900586D01*
X79446715Y-73715531D01*
X79446207Y-73504644D01*
X79445467Y-73266152D01*
X79444512Y-72998280D01*
X79443358Y-72699256D01*
X79442020Y-72367306D01*
X79440923Y-72091940D01*
X79439725Y-71782621D01*
X79438620Y-71504877D01*
X79437524Y-71256983D01*
X79436353Y-71037215D01*
X79435023Y-70843849D01*
X79433451Y-70675160D01*
X79431552Y-70529423D01*
X79429244Y-70404914D01*
X79426441Y-70299908D01*
X79423061Y-70212682D01*
X79419020Y-70141510D01*
X79414233Y-70084668D01*
X79408618Y-70040431D01*
X79402090Y-70007076D01*
X79394566Y-69982877D01*
X79385961Y-69966111D01*
X79376193Y-69955052D01*
X79365177Y-69947976D01*
X79352830Y-69943159D01*
X79339068Y-69938876D01*
X79323806Y-69933402D01*
X79313125Y-69929796D01*
X79290145Y-69925385D01*
X79256738Y-69922479D01*
X79209878Y-69921134D01*
X79146536Y-69921405D01*
X79063687Y-69923348D01*
X78958303Y-69927018D01*
X78827355Y-69932471D01*
X78667818Y-69939762D01*
X78476663Y-69948947D01*
X78296325Y-69957795D01*
X78017518Y-69971706D01*
X77760469Y-69984889D01*
X77518915Y-69997705D01*
X77286593Y-70010519D01*
X77057241Y-70023691D01*
X76824596Y-70037585D01*
X76582395Y-70052564D01*
X76324375Y-70068990D01*
X76044275Y-70087225D01*
X75735830Y-70107632D01*
X75668823Y-70112136D01*
X75521739Y-70122620D01*
X75404131Y-70132465D01*
X75312286Y-70142524D01*
X75242494Y-70153650D01*
X75191044Y-70166698D01*
X75154224Y-70182520D01*
X75128325Y-70201971D01*
X75109634Y-70225904D01*
X75094441Y-70255172D01*
X75088334Y-70274437D01*
X75082835Y-70309349D01*
X75079136Y-70359496D01*
X75077289Y-70426815D01*
X74369244Y-70426815D01*
X74372121Y-70389453D01*
X74368603Y-70362951D01*
X74365449Y-70356042D01*
X74374730Y-70355547D01*
X74382441Y-70352329D01*
X74401122Y-70325304D01*
X74425148Y-70278684D01*
X74451165Y-70220546D01*
X74475820Y-70158969D01*
X74495758Y-70102032D01*
X74507626Y-70057812D01*
X74507776Y-70049864D01*
X75040107Y-70049864D01*
X75122906Y-70010238D01*
X75140320Y-70002556D01*
X75229899Y-69975737D01*
X75335093Y-69960255D01*
X75338789Y-69959969D01*
X75379812Y-69957138D01*
X75452027Y-69952442D01*
X75552496Y-69946058D01*
X75678278Y-69938167D01*
X75826435Y-69928948D01*
X75994027Y-69918579D01*
X76178114Y-69907239D01*
X76375758Y-69895109D01*
X76584018Y-69882367D01*
X76799955Y-69869192D01*
X77020630Y-69855763D01*
X77243104Y-69842260D01*
X77464436Y-69828861D01*
X77681688Y-69815746D01*
X77891921Y-69803095D01*
X78092194Y-69791085D01*
X78279568Y-69779896D01*
X78451104Y-69769708D01*
X78603863Y-69760699D01*
X78734905Y-69753049D01*
X78849384Y-69746853D01*
X78987694Y-69741198D01*
X79098129Y-69739534D01*
X79184598Y-69742008D01*
X79251010Y-69748768D01*
X79301272Y-69759959D01*
X79339294Y-69775728D01*
X79368138Y-69788979D01*
X79385955Y-69791687D01*
X79384555Y-69777533D01*
X79369121Y-69741141D01*
X79343246Y-69691654D01*
X79311731Y-69637654D01*
X79279377Y-69587724D01*
X79250987Y-69550446D01*
X79203203Y-69496336D01*
X79025441Y-69507357D01*
X78897094Y-69515525D01*
X78734921Y-69526222D01*
X78546265Y-69538970D01*
X78335245Y-69553491D01*
X78105977Y-69569506D01*
X78063776Y-69572429D01*
X77973955Y-69578517D01*
X77857674Y-69586290D01*
X77719865Y-69595423D01*
X77565460Y-69605591D01*
X77399390Y-69616468D01*
X77226587Y-69627728D01*
X77051982Y-69639047D01*
X76820261Y-69654051D01*
X76532107Y-69672797D01*
X76276141Y-69689565D01*
X76050953Y-69704455D01*
X75855129Y-69717565D01*
X75687258Y-69728994D01*
X75545927Y-69738841D01*
X75429724Y-69747205D01*
X75377914Y-69751114D01*
X75337238Y-69754183D01*
X75267055Y-69759876D01*
X75217764Y-69764382D01*
X75187953Y-69767799D01*
X75176210Y-69770226D01*
X75164577Y-69784368D01*
X75140913Y-69821738D01*
X75112001Y-69872687D01*
X75089253Y-69916813D01*
X75064310Y-69970935D01*
X75050499Y-70008458D01*
X75040107Y-70049864D01*
X74507776Y-70049864D01*
X74508069Y-70034388D01*
X74504462Y-70026667D01*
X74512676Y-70025376D01*
X74518516Y-70021960D01*
X74537194Y-69993998D01*
X74564786Y-69943272D01*
X74598643Y-69875613D01*
X74636117Y-69796852D01*
X74674560Y-69712823D01*
X74711323Y-69629356D01*
X74722394Y-69603049D01*
X75268950Y-69603049D01*
X75272972Y-69610190D01*
X75291108Y-69615363D01*
X75325406Y-69618494D01*
X75377914Y-69619512D01*
X75450681Y-69618342D01*
X75545754Y-69614912D01*
X75665181Y-69609148D01*
X75811010Y-69600977D01*
X75985289Y-69590327D01*
X76190067Y-69577124D01*
X76427391Y-69561296D01*
X76467571Y-69558593D01*
X76655623Y-69546162D01*
X76862808Y-69532761D01*
X77078378Y-69519067D01*
X77291583Y-69505758D01*
X77491673Y-69493515D01*
X77667897Y-69483014D01*
X77761279Y-69477504D01*
X77913931Y-69468314D01*
X78061557Y-69459215D01*
X78198234Y-69450584D01*
X78318038Y-69442797D01*
X78415046Y-69436229D01*
X78483334Y-69431258D01*
X78553780Y-69426013D01*
X78674718Y-69417730D01*
X78799998Y-69409830D01*
X78911559Y-69403483D01*
X79131587Y-69391933D01*
X79042796Y-69276841D01*
X78966797Y-69178791D01*
X78870151Y-69055940D01*
X78792540Y-68959896D01*
X78733265Y-68889817D01*
X78691627Y-68844862D01*
X78666929Y-68824191D01*
X78641728Y-68818517D01*
X78584330Y-68813314D01*
X78499564Y-68809369D01*
X78391264Y-68806855D01*
X78263266Y-68805945D01*
X78186533Y-68806195D01*
X78051972Y-68807427D01*
X77891851Y-68809583D01*
X77711516Y-68812541D01*
X77516313Y-68816181D01*
X77311589Y-68820384D01*
X77102688Y-68825028D01*
X76894956Y-68829995D01*
X76693740Y-68835163D01*
X76504385Y-68840413D01*
X76332236Y-68845624D01*
X76182641Y-68850677D01*
X76060944Y-68855450D01*
X75983390Y-68858917D01*
X75897008Y-68863537D01*
X75835143Y-68868612D01*
X75791798Y-68875142D01*
X75760977Y-68884125D01*
X75736682Y-68896562D01*
X75712916Y-68913452D01*
X75709007Y-68916607D01*
X75676344Y-68950867D01*
X75635456Y-69003223D01*
X75590486Y-69067119D01*
X75545576Y-69136000D01*
X75504871Y-69203312D01*
X75472515Y-69262499D01*
X75452652Y-69307007D01*
X75449424Y-69330280D01*
X75453012Y-69338437D01*
X75442194Y-69337556D01*
X75432553Y-69339743D01*
X75409433Y-69363791D01*
X75380581Y-69405146D01*
X75351024Y-69455101D01*
X75325784Y-69504949D01*
X75309886Y-69545984D01*
X75308353Y-69569499D01*
X75311154Y-69576907D01*
X75298780Y-69582910D01*
X75288399Y-69583419D01*
X75269088Y-69602627D01*
X75268950Y-69603049D01*
X74722394Y-69603049D01*
X74743758Y-69552283D01*
X74769217Y-69487436D01*
X74785051Y-69440647D01*
X74788613Y-69417747D01*
X74786109Y-69407266D01*
X74794537Y-69403422D01*
X74805259Y-69397623D01*
X74825339Y-69367833D01*
X74849443Y-69321499D01*
X74873615Y-69267554D01*
X74893901Y-69214928D01*
X74906347Y-69172556D01*
X74907000Y-69149368D01*
X74903487Y-69141520D01*
X74913466Y-69141619D01*
X74919187Y-69144511D01*
X74933713Y-69140537D01*
X74940701Y-69112514D01*
X74940546Y-69057088D01*
X74933646Y-68970902D01*
X74928282Y-68915166D01*
X74919654Y-68822219D01*
X74910341Y-68719084D01*
X74901602Y-68619570D01*
X74896137Y-68556265D01*
X74885497Y-68433177D01*
X74874504Y-68306176D01*
X74864825Y-68194502D01*
X74857815Y-68111198D01*
X74851232Y-68027835D01*
X74846315Y-67959879D01*
X74843788Y-67916906D01*
X74843102Y-67905250D01*
X74836932Y-67867195D01*
X74827530Y-67851845D01*
X74821913Y-67853949D01*
X74813867Y-67875505D01*
X74813817Y-67876275D01*
X74806205Y-67901460D01*
X74787110Y-67952706D01*
X74758637Y-68024681D01*
X74722892Y-68112053D01*
X74681980Y-68209487D01*
X74657803Y-68266534D01*
X74606046Y-68389663D01*
X74549774Y-68524889D01*
X74487607Y-68675571D01*
X74418168Y-68845070D01*
X74340076Y-69036746D01*
X74251953Y-69253959D01*
X74152422Y-69500069D01*
X74133149Y-69548512D01*
X74100833Y-69633429D01*
X74075198Y-69705668D01*
X74058484Y-69758786D01*
X74052929Y-69786339D01*
X71486733Y-69786339D01*
X71504425Y-69760743D01*
X71544099Y-69710688D01*
X71545648Y-69709112D01*
X72059117Y-69709112D01*
X72059185Y-69716062D01*
X72067856Y-69721432D01*
X72088390Y-69725327D01*
X72124049Y-69727848D01*
X72178092Y-69729100D01*
X72253783Y-69729185D01*
X72354381Y-69728207D01*
X72483149Y-69726269D01*
X72643346Y-69723475D01*
X72708448Y-69722322D01*
X72870808Y-69719600D01*
X73035155Y-69717039D01*
X73194156Y-69714741D01*
X73340472Y-69712809D01*
X73466768Y-69711349D01*
X73565708Y-69710462D01*
X73652059Y-69709513D01*
X73761683Y-69706660D01*
X73840725Y-69701999D01*
X73891687Y-69695362D01*
X73917070Y-69686578D01*
X73917504Y-69686233D01*
X73932739Y-69663072D01*
X73957716Y-69613489D01*
X73990277Y-69542771D01*
X74028260Y-69456205D01*
X74069504Y-69359080D01*
X74111850Y-69256682D01*
X74153135Y-69154299D01*
X74191201Y-69057219D01*
X74223886Y-68970728D01*
X74249029Y-68900115D01*
X74264471Y-68850666D01*
X74268049Y-68827669D01*
X74265705Y-68817356D01*
X74274975Y-68814105D01*
X74286459Y-68813668D01*
X74300053Y-68793161D01*
X74306233Y-68761947D01*
X74300489Y-68734155D01*
X74296442Y-68725375D01*
X74305366Y-68724694D01*
X74315635Y-68718635D01*
X74335112Y-68687494D01*
X74359266Y-68637726D01*
X74384936Y-68577275D01*
X74408959Y-68514088D01*
X74428174Y-68456109D01*
X74439419Y-68411284D01*
X74439532Y-68387557D01*
X74435137Y-68377903D01*
X74445212Y-68378347D01*
X74451069Y-68373959D01*
X74468690Y-68344122D01*
X74494509Y-68291422D01*
X74526043Y-68221688D01*
X74560807Y-68140747D01*
X74596319Y-68054427D01*
X74630095Y-67968558D01*
X74659651Y-67888967D01*
X74682504Y-67821483D01*
X74694757Y-67782446D01*
X73932270Y-67782446D01*
X73169782Y-67782446D01*
X73027668Y-68024981D01*
X73000000Y-68072934D01*
X72955456Y-68153939D01*
X72922042Y-68220001D01*
X72902146Y-68266273D01*
X72898156Y-68287908D01*
X72902245Y-68296700D01*
X72893889Y-68297873D01*
X72884027Y-68300601D01*
X72861029Y-68325493D01*
X72832304Y-68367432D01*
X72802840Y-68417717D01*
X72777623Y-68467649D01*
X72761642Y-68508528D01*
X72759882Y-68531653D01*
X72763658Y-68539995D01*
X72753993Y-68540091D01*
X72750918Y-68539932D01*
X72732187Y-68557220D01*
X72703644Y-68596547D01*
X72669322Y-68650796D01*
X72633250Y-68712845D01*
X72599460Y-68775576D01*
X72571984Y-68831869D01*
X72554852Y-68874604D01*
X72552096Y-68896662D01*
X72555524Y-68904142D01*
X72546584Y-68904922D01*
X72543893Y-68905478D01*
X72525888Y-68925728D01*
X72495154Y-68970092D01*
X72454480Y-69033742D01*
X72406651Y-69111845D01*
X72354456Y-69199571D01*
X72300681Y-69292089D01*
X72248114Y-69384568D01*
X72199541Y-69472178D01*
X72157751Y-69550088D01*
X72125531Y-69613466D01*
X72105666Y-69657482D01*
X72100946Y-69677306D01*
X72104468Y-69684862D01*
X72096113Y-69686044D01*
X72083117Y-69685558D01*
X72061266Y-69705050D01*
X72059117Y-69709112D01*
X71545648Y-69709112D01*
X71575437Y-69678794D01*
X71592869Y-69662720D01*
X71609139Y-69634938D01*
X71618492Y-69592246D01*
X71624049Y-69524753D01*
X71627777Y-69484133D01*
X71638777Y-69425278D01*
X71658110Y-69361165D01*
X71687571Y-69287843D01*
X71728954Y-69201360D01*
X71784056Y-69097765D01*
X71854670Y-68973105D01*
X71942592Y-68823430D01*
X71982082Y-68756752D01*
X72043194Y-68653063D01*
X72115594Y-68529818D01*
X72195925Y-68392751D01*
X72280825Y-68247594D01*
X72366937Y-68100080D01*
X72450900Y-67955943D01*
X72483248Y-67900347D01*
X72604712Y-67691665D01*
X72710296Y-67510549D01*
X72801252Y-67355048D01*
X72878831Y-67223208D01*
X72944286Y-67113077D01*
X72998870Y-67022702D01*
X73043834Y-66950131D01*
X73080432Y-66893410D01*
X73109915Y-66850587D01*
X73133535Y-66819710D01*
X73152546Y-66798826D01*
X73168199Y-66785981D01*
X73181747Y-66779224D01*
X73194441Y-66776602D01*
X73207535Y-66776162D01*
X73245885Y-66784805D01*
G37*
%TD*%
M02*
