%TF.GenerationSoftware,KiCad,Pcbnew,9.0.3*%
%TF.CreationDate,2025-09-21T16:31:05-04:00*%
%TF.ProjectId,6502-interposer,36353032-2d69-46e7-9465-72706f736572,rev?*%
%TF.SameCoordinates,Original*%
%TF.FileFunction,Legend,Top*%
%TF.FilePolarity,Positive*%
%FSLAX46Y46*%
G04 Gerber Fmt 4.6, Leading zero omitted, Abs format (unit mm)*
G04 Created by KiCad (PCBNEW 9.0.3) date 2025-09-21 16:31:05*
%MOMM*%
%LPD*%
G01*
G04 APERTURE LIST*
%ADD10C,0.100000*%
%ADD11C,0.250000*%
%ADD12C,0.150000*%
%ADD13C,0.120000*%
G04 APERTURE END LIST*
D10*
X106000000Y-72750000D02*
X102400000Y-72750000D01*
X49000000Y-50000000D02*
X49000000Y-52000000D01*
X49000000Y-38000000D02*
X49000000Y-39625000D01*
X69250000Y-50000000D02*
X69250000Y-52000000D01*
X54000000Y-58250000D02*
X54000000Y-60250000D01*
X69250000Y-58250000D02*
X69250000Y-60250000D01*
X106000000Y-62750000D02*
X102400000Y-62750000D01*
X106000000Y-80500000D02*
X102400000Y-80530000D01*
X71750000Y-46250000D02*
X71750000Y-48250000D01*
X106000000Y-57500000D02*
X102400000Y-57500000D01*
X51500000Y-58250000D02*
X51500000Y-60250000D01*
X106000000Y-70250000D02*
X102400000Y-70250000D01*
X56500000Y-50000000D02*
X56500000Y-52000000D01*
X54000000Y-46250000D02*
X54000000Y-48250000D01*
X46500000Y-60250000D02*
X46500000Y-58250000D01*
X59250000Y-46250000D02*
X59250000Y-48250000D01*
X66750000Y-50000000D02*
X66750000Y-52000000D01*
X56500000Y-38000000D02*
X56500000Y-39625000D01*
X61750000Y-38000000D02*
X61750000Y-39625000D01*
X66750000Y-58250000D02*
X66750000Y-60250000D01*
X59250000Y-58250000D02*
X59250000Y-60250000D01*
X106000000Y-65250000D02*
X102400000Y-65250000D01*
X74500000Y-50000000D02*
X74500000Y-52000000D01*
X77000000Y-52000000D02*
X46500000Y-52000000D01*
X54000000Y-38000000D02*
X54000000Y-39625000D01*
X71750000Y-38000000D02*
X71750000Y-39625000D01*
X102400000Y-57500000D02*
X102400000Y-80530000D01*
X64250000Y-46250000D02*
X64250000Y-48250000D01*
X51500000Y-38000000D02*
X51500000Y-39625000D01*
X56500000Y-46250000D02*
X56500000Y-48250000D01*
X74500000Y-38000000D02*
X74500000Y-39625000D01*
X56500000Y-58250000D02*
X56500000Y-60250000D01*
X61750000Y-46250000D02*
X61750000Y-48250000D01*
X49000000Y-46250000D02*
X49000000Y-48250000D01*
X64250000Y-58250000D02*
X64250000Y-60250000D01*
X61750000Y-58250000D02*
X61750000Y-60250000D01*
X106000000Y-57500000D02*
X106000000Y-80500000D01*
X77000000Y-48250000D02*
X46500000Y-48250000D01*
X74500000Y-58250000D02*
X74500000Y-60250000D01*
X69250000Y-46250000D02*
X69250000Y-48250000D01*
X51500000Y-50000000D02*
X51500000Y-52000000D01*
X77000000Y-46250000D02*
X77000000Y-48250000D01*
X106000000Y-75500000D02*
X102400000Y-75500000D01*
X51500000Y-46250000D02*
X51500000Y-48250000D01*
X46500000Y-52000000D02*
X46500000Y-50000000D01*
X74500000Y-46250000D02*
X74500000Y-48250000D01*
X61750000Y-50000000D02*
X61750000Y-52000000D01*
X46500000Y-48250000D02*
X46500000Y-46250000D01*
X59250000Y-38000000D02*
X59250000Y-39625000D01*
X46500000Y-46250000D02*
X77000000Y-46250000D01*
X106000000Y-67750000D02*
X102400000Y-67750000D01*
X64250000Y-38000000D02*
X64250000Y-39625000D01*
X77000000Y-50000000D02*
X77000000Y-52000000D01*
X106000000Y-78000000D02*
X102400000Y-78000000D01*
X66750000Y-46250000D02*
X66750000Y-48250000D01*
X64250000Y-50000000D02*
X64250000Y-52000000D01*
X46500000Y-39625000D02*
X46500000Y-38000000D01*
X49000000Y-58250000D02*
X49000000Y-60250000D01*
X71750000Y-58250000D02*
X71750000Y-60250000D01*
X71750000Y-50000000D02*
X71750000Y-52000000D01*
X46500000Y-38000000D02*
X77000000Y-38000000D01*
X66750000Y-38000000D02*
X66750000Y-39625000D01*
X54000000Y-50000000D02*
X54000000Y-52000000D01*
X77000000Y-39625000D02*
X46500000Y-39625000D01*
X77000000Y-38000000D02*
X77000000Y-39625000D01*
X69250000Y-38000000D02*
X69250000Y-39625000D01*
X104250000Y-57500000D02*
X104250000Y-80500000D01*
X77000000Y-60250000D02*
X46500000Y-60250000D01*
X106000000Y-60000000D02*
X102400000Y-60000000D01*
X46500000Y-50000000D02*
X77000000Y-50000000D01*
X59250000Y-50000000D02*
X59250000Y-52000000D01*
X77000000Y-58250000D02*
X77000000Y-60250000D01*
X46500000Y-58250000D02*
X77000000Y-58250000D01*
X52411027Y-47586704D02*
X52649122Y-47586704D01*
X52363408Y-47872419D02*
X52530074Y-46872419D01*
X52530074Y-46872419D02*
X52696741Y-47872419D01*
X53125312Y-47872419D02*
X52839598Y-47872419D01*
X52982455Y-47872419D02*
X52982455Y-46872419D01*
X52982455Y-46872419D02*
X52934836Y-47015276D01*
X52934836Y-47015276D02*
X52887217Y-47110514D01*
X52887217Y-47110514D02*
X52839598Y-47158133D01*
X53434835Y-46872419D02*
X53482454Y-46872419D01*
X53482454Y-46872419D02*
X53530073Y-46920038D01*
X53530073Y-46920038D02*
X53553883Y-46967657D01*
X53553883Y-46967657D02*
X53577692Y-47062895D01*
X53577692Y-47062895D02*
X53601502Y-47253371D01*
X53601502Y-47253371D02*
X53601502Y-47491466D01*
X53601502Y-47491466D02*
X53577692Y-47681942D01*
X53577692Y-47681942D02*
X53553883Y-47777180D01*
X53553883Y-47777180D02*
X53530073Y-47824800D01*
X53530073Y-47824800D02*
X53482454Y-47872419D01*
X53482454Y-47872419D02*
X53434835Y-47872419D01*
X53434835Y-47872419D02*
X53387216Y-47824800D01*
X53387216Y-47824800D02*
X53363407Y-47777180D01*
X53363407Y-47777180D02*
X53339597Y-47681942D01*
X53339597Y-47681942D02*
X53315788Y-47491466D01*
X53315788Y-47491466D02*
X53315788Y-47253371D01*
X53315788Y-47253371D02*
X53339597Y-47062895D01*
X53339597Y-47062895D02*
X53363407Y-46967657D01*
X53363407Y-46967657D02*
X53387216Y-46920038D01*
X53387216Y-46920038D02*
X53434835Y-46872419D01*
X102967657Y-64588972D02*
X102920038Y-64565163D01*
X102920038Y-64565163D02*
X102872419Y-64517544D01*
X102872419Y-64517544D02*
X102872419Y-64398496D01*
X102872419Y-64398496D02*
X102920038Y-64350877D01*
X102920038Y-64350877D02*
X102967657Y-64327068D01*
X102967657Y-64327068D02*
X103062895Y-64303258D01*
X103062895Y-64303258D02*
X103158133Y-64303258D01*
X103158133Y-64303258D02*
X103300990Y-64327068D01*
X103300990Y-64327068D02*
X103872419Y-64612782D01*
X103872419Y-64612782D02*
X103872419Y-64303258D01*
X103777180Y-64088973D02*
X103824800Y-64065163D01*
X103824800Y-64065163D02*
X103872419Y-64088973D01*
X103872419Y-64088973D02*
X103824800Y-64112782D01*
X103824800Y-64112782D02*
X103777180Y-64088973D01*
X103777180Y-64088973D02*
X103872419Y-64088973D01*
X103872419Y-63588973D02*
X103872419Y-63874687D01*
X103872419Y-63731830D02*
X102872419Y-63731830D01*
X102872419Y-63731830D02*
X103015276Y-63779449D01*
X103015276Y-63779449D02*
X103110514Y-63827068D01*
X103110514Y-63827068D02*
X103158133Y-63874687D01*
X103872419Y-63350878D02*
X103872419Y-63255640D01*
X103872419Y-63255640D02*
X103824800Y-63208021D01*
X103824800Y-63208021D02*
X103777180Y-63184212D01*
X103777180Y-63184212D02*
X103634323Y-63136593D01*
X103634323Y-63136593D02*
X103443847Y-63112783D01*
X103443847Y-63112783D02*
X103062895Y-63112783D01*
X103062895Y-63112783D02*
X102967657Y-63136593D01*
X102967657Y-63136593D02*
X102920038Y-63160402D01*
X102920038Y-63160402D02*
X102872419Y-63208021D01*
X102872419Y-63208021D02*
X102872419Y-63303259D01*
X102872419Y-63303259D02*
X102920038Y-63350878D01*
X102920038Y-63350878D02*
X102967657Y-63374688D01*
X102967657Y-63374688D02*
X103062895Y-63398497D01*
X103062895Y-63398497D02*
X103300990Y-63398497D01*
X103300990Y-63398497D02*
X103396228Y-63374688D01*
X103396228Y-63374688D02*
X103443847Y-63350878D01*
X103443847Y-63350878D02*
X103491466Y-63303259D01*
X103491466Y-63303259D02*
X103491466Y-63208021D01*
X103491466Y-63208021D02*
X103443847Y-63160402D01*
X103443847Y-63160402D02*
X103396228Y-63136593D01*
X103396228Y-63136593D02*
X103300990Y-63112783D01*
X47446741Y-51372419D02*
X47161027Y-51372419D01*
X47303884Y-51372419D02*
X47303884Y-50372419D01*
X47303884Y-50372419D02*
X47256265Y-50515276D01*
X47256265Y-50515276D02*
X47208646Y-50610514D01*
X47208646Y-50610514D02*
X47161027Y-50658133D01*
X47661026Y-51277180D02*
X47684836Y-51324800D01*
X47684836Y-51324800D02*
X47661026Y-51372419D01*
X47661026Y-51372419D02*
X47637217Y-51324800D01*
X47637217Y-51324800D02*
X47661026Y-51277180D01*
X47661026Y-51277180D02*
X47661026Y-51372419D01*
X47875312Y-50467657D02*
X47899121Y-50420038D01*
X47899121Y-50420038D02*
X47946740Y-50372419D01*
X47946740Y-50372419D02*
X48065788Y-50372419D01*
X48065788Y-50372419D02*
X48113407Y-50420038D01*
X48113407Y-50420038D02*
X48137216Y-50467657D01*
X48137216Y-50467657D02*
X48161026Y-50562895D01*
X48161026Y-50562895D02*
X48161026Y-50658133D01*
X48161026Y-50658133D02*
X48137216Y-50800990D01*
X48137216Y-50800990D02*
X47851502Y-51372419D01*
X47851502Y-51372419D02*
X48161026Y-51372419D01*
X48589597Y-50705752D02*
X48589597Y-51372419D01*
X48470549Y-50324800D02*
X48351502Y-51039085D01*
X48351502Y-51039085D02*
X48661025Y-51039085D01*
X72411027Y-38467657D02*
X72434836Y-38420038D01*
X72434836Y-38420038D02*
X72482455Y-38372419D01*
X72482455Y-38372419D02*
X72601503Y-38372419D01*
X72601503Y-38372419D02*
X72649122Y-38420038D01*
X72649122Y-38420038D02*
X72672931Y-38467657D01*
X72672931Y-38467657D02*
X72696741Y-38562895D01*
X72696741Y-38562895D02*
X72696741Y-38658133D01*
X72696741Y-38658133D02*
X72672931Y-38800990D01*
X72672931Y-38800990D02*
X72387217Y-39372419D01*
X72387217Y-39372419D02*
X72696741Y-39372419D01*
X72911026Y-39277180D02*
X72934836Y-39324800D01*
X72934836Y-39324800D02*
X72911026Y-39372419D01*
X72911026Y-39372419D02*
X72887217Y-39324800D01*
X72887217Y-39324800D02*
X72911026Y-39277180D01*
X72911026Y-39277180D02*
X72911026Y-39372419D01*
X73411026Y-39372419D02*
X73125312Y-39372419D01*
X73268169Y-39372419D02*
X73268169Y-38372419D01*
X73268169Y-38372419D02*
X73220550Y-38515276D01*
X73220550Y-38515276D02*
X73172931Y-38610514D01*
X73172931Y-38610514D02*
X73125312Y-38658133D01*
X73839597Y-38705752D02*
X73839597Y-39372419D01*
X73720549Y-38324800D02*
X73601502Y-39039085D01*
X73601502Y-39039085D02*
X73911025Y-39039085D01*
X102967657Y-72088972D02*
X102920038Y-72065163D01*
X102920038Y-72065163D02*
X102872419Y-72017544D01*
X102872419Y-72017544D02*
X102872419Y-71898496D01*
X102872419Y-71898496D02*
X102920038Y-71850877D01*
X102920038Y-71850877D02*
X102967657Y-71827068D01*
X102967657Y-71827068D02*
X103062895Y-71803258D01*
X103062895Y-71803258D02*
X103158133Y-71803258D01*
X103158133Y-71803258D02*
X103300990Y-71827068D01*
X103300990Y-71827068D02*
X103872419Y-72112782D01*
X103872419Y-72112782D02*
X103872419Y-71803258D01*
X103777180Y-71588973D02*
X103824800Y-71565163D01*
X103824800Y-71565163D02*
X103872419Y-71588973D01*
X103872419Y-71588973D02*
X103824800Y-71612782D01*
X103824800Y-71612782D02*
X103777180Y-71588973D01*
X103777180Y-71588973D02*
X103872419Y-71588973D01*
X103872419Y-71088973D02*
X103872419Y-71374687D01*
X103872419Y-71231830D02*
X102872419Y-71231830D01*
X102872419Y-71231830D02*
X103015276Y-71279449D01*
X103015276Y-71279449D02*
X103110514Y-71327068D01*
X103110514Y-71327068D02*
X103158133Y-71374687D01*
X102872419Y-70922307D02*
X102872419Y-70612783D01*
X102872419Y-70612783D02*
X103253371Y-70779450D01*
X103253371Y-70779450D02*
X103253371Y-70708021D01*
X103253371Y-70708021D02*
X103300990Y-70660402D01*
X103300990Y-70660402D02*
X103348609Y-70636593D01*
X103348609Y-70636593D02*
X103443847Y-70612783D01*
X103443847Y-70612783D02*
X103681942Y-70612783D01*
X103681942Y-70612783D02*
X103777180Y-70636593D01*
X103777180Y-70636593D02*
X103824800Y-70660402D01*
X103824800Y-70660402D02*
X103872419Y-70708021D01*
X103872419Y-70708021D02*
X103872419Y-70850878D01*
X103872419Y-70850878D02*
X103824800Y-70898497D01*
X103824800Y-70898497D02*
X103777180Y-70922307D01*
X75161027Y-46967657D02*
X75184836Y-46920038D01*
X75184836Y-46920038D02*
X75232455Y-46872419D01*
X75232455Y-46872419D02*
X75351503Y-46872419D01*
X75351503Y-46872419D02*
X75399122Y-46920038D01*
X75399122Y-46920038D02*
X75422931Y-46967657D01*
X75422931Y-46967657D02*
X75446741Y-47062895D01*
X75446741Y-47062895D02*
X75446741Y-47158133D01*
X75446741Y-47158133D02*
X75422931Y-47300990D01*
X75422931Y-47300990D02*
X75137217Y-47872419D01*
X75137217Y-47872419D02*
X75446741Y-47872419D01*
X75661026Y-47777180D02*
X75684836Y-47824800D01*
X75684836Y-47824800D02*
X75661026Y-47872419D01*
X75661026Y-47872419D02*
X75637217Y-47824800D01*
X75637217Y-47824800D02*
X75661026Y-47777180D01*
X75661026Y-47777180D02*
X75661026Y-47872419D01*
X76161026Y-47872419D02*
X75875312Y-47872419D01*
X76018169Y-47872419D02*
X76018169Y-46872419D01*
X76018169Y-46872419D02*
X75970550Y-47015276D01*
X75970550Y-47015276D02*
X75922931Y-47110514D01*
X75922931Y-47110514D02*
X75875312Y-47158133D01*
X76351502Y-46967657D02*
X76375311Y-46920038D01*
X76375311Y-46920038D02*
X76422930Y-46872419D01*
X76422930Y-46872419D02*
X76541978Y-46872419D01*
X76541978Y-46872419D02*
X76589597Y-46920038D01*
X76589597Y-46920038D02*
X76613406Y-46967657D01*
X76613406Y-46967657D02*
X76637216Y-47062895D01*
X76637216Y-47062895D02*
X76637216Y-47158133D01*
X76637216Y-47158133D02*
X76613406Y-47300990D01*
X76613406Y-47300990D02*
X76327692Y-47872419D01*
X76327692Y-47872419D02*
X76637216Y-47872419D01*
X75434836Y-59622419D02*
X75434836Y-58622419D01*
X75434836Y-58622419D02*
X75553884Y-58622419D01*
X75553884Y-58622419D02*
X75625312Y-58670038D01*
X75625312Y-58670038D02*
X75672931Y-58765276D01*
X75672931Y-58765276D02*
X75696741Y-58860514D01*
X75696741Y-58860514D02*
X75720550Y-59050990D01*
X75720550Y-59050990D02*
X75720550Y-59193847D01*
X75720550Y-59193847D02*
X75696741Y-59384323D01*
X75696741Y-59384323D02*
X75672931Y-59479561D01*
X75672931Y-59479561D02*
X75625312Y-59574800D01*
X75625312Y-59574800D02*
X75553884Y-59622419D01*
X75553884Y-59622419D02*
X75434836Y-59622419D01*
X76172931Y-58622419D02*
X75934836Y-58622419D01*
X75934836Y-58622419D02*
X75911027Y-59098609D01*
X75911027Y-59098609D02*
X75934836Y-59050990D01*
X75934836Y-59050990D02*
X75982455Y-59003371D01*
X75982455Y-59003371D02*
X76101503Y-59003371D01*
X76101503Y-59003371D02*
X76149122Y-59050990D01*
X76149122Y-59050990D02*
X76172931Y-59098609D01*
X76172931Y-59098609D02*
X76196741Y-59193847D01*
X76196741Y-59193847D02*
X76196741Y-59431942D01*
X76196741Y-59431942D02*
X76172931Y-59527180D01*
X76172931Y-59527180D02*
X76149122Y-59574800D01*
X76149122Y-59574800D02*
X76101503Y-59622419D01*
X76101503Y-59622419D02*
X75982455Y-59622419D01*
X75982455Y-59622419D02*
X75934836Y-59574800D01*
X75934836Y-59574800D02*
X75911027Y-59527180D01*
X59911027Y-47586704D02*
X60149122Y-47586704D01*
X59863408Y-47872419D02*
X60030074Y-46872419D01*
X60030074Y-46872419D02*
X60196741Y-47872419D01*
X60625312Y-47872419D02*
X60339598Y-47872419D01*
X60482455Y-47872419D02*
X60482455Y-46872419D01*
X60482455Y-46872419D02*
X60434836Y-47015276D01*
X60434836Y-47015276D02*
X60387217Y-47110514D01*
X60387217Y-47110514D02*
X60339598Y-47158133D01*
X60791978Y-46872419D02*
X61101502Y-46872419D01*
X61101502Y-46872419D02*
X60934835Y-47253371D01*
X60934835Y-47253371D02*
X61006264Y-47253371D01*
X61006264Y-47253371D02*
X61053883Y-47300990D01*
X61053883Y-47300990D02*
X61077692Y-47348609D01*
X61077692Y-47348609D02*
X61101502Y-47443847D01*
X61101502Y-47443847D02*
X61101502Y-47681942D01*
X61101502Y-47681942D02*
X61077692Y-47777180D01*
X61077692Y-47777180D02*
X61053883Y-47824800D01*
X61053883Y-47824800D02*
X61006264Y-47872419D01*
X61006264Y-47872419D02*
X60863407Y-47872419D01*
X60863407Y-47872419D02*
X60815788Y-47824800D01*
X60815788Y-47824800D02*
X60791978Y-47777180D01*
X70184836Y-59622419D02*
X70184836Y-58622419D01*
X70184836Y-58622419D02*
X70303884Y-58622419D01*
X70303884Y-58622419D02*
X70375312Y-58670038D01*
X70375312Y-58670038D02*
X70422931Y-58765276D01*
X70422931Y-58765276D02*
X70446741Y-58860514D01*
X70446741Y-58860514D02*
X70470550Y-59050990D01*
X70470550Y-59050990D02*
X70470550Y-59193847D01*
X70470550Y-59193847D02*
X70446741Y-59384323D01*
X70446741Y-59384323D02*
X70422931Y-59479561D01*
X70422931Y-59479561D02*
X70375312Y-59574800D01*
X70375312Y-59574800D02*
X70303884Y-59622419D01*
X70303884Y-59622419D02*
X70184836Y-59622419D01*
X70637217Y-58622419D02*
X70946741Y-58622419D01*
X70946741Y-58622419D02*
X70780074Y-59003371D01*
X70780074Y-59003371D02*
X70851503Y-59003371D01*
X70851503Y-59003371D02*
X70899122Y-59050990D01*
X70899122Y-59050990D02*
X70922931Y-59098609D01*
X70922931Y-59098609D02*
X70946741Y-59193847D01*
X70946741Y-59193847D02*
X70946741Y-59431942D01*
X70946741Y-59431942D02*
X70922931Y-59527180D01*
X70922931Y-59527180D02*
X70899122Y-59574800D01*
X70899122Y-59574800D02*
X70851503Y-59622419D01*
X70851503Y-59622419D02*
X70708646Y-59622419D01*
X70708646Y-59622419D02*
X70661027Y-59574800D01*
X70661027Y-59574800D02*
X70637217Y-59527180D01*
X69911027Y-38467657D02*
X69934836Y-38420038D01*
X69934836Y-38420038D02*
X69982455Y-38372419D01*
X69982455Y-38372419D02*
X70101503Y-38372419D01*
X70101503Y-38372419D02*
X70149122Y-38420038D01*
X70149122Y-38420038D02*
X70172931Y-38467657D01*
X70172931Y-38467657D02*
X70196741Y-38562895D01*
X70196741Y-38562895D02*
X70196741Y-38658133D01*
X70196741Y-38658133D02*
X70172931Y-38800990D01*
X70172931Y-38800990D02*
X69887217Y-39372419D01*
X69887217Y-39372419D02*
X70196741Y-39372419D01*
X70411026Y-39277180D02*
X70434836Y-39324800D01*
X70434836Y-39324800D02*
X70411026Y-39372419D01*
X70411026Y-39372419D02*
X70387217Y-39324800D01*
X70387217Y-39324800D02*
X70411026Y-39277180D01*
X70411026Y-39277180D02*
X70411026Y-39372419D01*
X70911026Y-39372419D02*
X70625312Y-39372419D01*
X70768169Y-39372419D02*
X70768169Y-38372419D01*
X70768169Y-38372419D02*
X70720550Y-38515276D01*
X70720550Y-38515276D02*
X70672931Y-38610514D01*
X70672931Y-38610514D02*
X70625312Y-38658133D01*
X71363406Y-38372419D02*
X71125311Y-38372419D01*
X71125311Y-38372419D02*
X71101502Y-38848609D01*
X71101502Y-38848609D02*
X71125311Y-38800990D01*
X71125311Y-38800990D02*
X71172930Y-38753371D01*
X71172930Y-38753371D02*
X71291978Y-38753371D01*
X71291978Y-38753371D02*
X71339597Y-38800990D01*
X71339597Y-38800990D02*
X71363406Y-38848609D01*
X71363406Y-38848609D02*
X71387216Y-38943847D01*
X71387216Y-38943847D02*
X71387216Y-39181942D01*
X71387216Y-39181942D02*
X71363406Y-39277180D01*
X71363406Y-39277180D02*
X71339597Y-39324800D01*
X71339597Y-39324800D02*
X71291978Y-39372419D01*
X71291978Y-39372419D02*
X71172930Y-39372419D01*
X71172930Y-39372419D02*
X71125311Y-39324800D01*
X71125311Y-39324800D02*
X71101502Y-39277180D01*
X52184836Y-59622419D02*
X52184836Y-58622419D01*
X52184836Y-58622419D02*
X52470550Y-59622419D01*
X52470550Y-59622419D02*
X52470550Y-58622419D01*
X52708646Y-59622419D02*
X52708646Y-58622419D01*
X52708646Y-58622419D02*
X52875313Y-59336704D01*
X52875313Y-59336704D02*
X53041979Y-58622419D01*
X53041979Y-58622419D02*
X53041979Y-59622419D01*
X53280075Y-59622419D02*
X53280075Y-58622419D01*
X103872419Y-79553258D02*
X103872419Y-79838972D01*
X103872419Y-79696115D02*
X102872419Y-79696115D01*
X102872419Y-79696115D02*
X103015276Y-79743734D01*
X103015276Y-79743734D02*
X103110514Y-79791353D01*
X103110514Y-79791353D02*
X103158133Y-79838972D01*
X103777180Y-79338973D02*
X103824800Y-79315163D01*
X103824800Y-79315163D02*
X103872419Y-79338973D01*
X103872419Y-79338973D02*
X103824800Y-79362782D01*
X103824800Y-79362782D02*
X103777180Y-79338973D01*
X103777180Y-79338973D02*
X103872419Y-79338973D01*
X102967657Y-79124687D02*
X102920038Y-79100878D01*
X102920038Y-79100878D02*
X102872419Y-79053259D01*
X102872419Y-79053259D02*
X102872419Y-78934211D01*
X102872419Y-78934211D02*
X102920038Y-78886592D01*
X102920038Y-78886592D02*
X102967657Y-78862783D01*
X102967657Y-78862783D02*
X103062895Y-78838973D01*
X103062895Y-78838973D02*
X103158133Y-78838973D01*
X103158133Y-78838973D02*
X103300990Y-78862783D01*
X103300990Y-78862783D02*
X103872419Y-79148497D01*
X103872419Y-79148497D02*
X103872419Y-78838973D01*
X102872419Y-78672307D02*
X102872419Y-78362783D01*
X102872419Y-78362783D02*
X103253371Y-78529450D01*
X103253371Y-78529450D02*
X103253371Y-78458021D01*
X103253371Y-78458021D02*
X103300990Y-78410402D01*
X103300990Y-78410402D02*
X103348609Y-78386593D01*
X103348609Y-78386593D02*
X103443847Y-78362783D01*
X103443847Y-78362783D02*
X103681942Y-78362783D01*
X103681942Y-78362783D02*
X103777180Y-78386593D01*
X103777180Y-78386593D02*
X103824800Y-78410402D01*
X103824800Y-78410402D02*
X103872419Y-78458021D01*
X103872419Y-78458021D02*
X103872419Y-78600878D01*
X103872419Y-78600878D02*
X103824800Y-78648497D01*
X103824800Y-78648497D02*
X103777180Y-78672307D01*
X64911027Y-47586704D02*
X65149122Y-47586704D01*
X64863408Y-47872419D02*
X65030074Y-46872419D01*
X65030074Y-46872419D02*
X65196741Y-47872419D01*
X65625312Y-47872419D02*
X65339598Y-47872419D01*
X65482455Y-47872419D02*
X65482455Y-46872419D01*
X65482455Y-46872419D02*
X65434836Y-47015276D01*
X65434836Y-47015276D02*
X65387217Y-47110514D01*
X65387217Y-47110514D02*
X65339598Y-47158133D01*
X66077692Y-46872419D02*
X65839597Y-46872419D01*
X65839597Y-46872419D02*
X65815788Y-47348609D01*
X65815788Y-47348609D02*
X65839597Y-47300990D01*
X65839597Y-47300990D02*
X65887216Y-47253371D01*
X65887216Y-47253371D02*
X66006264Y-47253371D01*
X66006264Y-47253371D02*
X66053883Y-47300990D01*
X66053883Y-47300990D02*
X66077692Y-47348609D01*
X66077692Y-47348609D02*
X66101502Y-47443847D01*
X66101502Y-47443847D02*
X66101502Y-47681942D01*
X66101502Y-47681942D02*
X66077692Y-47777180D01*
X66077692Y-47777180D02*
X66053883Y-47824800D01*
X66053883Y-47824800D02*
X66006264Y-47872419D01*
X66006264Y-47872419D02*
X65887216Y-47872419D01*
X65887216Y-47872419D02*
X65839597Y-47824800D01*
X65839597Y-47824800D02*
X65815788Y-47777180D01*
X69911027Y-46967657D02*
X69934836Y-46920038D01*
X69934836Y-46920038D02*
X69982455Y-46872419D01*
X69982455Y-46872419D02*
X70101503Y-46872419D01*
X70101503Y-46872419D02*
X70149122Y-46920038D01*
X70149122Y-46920038D02*
X70172931Y-46967657D01*
X70172931Y-46967657D02*
X70196741Y-47062895D01*
X70196741Y-47062895D02*
X70196741Y-47158133D01*
X70196741Y-47158133D02*
X70172931Y-47300990D01*
X70172931Y-47300990D02*
X69887217Y-47872419D01*
X69887217Y-47872419D02*
X70196741Y-47872419D01*
X70411026Y-47777180D02*
X70434836Y-47824800D01*
X70434836Y-47824800D02*
X70411026Y-47872419D01*
X70411026Y-47872419D02*
X70387217Y-47824800D01*
X70387217Y-47824800D02*
X70411026Y-47777180D01*
X70411026Y-47777180D02*
X70411026Y-47872419D01*
X70911026Y-47872419D02*
X70625312Y-47872419D01*
X70768169Y-47872419D02*
X70768169Y-46872419D01*
X70768169Y-46872419D02*
X70720550Y-47015276D01*
X70720550Y-47015276D02*
X70672931Y-47110514D01*
X70672931Y-47110514D02*
X70625312Y-47158133D01*
X71220549Y-46872419D02*
X71268168Y-46872419D01*
X71268168Y-46872419D02*
X71315787Y-46920038D01*
X71315787Y-46920038D02*
X71339597Y-46967657D01*
X71339597Y-46967657D02*
X71363406Y-47062895D01*
X71363406Y-47062895D02*
X71387216Y-47253371D01*
X71387216Y-47253371D02*
X71387216Y-47491466D01*
X71387216Y-47491466D02*
X71363406Y-47681942D01*
X71363406Y-47681942D02*
X71339597Y-47777180D01*
X71339597Y-47777180D02*
X71315787Y-47824800D01*
X71315787Y-47824800D02*
X71268168Y-47872419D01*
X71268168Y-47872419D02*
X71220549Y-47872419D01*
X71220549Y-47872419D02*
X71172930Y-47824800D01*
X71172930Y-47824800D02*
X71149121Y-47777180D01*
X71149121Y-47777180D02*
X71125311Y-47681942D01*
X71125311Y-47681942D02*
X71101502Y-47491466D01*
X71101502Y-47491466D02*
X71101502Y-47253371D01*
X71101502Y-47253371D02*
X71125311Y-47062895D01*
X71125311Y-47062895D02*
X71149121Y-46967657D01*
X71149121Y-46967657D02*
X71172930Y-46920038D01*
X71172930Y-46920038D02*
X71220549Y-46872419D01*
X54661027Y-38467657D02*
X54684836Y-38420038D01*
X54684836Y-38420038D02*
X54732455Y-38372419D01*
X54732455Y-38372419D02*
X54851503Y-38372419D01*
X54851503Y-38372419D02*
X54899122Y-38420038D01*
X54899122Y-38420038D02*
X54922931Y-38467657D01*
X54922931Y-38467657D02*
X54946741Y-38562895D01*
X54946741Y-38562895D02*
X54946741Y-38658133D01*
X54946741Y-38658133D02*
X54922931Y-38800990D01*
X54922931Y-38800990D02*
X54637217Y-39372419D01*
X54637217Y-39372419D02*
X54946741Y-39372419D01*
X55161026Y-39277180D02*
X55184836Y-39324800D01*
X55184836Y-39324800D02*
X55161026Y-39372419D01*
X55161026Y-39372419D02*
X55137217Y-39324800D01*
X55137217Y-39324800D02*
X55161026Y-39277180D01*
X55161026Y-39277180D02*
X55161026Y-39372419D01*
X55375312Y-38467657D02*
X55399121Y-38420038D01*
X55399121Y-38420038D02*
X55446740Y-38372419D01*
X55446740Y-38372419D02*
X55565788Y-38372419D01*
X55565788Y-38372419D02*
X55613407Y-38420038D01*
X55613407Y-38420038D02*
X55637216Y-38467657D01*
X55637216Y-38467657D02*
X55661026Y-38562895D01*
X55661026Y-38562895D02*
X55661026Y-38658133D01*
X55661026Y-38658133D02*
X55637216Y-38800990D01*
X55637216Y-38800990D02*
X55351502Y-39372419D01*
X55351502Y-39372419D02*
X55661026Y-39372419D01*
X56137216Y-39372419D02*
X55851502Y-39372419D01*
X55994359Y-39372419D02*
X55994359Y-38372419D01*
X55994359Y-38372419D02*
X55946740Y-38515276D01*
X55946740Y-38515276D02*
X55899121Y-38610514D01*
X55899121Y-38610514D02*
X55851502Y-38658133D01*
X49684836Y-59622419D02*
X49684836Y-58622419D01*
X50208645Y-59622419D02*
X50041979Y-59146228D01*
X49922931Y-59622419D02*
X49922931Y-58622419D01*
X49922931Y-58622419D02*
X50113407Y-58622419D01*
X50113407Y-58622419D02*
X50161026Y-58670038D01*
X50161026Y-58670038D02*
X50184836Y-58717657D01*
X50184836Y-58717657D02*
X50208645Y-58812895D01*
X50208645Y-58812895D02*
X50208645Y-58955752D01*
X50208645Y-58955752D02*
X50184836Y-59050990D01*
X50184836Y-59050990D02*
X50161026Y-59098609D01*
X50161026Y-59098609D02*
X50113407Y-59146228D01*
X50113407Y-59146228D02*
X49922931Y-59146228D01*
X50756264Y-59717657D02*
X50708645Y-59670038D01*
X50708645Y-59670038D02*
X50661026Y-59574800D01*
X50661026Y-59574800D02*
X50589598Y-59431942D01*
X50589598Y-59431942D02*
X50541979Y-59384323D01*
X50541979Y-59384323D02*
X50494360Y-59384323D01*
X50518169Y-59622419D02*
X50470550Y-59574800D01*
X50470550Y-59574800D02*
X50422931Y-59479561D01*
X50422931Y-59479561D02*
X50399122Y-59289085D01*
X50399122Y-59289085D02*
X50399122Y-58955752D01*
X50399122Y-58955752D02*
X50422931Y-58765276D01*
X50422931Y-58765276D02*
X50470550Y-58670038D01*
X50470550Y-58670038D02*
X50518169Y-58622419D01*
X50518169Y-58622419D02*
X50613407Y-58622419D01*
X50613407Y-58622419D02*
X50661026Y-58670038D01*
X50661026Y-58670038D02*
X50708645Y-58765276D01*
X50708645Y-58765276D02*
X50732455Y-58955752D01*
X50732455Y-58955752D02*
X50732455Y-59289085D01*
X50732455Y-59289085D02*
X50708645Y-59479561D01*
X50708645Y-59479561D02*
X50661026Y-59574800D01*
X50661026Y-59574800D02*
X50613407Y-59622419D01*
X50613407Y-59622419D02*
X50518169Y-59622419D01*
D11*
X49541790Y-65928758D02*
X49541790Y-66157330D01*
X49541790Y-66157330D02*
X49484647Y-66271615D01*
X49484647Y-66271615D02*
X49370361Y-66385901D01*
X49370361Y-66385901D02*
X49141790Y-66443044D01*
X49141790Y-66443044D02*
X48741790Y-66443044D01*
X48741790Y-66443044D02*
X48513218Y-66385901D01*
X48513218Y-66385901D02*
X48398933Y-66271615D01*
X48398933Y-66271615D02*
X48341790Y-66157330D01*
X48341790Y-66157330D02*
X48341790Y-65928758D01*
X48341790Y-65928758D02*
X48398933Y-65814473D01*
X48398933Y-65814473D02*
X48513218Y-65700187D01*
X48513218Y-65700187D02*
X48741790Y-65643044D01*
X48741790Y-65643044D02*
X49141790Y-65643044D01*
X49141790Y-65643044D02*
X49370361Y-65700187D01*
X49370361Y-65700187D02*
X49484647Y-65814473D01*
X49484647Y-65814473D02*
X49541790Y-65928758D01*
X48398933Y-66900187D02*
X48341790Y-67014473D01*
X48341790Y-67014473D02*
X48341790Y-67243044D01*
X48341790Y-67243044D02*
X48398933Y-67357330D01*
X48398933Y-67357330D02*
X48513218Y-67414473D01*
X48513218Y-67414473D02*
X48570361Y-67414473D01*
X48570361Y-67414473D02*
X48684647Y-67357330D01*
X48684647Y-67357330D02*
X48741790Y-67243044D01*
X48741790Y-67243044D02*
X48741790Y-67071616D01*
X48741790Y-67071616D02*
X48798933Y-66957330D01*
X48798933Y-66957330D02*
X48913218Y-66900187D01*
X48913218Y-66900187D02*
X48970361Y-66900187D01*
X48970361Y-66900187D02*
X49084647Y-66957330D01*
X49084647Y-66957330D02*
X49141790Y-67071616D01*
X49141790Y-67071616D02*
X49141790Y-67243044D01*
X49141790Y-67243044D02*
X49084647Y-67357330D01*
X48341790Y-67928759D02*
X49141790Y-67928759D01*
X49541790Y-67928759D02*
X49484647Y-67871616D01*
X49484647Y-67871616D02*
X49427504Y-67928759D01*
X49427504Y-67928759D02*
X49484647Y-67985902D01*
X49484647Y-67985902D02*
X49541790Y-67928759D01*
X49541790Y-67928759D02*
X49427504Y-67928759D01*
X49141790Y-68328759D02*
X49141790Y-68785902D01*
X49541790Y-68500188D02*
X48513218Y-68500188D01*
X48513218Y-68500188D02*
X48398933Y-68557331D01*
X48398933Y-68557331D02*
X48341790Y-68671616D01*
X48341790Y-68671616D02*
X48341790Y-68785902D01*
X48341790Y-69185902D02*
X49141790Y-69185902D01*
X49541790Y-69185902D02*
X49484647Y-69128759D01*
X49484647Y-69128759D02*
X49427504Y-69185902D01*
X49427504Y-69185902D02*
X49484647Y-69243045D01*
X49484647Y-69243045D02*
X49541790Y-69185902D01*
X49541790Y-69185902D02*
X49427504Y-69185902D01*
X48398933Y-69700188D02*
X48341790Y-69814474D01*
X48341790Y-69814474D02*
X48341790Y-70043045D01*
X48341790Y-70043045D02*
X48398933Y-70157331D01*
X48398933Y-70157331D02*
X48513218Y-70214474D01*
X48513218Y-70214474D02*
X48570361Y-70214474D01*
X48570361Y-70214474D02*
X48684647Y-70157331D01*
X48684647Y-70157331D02*
X48741790Y-70043045D01*
X48741790Y-70043045D02*
X48741790Y-69871617D01*
X48741790Y-69871617D02*
X48798933Y-69757331D01*
X48798933Y-69757331D02*
X48913218Y-69700188D01*
X48913218Y-69700188D02*
X48970361Y-69700188D01*
X48970361Y-69700188D02*
X49084647Y-69757331D01*
X49084647Y-69757331D02*
X49141790Y-69871617D01*
X49141790Y-69871617D02*
X49141790Y-70043045D01*
X49141790Y-70043045D02*
X49084647Y-70157331D01*
X48684647Y-71585903D02*
X48684647Y-72157332D01*
X48341790Y-71471617D02*
X49541790Y-71871617D01*
X49541790Y-71871617D02*
X48341790Y-72271617D01*
X49427504Y-72614474D02*
X49484647Y-72671617D01*
X49484647Y-72671617D02*
X49541790Y-72785903D01*
X49541790Y-72785903D02*
X49541790Y-73071617D01*
X49541790Y-73071617D02*
X49484647Y-73185903D01*
X49484647Y-73185903D02*
X49427504Y-73243045D01*
X49427504Y-73243045D02*
X49313218Y-73300188D01*
X49313218Y-73300188D02*
X49198933Y-73300188D01*
X49198933Y-73300188D02*
X49027504Y-73243045D01*
X49027504Y-73243045D02*
X48341790Y-72557331D01*
X48341790Y-72557331D02*
X48341790Y-73300188D01*
X48798933Y-73814474D02*
X48798933Y-74728760D01*
X49541790Y-75814474D02*
X49541790Y-75585902D01*
X49541790Y-75585902D02*
X49484647Y-75471616D01*
X49484647Y-75471616D02*
X49427504Y-75414474D01*
X49427504Y-75414474D02*
X49256075Y-75300188D01*
X49256075Y-75300188D02*
X49027504Y-75243045D01*
X49027504Y-75243045D02*
X48570361Y-75243045D01*
X48570361Y-75243045D02*
X48456075Y-75300188D01*
X48456075Y-75300188D02*
X48398933Y-75357331D01*
X48398933Y-75357331D02*
X48341790Y-75471616D01*
X48341790Y-75471616D02*
X48341790Y-75700188D01*
X48341790Y-75700188D02*
X48398933Y-75814474D01*
X48398933Y-75814474D02*
X48456075Y-75871616D01*
X48456075Y-75871616D02*
X48570361Y-75928759D01*
X48570361Y-75928759D02*
X48856075Y-75928759D01*
X48856075Y-75928759D02*
X48970361Y-75871616D01*
X48970361Y-75871616D02*
X49027504Y-75814474D01*
X49027504Y-75814474D02*
X49084647Y-75700188D01*
X49084647Y-75700188D02*
X49084647Y-75471616D01*
X49084647Y-75471616D02*
X49027504Y-75357331D01*
X49027504Y-75357331D02*
X48970361Y-75300188D01*
X48970361Y-75300188D02*
X48856075Y-75243045D01*
X49541790Y-77014473D02*
X49541790Y-76443045D01*
X49541790Y-76443045D02*
X48970361Y-76385902D01*
X48970361Y-76385902D02*
X49027504Y-76443045D01*
X49027504Y-76443045D02*
X49084647Y-76557331D01*
X49084647Y-76557331D02*
X49084647Y-76843045D01*
X49084647Y-76843045D02*
X49027504Y-76957331D01*
X49027504Y-76957331D02*
X48970361Y-77014473D01*
X48970361Y-77014473D02*
X48856075Y-77071616D01*
X48856075Y-77071616D02*
X48570361Y-77071616D01*
X48570361Y-77071616D02*
X48456075Y-77014473D01*
X48456075Y-77014473D02*
X48398933Y-76957331D01*
X48398933Y-76957331D02*
X48341790Y-76843045D01*
X48341790Y-76843045D02*
X48341790Y-76557331D01*
X48341790Y-76557331D02*
X48398933Y-76443045D01*
X48398933Y-76443045D02*
X48456075Y-76385902D01*
X49541790Y-77814473D02*
X49541790Y-77928759D01*
X49541790Y-77928759D02*
X49484647Y-78043045D01*
X49484647Y-78043045D02*
X49427504Y-78100188D01*
X49427504Y-78100188D02*
X49313218Y-78157330D01*
X49313218Y-78157330D02*
X49084647Y-78214473D01*
X49084647Y-78214473D02*
X48798933Y-78214473D01*
X48798933Y-78214473D02*
X48570361Y-78157330D01*
X48570361Y-78157330D02*
X48456075Y-78100188D01*
X48456075Y-78100188D02*
X48398933Y-78043045D01*
X48398933Y-78043045D02*
X48341790Y-77928759D01*
X48341790Y-77928759D02*
X48341790Y-77814473D01*
X48341790Y-77814473D02*
X48398933Y-77700188D01*
X48398933Y-77700188D02*
X48456075Y-77643045D01*
X48456075Y-77643045D02*
X48570361Y-77585902D01*
X48570361Y-77585902D02*
X48798933Y-77528759D01*
X48798933Y-77528759D02*
X49084647Y-77528759D01*
X49084647Y-77528759D02*
X49313218Y-77585902D01*
X49313218Y-77585902D02*
X49427504Y-77643045D01*
X49427504Y-77643045D02*
X49484647Y-77700188D01*
X49484647Y-77700188D02*
X49541790Y-77814473D01*
X49427504Y-78671616D02*
X49484647Y-78728759D01*
X49484647Y-78728759D02*
X49541790Y-78843045D01*
X49541790Y-78843045D02*
X49541790Y-79128759D01*
X49541790Y-79128759D02*
X49484647Y-79243045D01*
X49484647Y-79243045D02*
X49427504Y-79300187D01*
X49427504Y-79300187D02*
X49313218Y-79357330D01*
X49313218Y-79357330D02*
X49198933Y-79357330D01*
X49198933Y-79357330D02*
X49027504Y-79300187D01*
X49027504Y-79300187D02*
X48341790Y-78614473D01*
X48341790Y-78614473D02*
X48341790Y-79357330D01*
X46409857Y-66271615D02*
X46409857Y-65700187D01*
X46409857Y-65700187D02*
X47609857Y-65700187D01*
X46409857Y-66843044D02*
X46467000Y-66728759D01*
X46467000Y-66728759D02*
X46524142Y-66671616D01*
X46524142Y-66671616D02*
X46638428Y-66614473D01*
X46638428Y-66614473D02*
X46981285Y-66614473D01*
X46981285Y-66614473D02*
X47095571Y-66671616D01*
X47095571Y-66671616D02*
X47152714Y-66728759D01*
X47152714Y-66728759D02*
X47209857Y-66843044D01*
X47209857Y-66843044D02*
X47209857Y-67014473D01*
X47209857Y-67014473D02*
X47152714Y-67128759D01*
X47152714Y-67128759D02*
X47095571Y-67185902D01*
X47095571Y-67185902D02*
X46981285Y-67243044D01*
X46981285Y-67243044D02*
X46638428Y-67243044D01*
X46638428Y-67243044D02*
X46524142Y-67185902D01*
X46524142Y-67185902D02*
X46467000Y-67128759D01*
X46467000Y-67128759D02*
X46409857Y-67014473D01*
X46409857Y-67014473D02*
X46409857Y-66843044D01*
X47209857Y-68271616D02*
X46238428Y-68271616D01*
X46238428Y-68271616D02*
X46124142Y-68214473D01*
X46124142Y-68214473D02*
X46067000Y-68157330D01*
X46067000Y-68157330D02*
X46009857Y-68043044D01*
X46009857Y-68043044D02*
X46009857Y-67871616D01*
X46009857Y-67871616D02*
X46067000Y-67757330D01*
X46467000Y-68271616D02*
X46409857Y-68157330D01*
X46409857Y-68157330D02*
X46409857Y-67928758D01*
X46409857Y-67928758D02*
X46467000Y-67814473D01*
X46467000Y-67814473D02*
X46524142Y-67757330D01*
X46524142Y-67757330D02*
X46638428Y-67700187D01*
X46638428Y-67700187D02*
X46981285Y-67700187D01*
X46981285Y-67700187D02*
X47095571Y-67757330D01*
X47095571Y-67757330D02*
X47152714Y-67814473D01*
X47152714Y-67814473D02*
X47209857Y-67928758D01*
X47209857Y-67928758D02*
X47209857Y-68157330D01*
X47209857Y-68157330D02*
X47152714Y-68271616D01*
X46409857Y-68843044D02*
X47209857Y-68843044D01*
X47609857Y-68843044D02*
X47552714Y-68785901D01*
X47552714Y-68785901D02*
X47495571Y-68843044D01*
X47495571Y-68843044D02*
X47552714Y-68900187D01*
X47552714Y-68900187D02*
X47609857Y-68843044D01*
X47609857Y-68843044D02*
X47495571Y-68843044D01*
X46467000Y-69928759D02*
X46409857Y-69814473D01*
X46409857Y-69814473D02*
X46409857Y-69585901D01*
X46409857Y-69585901D02*
X46467000Y-69471616D01*
X46467000Y-69471616D02*
X46524142Y-69414473D01*
X46524142Y-69414473D02*
X46638428Y-69357330D01*
X46638428Y-69357330D02*
X46981285Y-69357330D01*
X46981285Y-69357330D02*
X47095571Y-69414473D01*
X47095571Y-69414473D02*
X47152714Y-69471616D01*
X47152714Y-69471616D02*
X47209857Y-69585901D01*
X47209857Y-69585901D02*
X47209857Y-69814473D01*
X47209857Y-69814473D02*
X47152714Y-69928759D01*
X46752714Y-71300187D02*
X46752714Y-71871616D01*
X46409857Y-71185901D02*
X47609857Y-71585901D01*
X47609857Y-71585901D02*
X46409857Y-71985901D01*
X47209857Y-72385901D02*
X46409857Y-72385901D01*
X47095571Y-72385901D02*
X47152714Y-72443044D01*
X47152714Y-72443044D02*
X47209857Y-72557329D01*
X47209857Y-72557329D02*
X47209857Y-72728758D01*
X47209857Y-72728758D02*
X47152714Y-72843044D01*
X47152714Y-72843044D02*
X47038428Y-72900187D01*
X47038428Y-72900187D02*
X46409857Y-72900187D01*
X46409857Y-73985901D02*
X47038428Y-73985901D01*
X47038428Y-73985901D02*
X47152714Y-73928758D01*
X47152714Y-73928758D02*
X47209857Y-73814472D01*
X47209857Y-73814472D02*
X47209857Y-73585901D01*
X47209857Y-73585901D02*
X47152714Y-73471615D01*
X46467000Y-73985901D02*
X46409857Y-73871615D01*
X46409857Y-73871615D02*
X46409857Y-73585901D01*
X46409857Y-73585901D02*
X46467000Y-73471615D01*
X46467000Y-73471615D02*
X46581285Y-73414472D01*
X46581285Y-73414472D02*
X46695571Y-73414472D01*
X46695571Y-73414472D02*
X46809857Y-73471615D01*
X46809857Y-73471615D02*
X46867000Y-73585901D01*
X46867000Y-73585901D02*
X46867000Y-73871615D01*
X46867000Y-73871615D02*
X46924142Y-73985901D01*
X46409857Y-74728757D02*
X46467000Y-74614472D01*
X46467000Y-74614472D02*
X46581285Y-74557329D01*
X46581285Y-74557329D02*
X47609857Y-74557329D01*
X47209857Y-75071614D02*
X46409857Y-75357328D01*
X47209857Y-75643043D02*
X46409857Y-75357328D01*
X46409857Y-75357328D02*
X46124142Y-75243043D01*
X46124142Y-75243043D02*
X46067000Y-75185900D01*
X46067000Y-75185900D02*
X46009857Y-75071614D01*
X47209857Y-75985900D02*
X47209857Y-76614472D01*
X47209857Y-76614472D02*
X46409857Y-75985900D01*
X46409857Y-75985900D02*
X46409857Y-76614472D01*
X46467000Y-77528758D02*
X46409857Y-77414472D01*
X46409857Y-77414472D02*
X46409857Y-77185901D01*
X46409857Y-77185901D02*
X46467000Y-77071615D01*
X46467000Y-77071615D02*
X46581285Y-77014472D01*
X46581285Y-77014472D02*
X47038428Y-77014472D01*
X47038428Y-77014472D02*
X47152714Y-77071615D01*
X47152714Y-77071615D02*
X47209857Y-77185901D01*
X47209857Y-77185901D02*
X47209857Y-77414472D01*
X47209857Y-77414472D02*
X47152714Y-77528758D01*
X47152714Y-77528758D02*
X47038428Y-77585901D01*
X47038428Y-77585901D02*
X46924142Y-77585901D01*
X46924142Y-77585901D02*
X46809857Y-77014472D01*
X46409857Y-78100186D02*
X47209857Y-78100186D01*
X46981285Y-78100186D02*
X47095571Y-78157329D01*
X47095571Y-78157329D02*
X47152714Y-78214472D01*
X47152714Y-78214472D02*
X47209857Y-78328757D01*
X47209857Y-78328757D02*
X47209857Y-78443043D01*
D10*
X74911027Y-38467657D02*
X74934836Y-38420038D01*
X74934836Y-38420038D02*
X74982455Y-38372419D01*
X74982455Y-38372419D02*
X75101503Y-38372419D01*
X75101503Y-38372419D02*
X75149122Y-38420038D01*
X75149122Y-38420038D02*
X75172931Y-38467657D01*
X75172931Y-38467657D02*
X75196741Y-38562895D01*
X75196741Y-38562895D02*
X75196741Y-38658133D01*
X75196741Y-38658133D02*
X75172931Y-38800990D01*
X75172931Y-38800990D02*
X74887217Y-39372419D01*
X74887217Y-39372419D02*
X75196741Y-39372419D01*
X75411026Y-39277180D02*
X75434836Y-39324800D01*
X75434836Y-39324800D02*
X75411026Y-39372419D01*
X75411026Y-39372419D02*
X75387217Y-39324800D01*
X75387217Y-39324800D02*
X75411026Y-39277180D01*
X75411026Y-39277180D02*
X75411026Y-39372419D01*
X75911026Y-39372419D02*
X75625312Y-39372419D01*
X75768169Y-39372419D02*
X75768169Y-38372419D01*
X75768169Y-38372419D02*
X75720550Y-38515276D01*
X75720550Y-38515276D02*
X75672931Y-38610514D01*
X75672931Y-38610514D02*
X75625312Y-38658133D01*
X76077692Y-38372419D02*
X76387216Y-38372419D01*
X76387216Y-38372419D02*
X76220549Y-38753371D01*
X76220549Y-38753371D02*
X76291978Y-38753371D01*
X76291978Y-38753371D02*
X76339597Y-38800990D01*
X76339597Y-38800990D02*
X76363406Y-38848609D01*
X76363406Y-38848609D02*
X76387216Y-38943847D01*
X76387216Y-38943847D02*
X76387216Y-39181942D01*
X76387216Y-39181942D02*
X76363406Y-39277180D01*
X76363406Y-39277180D02*
X76339597Y-39324800D01*
X76339597Y-39324800D02*
X76291978Y-39372419D01*
X76291978Y-39372419D02*
X76149121Y-39372419D01*
X76149121Y-39372419D02*
X76101502Y-39324800D01*
X76101502Y-39324800D02*
X76077692Y-39277180D01*
X59911027Y-38467657D02*
X59934836Y-38420038D01*
X59934836Y-38420038D02*
X59982455Y-38372419D01*
X59982455Y-38372419D02*
X60101503Y-38372419D01*
X60101503Y-38372419D02*
X60149122Y-38420038D01*
X60149122Y-38420038D02*
X60172931Y-38467657D01*
X60172931Y-38467657D02*
X60196741Y-38562895D01*
X60196741Y-38562895D02*
X60196741Y-38658133D01*
X60196741Y-38658133D02*
X60172931Y-38800990D01*
X60172931Y-38800990D02*
X59887217Y-39372419D01*
X59887217Y-39372419D02*
X60196741Y-39372419D01*
X60411026Y-39277180D02*
X60434836Y-39324800D01*
X60434836Y-39324800D02*
X60411026Y-39372419D01*
X60411026Y-39372419D02*
X60387217Y-39324800D01*
X60387217Y-39324800D02*
X60411026Y-39277180D01*
X60411026Y-39277180D02*
X60411026Y-39372419D01*
X60911026Y-39372419D02*
X60625312Y-39372419D01*
X60768169Y-39372419D02*
X60768169Y-38372419D01*
X60768169Y-38372419D02*
X60720550Y-38515276D01*
X60720550Y-38515276D02*
X60672931Y-38610514D01*
X60672931Y-38610514D02*
X60625312Y-38658133D01*
X61149121Y-39372419D02*
X61244359Y-39372419D01*
X61244359Y-39372419D02*
X61291978Y-39324800D01*
X61291978Y-39324800D02*
X61315787Y-39277180D01*
X61315787Y-39277180D02*
X61363406Y-39134323D01*
X61363406Y-39134323D02*
X61387216Y-38943847D01*
X61387216Y-38943847D02*
X61387216Y-38562895D01*
X61387216Y-38562895D02*
X61363406Y-38467657D01*
X61363406Y-38467657D02*
X61339597Y-38420038D01*
X61339597Y-38420038D02*
X61291978Y-38372419D01*
X61291978Y-38372419D02*
X61196740Y-38372419D01*
X61196740Y-38372419D02*
X61149121Y-38420038D01*
X61149121Y-38420038D02*
X61125311Y-38467657D01*
X61125311Y-38467657D02*
X61101502Y-38562895D01*
X61101502Y-38562895D02*
X61101502Y-38800990D01*
X61101502Y-38800990D02*
X61125311Y-38896228D01*
X61125311Y-38896228D02*
X61149121Y-38943847D01*
X61149121Y-38943847D02*
X61196740Y-38991466D01*
X61196740Y-38991466D02*
X61291978Y-38991466D01*
X61291978Y-38991466D02*
X61339597Y-38943847D01*
X61339597Y-38943847D02*
X61363406Y-38896228D01*
X61363406Y-38896228D02*
X61387216Y-38800990D01*
X62661027Y-51086704D02*
X62899122Y-51086704D01*
X62613408Y-51372419D02*
X62780074Y-50372419D01*
X62780074Y-50372419D02*
X62946741Y-51372419D01*
X63065788Y-50372419D02*
X63375312Y-50372419D01*
X63375312Y-50372419D02*
X63208645Y-50753371D01*
X63208645Y-50753371D02*
X63280074Y-50753371D01*
X63280074Y-50753371D02*
X63327693Y-50800990D01*
X63327693Y-50800990D02*
X63351502Y-50848609D01*
X63351502Y-50848609D02*
X63375312Y-50943847D01*
X63375312Y-50943847D02*
X63375312Y-51181942D01*
X63375312Y-51181942D02*
X63351502Y-51277180D01*
X63351502Y-51277180D02*
X63327693Y-51324800D01*
X63327693Y-51324800D02*
X63280074Y-51372419D01*
X63280074Y-51372419D02*
X63137217Y-51372419D01*
X63137217Y-51372419D02*
X63089598Y-51324800D01*
X63089598Y-51324800D02*
X63065788Y-51277180D01*
X104767657Y-74838972D02*
X104720038Y-74815163D01*
X104720038Y-74815163D02*
X104672419Y-74767544D01*
X104672419Y-74767544D02*
X104672419Y-74648496D01*
X104672419Y-74648496D02*
X104720038Y-74600877D01*
X104720038Y-74600877D02*
X104767657Y-74577068D01*
X104767657Y-74577068D02*
X104862895Y-74553258D01*
X104862895Y-74553258D02*
X104958133Y-74553258D01*
X104958133Y-74553258D02*
X105100990Y-74577068D01*
X105100990Y-74577068D02*
X105672419Y-74862782D01*
X105672419Y-74862782D02*
X105672419Y-74553258D01*
X105577180Y-74338973D02*
X105624800Y-74315163D01*
X105624800Y-74315163D02*
X105672419Y-74338973D01*
X105672419Y-74338973D02*
X105624800Y-74362782D01*
X105624800Y-74362782D02*
X105577180Y-74338973D01*
X105577180Y-74338973D02*
X105672419Y-74338973D01*
X105672419Y-73838973D02*
X105672419Y-74124687D01*
X105672419Y-73981830D02*
X104672419Y-73981830D01*
X104672419Y-73981830D02*
X104815276Y-74029449D01*
X104815276Y-74029449D02*
X104910514Y-74077068D01*
X104910514Y-74077068D02*
X104958133Y-74124687D01*
X104767657Y-73648497D02*
X104720038Y-73624688D01*
X104720038Y-73624688D02*
X104672419Y-73577069D01*
X104672419Y-73577069D02*
X104672419Y-73458021D01*
X104672419Y-73458021D02*
X104720038Y-73410402D01*
X104720038Y-73410402D02*
X104767657Y-73386593D01*
X104767657Y-73386593D02*
X104862895Y-73362783D01*
X104862895Y-73362783D02*
X104958133Y-73362783D01*
X104958133Y-73362783D02*
X105100990Y-73386593D01*
X105100990Y-73386593D02*
X105672419Y-73672307D01*
X105672419Y-73672307D02*
X105672419Y-73362783D01*
X54661027Y-47586704D02*
X54899122Y-47586704D01*
X54613408Y-47872419D02*
X54780074Y-46872419D01*
X54780074Y-46872419D02*
X54946741Y-47872419D01*
X55375312Y-47872419D02*
X55089598Y-47872419D01*
X55232455Y-47872419D02*
X55232455Y-46872419D01*
X55232455Y-46872419D02*
X55184836Y-47015276D01*
X55184836Y-47015276D02*
X55137217Y-47110514D01*
X55137217Y-47110514D02*
X55089598Y-47158133D01*
X55851502Y-47872419D02*
X55565788Y-47872419D01*
X55708645Y-47872419D02*
X55708645Y-46872419D01*
X55708645Y-46872419D02*
X55661026Y-47015276D01*
X55661026Y-47015276D02*
X55613407Y-47110514D01*
X55613407Y-47110514D02*
X55565788Y-47158133D01*
X72934836Y-59622419D02*
X72934836Y-58622419D01*
X72934836Y-58622419D02*
X73053884Y-58622419D01*
X73053884Y-58622419D02*
X73125312Y-58670038D01*
X73125312Y-58670038D02*
X73172931Y-58765276D01*
X73172931Y-58765276D02*
X73196741Y-58860514D01*
X73196741Y-58860514D02*
X73220550Y-59050990D01*
X73220550Y-59050990D02*
X73220550Y-59193847D01*
X73220550Y-59193847D02*
X73196741Y-59384323D01*
X73196741Y-59384323D02*
X73172931Y-59479561D01*
X73172931Y-59479561D02*
X73125312Y-59574800D01*
X73125312Y-59574800D02*
X73053884Y-59622419D01*
X73053884Y-59622419D02*
X72934836Y-59622419D01*
X73649122Y-58955752D02*
X73649122Y-59622419D01*
X73530074Y-58574800D02*
X73411027Y-59289085D01*
X73411027Y-59289085D02*
X73720550Y-59289085D01*
X49661027Y-38467657D02*
X49684836Y-38420038D01*
X49684836Y-38420038D02*
X49732455Y-38372419D01*
X49732455Y-38372419D02*
X49851503Y-38372419D01*
X49851503Y-38372419D02*
X49899122Y-38420038D01*
X49899122Y-38420038D02*
X49922931Y-38467657D01*
X49922931Y-38467657D02*
X49946741Y-38562895D01*
X49946741Y-38562895D02*
X49946741Y-38658133D01*
X49946741Y-38658133D02*
X49922931Y-38800990D01*
X49922931Y-38800990D02*
X49637217Y-39372419D01*
X49637217Y-39372419D02*
X49946741Y-39372419D01*
X50161026Y-39277180D02*
X50184836Y-39324800D01*
X50184836Y-39324800D02*
X50161026Y-39372419D01*
X50161026Y-39372419D02*
X50137217Y-39324800D01*
X50137217Y-39324800D02*
X50161026Y-39277180D01*
X50161026Y-39277180D02*
X50161026Y-39372419D01*
X50375312Y-38467657D02*
X50399121Y-38420038D01*
X50399121Y-38420038D02*
X50446740Y-38372419D01*
X50446740Y-38372419D02*
X50565788Y-38372419D01*
X50565788Y-38372419D02*
X50613407Y-38420038D01*
X50613407Y-38420038D02*
X50637216Y-38467657D01*
X50637216Y-38467657D02*
X50661026Y-38562895D01*
X50661026Y-38562895D02*
X50661026Y-38658133D01*
X50661026Y-38658133D02*
X50637216Y-38800990D01*
X50637216Y-38800990D02*
X50351502Y-39372419D01*
X50351502Y-39372419D02*
X50661026Y-39372419D01*
X50827692Y-38372419D02*
X51137216Y-38372419D01*
X51137216Y-38372419D02*
X50970549Y-38753371D01*
X50970549Y-38753371D02*
X51041978Y-38753371D01*
X51041978Y-38753371D02*
X51089597Y-38800990D01*
X51089597Y-38800990D02*
X51113406Y-38848609D01*
X51113406Y-38848609D02*
X51137216Y-38943847D01*
X51137216Y-38943847D02*
X51137216Y-39181942D01*
X51137216Y-39181942D02*
X51113406Y-39277180D01*
X51113406Y-39277180D02*
X51089597Y-39324800D01*
X51089597Y-39324800D02*
X51041978Y-39372419D01*
X51041978Y-39372419D02*
X50899121Y-39372419D01*
X50899121Y-39372419D02*
X50851502Y-39324800D01*
X50851502Y-39324800D02*
X50827692Y-39277180D01*
X54911027Y-51086704D02*
X55149122Y-51086704D01*
X54863408Y-51372419D02*
X55030074Y-50372419D01*
X55030074Y-50372419D02*
X55196741Y-51372419D01*
X55577693Y-50372419D02*
X55482455Y-50372419D01*
X55482455Y-50372419D02*
X55434836Y-50420038D01*
X55434836Y-50420038D02*
X55411026Y-50467657D01*
X55411026Y-50467657D02*
X55363407Y-50610514D01*
X55363407Y-50610514D02*
X55339598Y-50800990D01*
X55339598Y-50800990D02*
X55339598Y-51181942D01*
X55339598Y-51181942D02*
X55363407Y-51277180D01*
X55363407Y-51277180D02*
X55387217Y-51324800D01*
X55387217Y-51324800D02*
X55434836Y-51372419D01*
X55434836Y-51372419D02*
X55530074Y-51372419D01*
X55530074Y-51372419D02*
X55577693Y-51324800D01*
X55577693Y-51324800D02*
X55601502Y-51277180D01*
X55601502Y-51277180D02*
X55625312Y-51181942D01*
X55625312Y-51181942D02*
X55625312Y-50943847D01*
X55625312Y-50943847D02*
X55601502Y-50848609D01*
X55601502Y-50848609D02*
X55577693Y-50800990D01*
X55577693Y-50800990D02*
X55530074Y-50753371D01*
X55530074Y-50753371D02*
X55434836Y-50753371D01*
X55434836Y-50753371D02*
X55387217Y-50800990D01*
X55387217Y-50800990D02*
X55363407Y-50848609D01*
X55363407Y-50848609D02*
X55339598Y-50943847D01*
X102967657Y-69838972D02*
X102920038Y-69815163D01*
X102920038Y-69815163D02*
X102872419Y-69767544D01*
X102872419Y-69767544D02*
X102872419Y-69648496D01*
X102872419Y-69648496D02*
X102920038Y-69600877D01*
X102920038Y-69600877D02*
X102967657Y-69577068D01*
X102967657Y-69577068D02*
X103062895Y-69553258D01*
X103062895Y-69553258D02*
X103158133Y-69553258D01*
X103158133Y-69553258D02*
X103300990Y-69577068D01*
X103300990Y-69577068D02*
X103872419Y-69862782D01*
X103872419Y-69862782D02*
X103872419Y-69553258D01*
X103777180Y-69338973D02*
X103824800Y-69315163D01*
X103824800Y-69315163D02*
X103872419Y-69338973D01*
X103872419Y-69338973D02*
X103824800Y-69362782D01*
X103824800Y-69362782D02*
X103777180Y-69338973D01*
X103777180Y-69338973D02*
X103872419Y-69338973D01*
X103872419Y-68838973D02*
X103872419Y-69124687D01*
X103872419Y-68981830D02*
X102872419Y-68981830D01*
X102872419Y-68981830D02*
X103015276Y-69029449D01*
X103015276Y-69029449D02*
X103110514Y-69077068D01*
X103110514Y-69077068D02*
X103158133Y-69124687D01*
X102872419Y-68386593D02*
X102872419Y-68624688D01*
X102872419Y-68624688D02*
X103348609Y-68648497D01*
X103348609Y-68648497D02*
X103300990Y-68624688D01*
X103300990Y-68624688D02*
X103253371Y-68577069D01*
X103253371Y-68577069D02*
X103253371Y-68458021D01*
X103253371Y-68458021D02*
X103300990Y-68410402D01*
X103300990Y-68410402D02*
X103348609Y-68386593D01*
X103348609Y-68386593D02*
X103443847Y-68362783D01*
X103443847Y-68362783D02*
X103681942Y-68362783D01*
X103681942Y-68362783D02*
X103777180Y-68386593D01*
X103777180Y-68386593D02*
X103824800Y-68410402D01*
X103824800Y-68410402D02*
X103872419Y-68458021D01*
X103872419Y-68458021D02*
X103872419Y-68577069D01*
X103872419Y-68577069D02*
X103824800Y-68624688D01*
X103824800Y-68624688D02*
X103777180Y-68648497D01*
X72684836Y-51372419D02*
X72684836Y-50372419D01*
X72684836Y-50372419D02*
X72803884Y-50372419D01*
X72803884Y-50372419D02*
X72875312Y-50420038D01*
X72875312Y-50420038D02*
X72922931Y-50515276D01*
X72922931Y-50515276D02*
X72946741Y-50610514D01*
X72946741Y-50610514D02*
X72970550Y-50800990D01*
X72970550Y-50800990D02*
X72970550Y-50943847D01*
X72970550Y-50943847D02*
X72946741Y-51134323D01*
X72946741Y-51134323D02*
X72922931Y-51229561D01*
X72922931Y-51229561D02*
X72875312Y-51324800D01*
X72875312Y-51324800D02*
X72803884Y-51372419D01*
X72803884Y-51372419D02*
X72684836Y-51372419D01*
X73137217Y-50372419D02*
X73470550Y-50372419D01*
X73470550Y-50372419D02*
X73256265Y-51372419D01*
X102967657Y-67088972D02*
X102920038Y-67065163D01*
X102920038Y-67065163D02*
X102872419Y-67017544D01*
X102872419Y-67017544D02*
X102872419Y-66898496D01*
X102872419Y-66898496D02*
X102920038Y-66850877D01*
X102920038Y-66850877D02*
X102967657Y-66827068D01*
X102967657Y-66827068D02*
X103062895Y-66803258D01*
X103062895Y-66803258D02*
X103158133Y-66803258D01*
X103158133Y-66803258D02*
X103300990Y-66827068D01*
X103300990Y-66827068D02*
X103872419Y-67112782D01*
X103872419Y-67112782D02*
X103872419Y-66803258D01*
X103777180Y-66588973D02*
X103824800Y-66565163D01*
X103824800Y-66565163D02*
X103872419Y-66588973D01*
X103872419Y-66588973D02*
X103824800Y-66612782D01*
X103824800Y-66612782D02*
X103777180Y-66588973D01*
X103777180Y-66588973D02*
X103872419Y-66588973D01*
X103872419Y-66088973D02*
X103872419Y-66374687D01*
X103872419Y-66231830D02*
X102872419Y-66231830D01*
X102872419Y-66231830D02*
X103015276Y-66279449D01*
X103015276Y-66279449D02*
X103110514Y-66327068D01*
X103110514Y-66327068D02*
X103158133Y-66374687D01*
X102872419Y-65922307D02*
X102872419Y-65588974D01*
X102872419Y-65588974D02*
X103872419Y-65803259D01*
X67684836Y-59622419D02*
X67684836Y-58622419D01*
X67684836Y-58622419D02*
X67803884Y-58622419D01*
X67803884Y-58622419D02*
X67875312Y-58670038D01*
X67875312Y-58670038D02*
X67922931Y-58765276D01*
X67922931Y-58765276D02*
X67946741Y-58860514D01*
X67946741Y-58860514D02*
X67970550Y-59050990D01*
X67970550Y-59050990D02*
X67970550Y-59193847D01*
X67970550Y-59193847D02*
X67946741Y-59384323D01*
X67946741Y-59384323D02*
X67922931Y-59479561D01*
X67922931Y-59479561D02*
X67875312Y-59574800D01*
X67875312Y-59574800D02*
X67803884Y-59622419D01*
X67803884Y-59622419D02*
X67684836Y-59622419D01*
X68161027Y-58717657D02*
X68184836Y-58670038D01*
X68184836Y-58670038D02*
X68232455Y-58622419D01*
X68232455Y-58622419D02*
X68351503Y-58622419D01*
X68351503Y-58622419D02*
X68399122Y-58670038D01*
X68399122Y-58670038D02*
X68422931Y-58717657D01*
X68422931Y-58717657D02*
X68446741Y-58812895D01*
X68446741Y-58812895D02*
X68446741Y-58908133D01*
X68446741Y-58908133D02*
X68422931Y-59050990D01*
X68422931Y-59050990D02*
X68137217Y-59622419D01*
X68137217Y-59622419D02*
X68446741Y-59622419D01*
X49946741Y-51372419D02*
X49661027Y-51372419D01*
X49803884Y-51372419D02*
X49803884Y-50372419D01*
X49803884Y-50372419D02*
X49756265Y-50515276D01*
X49756265Y-50515276D02*
X49708646Y-50610514D01*
X49708646Y-50610514D02*
X49661027Y-50658133D01*
X50161026Y-51277180D02*
X50184836Y-51324800D01*
X50184836Y-51324800D02*
X50161026Y-51372419D01*
X50161026Y-51372419D02*
X50137217Y-51324800D01*
X50137217Y-51324800D02*
X50161026Y-51277180D01*
X50161026Y-51277180D02*
X50161026Y-51372419D01*
X50375312Y-50467657D02*
X50399121Y-50420038D01*
X50399121Y-50420038D02*
X50446740Y-50372419D01*
X50446740Y-50372419D02*
X50565788Y-50372419D01*
X50565788Y-50372419D02*
X50613407Y-50420038D01*
X50613407Y-50420038D02*
X50637216Y-50467657D01*
X50637216Y-50467657D02*
X50661026Y-50562895D01*
X50661026Y-50562895D02*
X50661026Y-50658133D01*
X50661026Y-50658133D02*
X50637216Y-50800990D01*
X50637216Y-50800990D02*
X50351502Y-51372419D01*
X50351502Y-51372419D02*
X50661026Y-51372419D01*
X50827692Y-50372419D02*
X51137216Y-50372419D01*
X51137216Y-50372419D02*
X50970549Y-50753371D01*
X50970549Y-50753371D02*
X51041978Y-50753371D01*
X51041978Y-50753371D02*
X51089597Y-50800990D01*
X51089597Y-50800990D02*
X51113406Y-50848609D01*
X51113406Y-50848609D02*
X51137216Y-50943847D01*
X51137216Y-50943847D02*
X51137216Y-51181942D01*
X51137216Y-51181942D02*
X51113406Y-51277180D01*
X51113406Y-51277180D02*
X51089597Y-51324800D01*
X51089597Y-51324800D02*
X51041978Y-51372419D01*
X51041978Y-51372419D02*
X50899121Y-51372419D01*
X50899121Y-51372419D02*
X50851502Y-51324800D01*
X50851502Y-51324800D02*
X50827692Y-51277180D01*
X104767657Y-62088972D02*
X104720038Y-62065163D01*
X104720038Y-62065163D02*
X104672419Y-62017544D01*
X104672419Y-62017544D02*
X104672419Y-61898496D01*
X104672419Y-61898496D02*
X104720038Y-61850877D01*
X104720038Y-61850877D02*
X104767657Y-61827068D01*
X104767657Y-61827068D02*
X104862895Y-61803258D01*
X104862895Y-61803258D02*
X104958133Y-61803258D01*
X104958133Y-61803258D02*
X105100990Y-61827068D01*
X105100990Y-61827068D02*
X105672419Y-62112782D01*
X105672419Y-62112782D02*
X105672419Y-61803258D01*
X105577180Y-61588973D02*
X105624800Y-61565163D01*
X105624800Y-61565163D02*
X105672419Y-61588973D01*
X105672419Y-61588973D02*
X105624800Y-61612782D01*
X105624800Y-61612782D02*
X105577180Y-61588973D01*
X105577180Y-61588973D02*
X105672419Y-61588973D01*
X104767657Y-61374687D02*
X104720038Y-61350878D01*
X104720038Y-61350878D02*
X104672419Y-61303259D01*
X104672419Y-61303259D02*
X104672419Y-61184211D01*
X104672419Y-61184211D02*
X104720038Y-61136592D01*
X104720038Y-61136592D02*
X104767657Y-61112783D01*
X104767657Y-61112783D02*
X104862895Y-61088973D01*
X104862895Y-61088973D02*
X104958133Y-61088973D01*
X104958133Y-61088973D02*
X105100990Y-61112783D01*
X105100990Y-61112783D02*
X105672419Y-61398497D01*
X105672419Y-61398497D02*
X105672419Y-61088973D01*
X104767657Y-60898497D02*
X104720038Y-60874688D01*
X104720038Y-60874688D02*
X104672419Y-60827069D01*
X104672419Y-60827069D02*
X104672419Y-60708021D01*
X104672419Y-60708021D02*
X104720038Y-60660402D01*
X104720038Y-60660402D02*
X104767657Y-60636593D01*
X104767657Y-60636593D02*
X104862895Y-60612783D01*
X104862895Y-60612783D02*
X104958133Y-60612783D01*
X104958133Y-60612783D02*
X105100990Y-60636593D01*
X105100990Y-60636593D02*
X105672419Y-60922307D01*
X105672419Y-60922307D02*
X105672419Y-60612783D01*
X52411027Y-51086704D02*
X52649122Y-51086704D01*
X52363408Y-51372419D02*
X52530074Y-50372419D01*
X52530074Y-50372419D02*
X52696741Y-51372419D01*
X52815788Y-50372419D02*
X53149121Y-50372419D01*
X53149121Y-50372419D02*
X52934836Y-51372419D01*
X89494360Y-57984657D02*
X89494360Y-58713228D01*
X89494360Y-58713228D02*
X89530074Y-58798942D01*
X89530074Y-58798942D02*
X89565789Y-58841800D01*
X89565789Y-58841800D02*
X89637217Y-58884657D01*
X89637217Y-58884657D02*
X89780074Y-58884657D01*
X89780074Y-58884657D02*
X89851503Y-58841800D01*
X89851503Y-58841800D02*
X89887217Y-58798942D01*
X89887217Y-58798942D02*
X89922931Y-58713228D01*
X89922931Y-58713228D02*
X89922931Y-57984657D01*
X90244360Y-58841800D02*
X90351503Y-58884657D01*
X90351503Y-58884657D02*
X90530074Y-58884657D01*
X90530074Y-58884657D02*
X90601503Y-58841800D01*
X90601503Y-58841800D02*
X90637217Y-58798942D01*
X90637217Y-58798942D02*
X90672931Y-58713228D01*
X90672931Y-58713228D02*
X90672931Y-58627514D01*
X90672931Y-58627514D02*
X90637217Y-58541800D01*
X90637217Y-58541800D02*
X90601503Y-58498942D01*
X90601503Y-58498942D02*
X90530074Y-58456085D01*
X90530074Y-58456085D02*
X90387217Y-58413228D01*
X90387217Y-58413228D02*
X90315788Y-58370371D01*
X90315788Y-58370371D02*
X90280074Y-58327514D01*
X90280074Y-58327514D02*
X90244360Y-58241800D01*
X90244360Y-58241800D02*
X90244360Y-58156085D01*
X90244360Y-58156085D02*
X90280074Y-58070371D01*
X90280074Y-58070371D02*
X90315788Y-58027514D01*
X90315788Y-58027514D02*
X90387217Y-57984657D01*
X90387217Y-57984657D02*
X90565788Y-57984657D01*
X90565788Y-57984657D02*
X90672931Y-58027514D01*
X91244360Y-58413228D02*
X91351503Y-58456085D01*
X91351503Y-58456085D02*
X91387217Y-58498942D01*
X91387217Y-58498942D02*
X91422931Y-58584657D01*
X91422931Y-58584657D02*
X91422931Y-58713228D01*
X91422931Y-58713228D02*
X91387217Y-58798942D01*
X91387217Y-58798942D02*
X91351503Y-58841800D01*
X91351503Y-58841800D02*
X91280074Y-58884657D01*
X91280074Y-58884657D02*
X90994360Y-58884657D01*
X90994360Y-58884657D02*
X90994360Y-57984657D01*
X90994360Y-57984657D02*
X91244360Y-57984657D01*
X91244360Y-57984657D02*
X91315789Y-58027514D01*
X91315789Y-58027514D02*
X91351503Y-58070371D01*
X91351503Y-58070371D02*
X91387217Y-58156085D01*
X91387217Y-58156085D02*
X91387217Y-58241800D01*
X91387217Y-58241800D02*
X91351503Y-58327514D01*
X91351503Y-58327514D02*
X91315789Y-58370371D01*
X91315789Y-58370371D02*
X91244360Y-58413228D01*
X91244360Y-58413228D02*
X90994360Y-58413228D01*
X92494360Y-59184657D02*
X92494360Y-57898942D01*
X93530075Y-57984657D02*
X93708647Y-58884657D01*
X93708647Y-58884657D02*
X93851504Y-58241800D01*
X93851504Y-58241800D02*
X93994361Y-58884657D01*
X93994361Y-58884657D02*
X94172933Y-57984657D01*
X94458647Y-58884657D02*
X94458647Y-57984657D01*
X95065790Y-58413228D02*
X94815790Y-58413228D01*
X94815790Y-58884657D02*
X94815790Y-57984657D01*
X94815790Y-57984657D02*
X95172933Y-57984657D01*
X95458647Y-58884657D02*
X95458647Y-57984657D01*
X104767657Y-67038972D02*
X104720038Y-67015163D01*
X104720038Y-67015163D02*
X104672419Y-66967544D01*
X104672419Y-66967544D02*
X104672419Y-66848496D01*
X104672419Y-66848496D02*
X104720038Y-66800877D01*
X104720038Y-66800877D02*
X104767657Y-66777068D01*
X104767657Y-66777068D02*
X104862895Y-66753258D01*
X104862895Y-66753258D02*
X104958133Y-66753258D01*
X104958133Y-66753258D02*
X105100990Y-66777068D01*
X105100990Y-66777068D02*
X105672419Y-67062782D01*
X105672419Y-67062782D02*
X105672419Y-66753258D01*
X105577180Y-66538973D02*
X105624800Y-66515163D01*
X105624800Y-66515163D02*
X105672419Y-66538973D01*
X105672419Y-66538973D02*
X105624800Y-66562782D01*
X105624800Y-66562782D02*
X105577180Y-66538973D01*
X105577180Y-66538973D02*
X105672419Y-66538973D01*
X105672419Y-66038973D02*
X105672419Y-66324687D01*
X105672419Y-66181830D02*
X104672419Y-66181830D01*
X104672419Y-66181830D02*
X104815276Y-66229449D01*
X104815276Y-66229449D02*
X104910514Y-66277068D01*
X104910514Y-66277068D02*
X104958133Y-66324687D01*
X105100990Y-65753259D02*
X105053371Y-65800878D01*
X105053371Y-65800878D02*
X105005752Y-65824688D01*
X105005752Y-65824688D02*
X104910514Y-65848497D01*
X104910514Y-65848497D02*
X104862895Y-65848497D01*
X104862895Y-65848497D02*
X104767657Y-65824688D01*
X104767657Y-65824688D02*
X104720038Y-65800878D01*
X104720038Y-65800878D02*
X104672419Y-65753259D01*
X104672419Y-65753259D02*
X104672419Y-65658021D01*
X104672419Y-65658021D02*
X104720038Y-65610402D01*
X104720038Y-65610402D02*
X104767657Y-65586593D01*
X104767657Y-65586593D02*
X104862895Y-65562783D01*
X104862895Y-65562783D02*
X104910514Y-65562783D01*
X104910514Y-65562783D02*
X105005752Y-65586593D01*
X105005752Y-65586593D02*
X105053371Y-65610402D01*
X105053371Y-65610402D02*
X105100990Y-65658021D01*
X105100990Y-65658021D02*
X105100990Y-65753259D01*
X105100990Y-65753259D02*
X105148609Y-65800878D01*
X105148609Y-65800878D02*
X105196228Y-65824688D01*
X105196228Y-65824688D02*
X105291466Y-65848497D01*
X105291466Y-65848497D02*
X105481942Y-65848497D01*
X105481942Y-65848497D02*
X105577180Y-65824688D01*
X105577180Y-65824688D02*
X105624800Y-65800878D01*
X105624800Y-65800878D02*
X105672419Y-65753259D01*
X105672419Y-65753259D02*
X105672419Y-65658021D01*
X105672419Y-65658021D02*
X105624800Y-65610402D01*
X105624800Y-65610402D02*
X105577180Y-65586593D01*
X105577180Y-65586593D02*
X105481942Y-65562783D01*
X105481942Y-65562783D02*
X105291466Y-65562783D01*
X105291466Y-65562783D02*
X105196228Y-65586593D01*
X105196228Y-65586593D02*
X105148609Y-65610402D01*
X105148609Y-65610402D02*
X105100990Y-65658021D01*
X62684836Y-59622419D02*
X62684836Y-58622419D01*
X62684836Y-58622419D02*
X62803884Y-58622419D01*
X62803884Y-58622419D02*
X62875312Y-58670038D01*
X62875312Y-58670038D02*
X62922931Y-58765276D01*
X62922931Y-58765276D02*
X62946741Y-58860514D01*
X62946741Y-58860514D02*
X62970550Y-59050990D01*
X62970550Y-59050990D02*
X62970550Y-59193847D01*
X62970550Y-59193847D02*
X62946741Y-59384323D01*
X62946741Y-59384323D02*
X62922931Y-59479561D01*
X62922931Y-59479561D02*
X62875312Y-59574800D01*
X62875312Y-59574800D02*
X62803884Y-59622419D01*
X62803884Y-59622419D02*
X62684836Y-59622419D01*
X63280074Y-58622419D02*
X63327693Y-58622419D01*
X63327693Y-58622419D02*
X63375312Y-58670038D01*
X63375312Y-58670038D02*
X63399122Y-58717657D01*
X63399122Y-58717657D02*
X63422931Y-58812895D01*
X63422931Y-58812895D02*
X63446741Y-59003371D01*
X63446741Y-59003371D02*
X63446741Y-59241466D01*
X63446741Y-59241466D02*
X63422931Y-59431942D01*
X63422931Y-59431942D02*
X63399122Y-59527180D01*
X63399122Y-59527180D02*
X63375312Y-59574800D01*
X63375312Y-59574800D02*
X63327693Y-59622419D01*
X63327693Y-59622419D02*
X63280074Y-59622419D01*
X63280074Y-59622419D02*
X63232455Y-59574800D01*
X63232455Y-59574800D02*
X63208646Y-59527180D01*
X63208646Y-59527180D02*
X63184836Y-59431942D01*
X63184836Y-59431942D02*
X63161027Y-59241466D01*
X63161027Y-59241466D02*
X63161027Y-59003371D01*
X63161027Y-59003371D02*
X63184836Y-58812895D01*
X63184836Y-58812895D02*
X63208646Y-58717657D01*
X63208646Y-58717657D02*
X63232455Y-58670038D01*
X63232455Y-58670038D02*
X63280074Y-58622419D01*
X72411027Y-46967657D02*
X72434836Y-46920038D01*
X72434836Y-46920038D02*
X72482455Y-46872419D01*
X72482455Y-46872419D02*
X72601503Y-46872419D01*
X72601503Y-46872419D02*
X72649122Y-46920038D01*
X72649122Y-46920038D02*
X72672931Y-46967657D01*
X72672931Y-46967657D02*
X72696741Y-47062895D01*
X72696741Y-47062895D02*
X72696741Y-47158133D01*
X72696741Y-47158133D02*
X72672931Y-47300990D01*
X72672931Y-47300990D02*
X72387217Y-47872419D01*
X72387217Y-47872419D02*
X72696741Y-47872419D01*
X72911026Y-47777180D02*
X72934836Y-47824800D01*
X72934836Y-47824800D02*
X72911026Y-47872419D01*
X72911026Y-47872419D02*
X72887217Y-47824800D01*
X72887217Y-47824800D02*
X72911026Y-47777180D01*
X72911026Y-47777180D02*
X72911026Y-47872419D01*
X73411026Y-47872419D02*
X73125312Y-47872419D01*
X73268169Y-47872419D02*
X73268169Y-46872419D01*
X73268169Y-46872419D02*
X73220550Y-47015276D01*
X73220550Y-47015276D02*
X73172931Y-47110514D01*
X73172931Y-47110514D02*
X73125312Y-47158133D01*
X73887216Y-47872419D02*
X73601502Y-47872419D01*
X73744359Y-47872419D02*
X73744359Y-46872419D01*
X73744359Y-46872419D02*
X73696740Y-47015276D01*
X73696740Y-47015276D02*
X73649121Y-47110514D01*
X73649121Y-47110514D02*
X73601502Y-47158133D01*
X102967657Y-59588972D02*
X102920038Y-59565163D01*
X102920038Y-59565163D02*
X102872419Y-59517544D01*
X102872419Y-59517544D02*
X102872419Y-59398496D01*
X102872419Y-59398496D02*
X102920038Y-59350877D01*
X102920038Y-59350877D02*
X102967657Y-59327068D01*
X102967657Y-59327068D02*
X103062895Y-59303258D01*
X103062895Y-59303258D02*
X103158133Y-59303258D01*
X103158133Y-59303258D02*
X103300990Y-59327068D01*
X103300990Y-59327068D02*
X103872419Y-59612782D01*
X103872419Y-59612782D02*
X103872419Y-59303258D01*
X103777180Y-59088973D02*
X103824800Y-59065163D01*
X103824800Y-59065163D02*
X103872419Y-59088973D01*
X103872419Y-59088973D02*
X103824800Y-59112782D01*
X103824800Y-59112782D02*
X103777180Y-59088973D01*
X103777180Y-59088973D02*
X103872419Y-59088973D01*
X102967657Y-58874687D02*
X102920038Y-58850878D01*
X102920038Y-58850878D02*
X102872419Y-58803259D01*
X102872419Y-58803259D02*
X102872419Y-58684211D01*
X102872419Y-58684211D02*
X102920038Y-58636592D01*
X102920038Y-58636592D02*
X102967657Y-58612783D01*
X102967657Y-58612783D02*
X103062895Y-58588973D01*
X103062895Y-58588973D02*
X103158133Y-58588973D01*
X103158133Y-58588973D02*
X103300990Y-58612783D01*
X103300990Y-58612783D02*
X103872419Y-58898497D01*
X103872419Y-58898497D02*
X103872419Y-58588973D01*
X102872419Y-58422307D02*
X102872419Y-58112783D01*
X102872419Y-58112783D02*
X103253371Y-58279450D01*
X103253371Y-58279450D02*
X103253371Y-58208021D01*
X103253371Y-58208021D02*
X103300990Y-58160402D01*
X103300990Y-58160402D02*
X103348609Y-58136593D01*
X103348609Y-58136593D02*
X103443847Y-58112783D01*
X103443847Y-58112783D02*
X103681942Y-58112783D01*
X103681942Y-58112783D02*
X103777180Y-58136593D01*
X103777180Y-58136593D02*
X103824800Y-58160402D01*
X103824800Y-58160402D02*
X103872419Y-58208021D01*
X103872419Y-58208021D02*
X103872419Y-58350878D01*
X103872419Y-58350878D02*
X103824800Y-58398497D01*
X103824800Y-58398497D02*
X103777180Y-58422307D01*
X57184836Y-59622419D02*
X57184836Y-58622419D01*
X57184836Y-58622419D02*
X57375312Y-58622419D01*
X57375312Y-58622419D02*
X57422931Y-58670038D01*
X57422931Y-58670038D02*
X57446741Y-58717657D01*
X57446741Y-58717657D02*
X57470550Y-58812895D01*
X57470550Y-58812895D02*
X57470550Y-58955752D01*
X57470550Y-58955752D02*
X57446741Y-59050990D01*
X57446741Y-59050990D02*
X57422931Y-59098609D01*
X57422931Y-59098609D02*
X57375312Y-59146228D01*
X57375312Y-59146228D02*
X57184836Y-59146228D01*
X57684836Y-59622419D02*
X57684836Y-58622419D01*
X57684836Y-59098609D02*
X57970550Y-59098609D01*
X57970550Y-59622419D02*
X57970550Y-58622419D01*
X58303884Y-58622419D02*
X58351503Y-58622419D01*
X58351503Y-58622419D02*
X58399122Y-58670038D01*
X58399122Y-58670038D02*
X58422932Y-58717657D01*
X58422932Y-58717657D02*
X58446741Y-58812895D01*
X58446741Y-58812895D02*
X58470551Y-59003371D01*
X58470551Y-59003371D02*
X58470551Y-59241466D01*
X58470551Y-59241466D02*
X58446741Y-59431942D01*
X58446741Y-59431942D02*
X58422932Y-59527180D01*
X58422932Y-59527180D02*
X58399122Y-59574800D01*
X58399122Y-59574800D02*
X58351503Y-59622419D01*
X58351503Y-59622419D02*
X58303884Y-59622419D01*
X58303884Y-59622419D02*
X58256265Y-59574800D01*
X58256265Y-59574800D02*
X58232456Y-59527180D01*
X58232456Y-59527180D02*
X58208646Y-59431942D01*
X58208646Y-59431942D02*
X58184837Y-59241466D01*
X58184837Y-59241466D02*
X58184837Y-59003371D01*
X58184837Y-59003371D02*
X58208646Y-58812895D01*
X58208646Y-58812895D02*
X58232456Y-58717657D01*
X58232456Y-58717657D02*
X58256265Y-58670038D01*
X58256265Y-58670038D02*
X58303884Y-58622419D01*
X47470550Y-59672419D02*
X47303884Y-59196228D01*
X47184836Y-59672419D02*
X47184836Y-58672419D01*
X47184836Y-58672419D02*
X47375312Y-58672419D01*
X47375312Y-58672419D02*
X47422931Y-58720038D01*
X47422931Y-58720038D02*
X47446741Y-58767657D01*
X47446741Y-58767657D02*
X47470550Y-58862895D01*
X47470550Y-58862895D02*
X47470550Y-59005752D01*
X47470550Y-59005752D02*
X47446741Y-59100990D01*
X47446741Y-59100990D02*
X47422931Y-59148609D01*
X47422931Y-59148609D02*
X47375312Y-59196228D01*
X47375312Y-59196228D02*
X47184836Y-59196228D01*
X47684836Y-59672419D02*
X47684836Y-58672419D01*
X47684836Y-58672419D02*
X47803884Y-58672419D01*
X47803884Y-58672419D02*
X47875312Y-58720038D01*
X47875312Y-58720038D02*
X47922931Y-58815276D01*
X47922931Y-58815276D02*
X47946741Y-58910514D01*
X47946741Y-58910514D02*
X47970550Y-59100990D01*
X47970550Y-59100990D02*
X47970550Y-59243847D01*
X47970550Y-59243847D02*
X47946741Y-59434323D01*
X47946741Y-59434323D02*
X47922931Y-59529561D01*
X47922931Y-59529561D02*
X47875312Y-59624800D01*
X47875312Y-59624800D02*
X47803884Y-59672419D01*
X47803884Y-59672419D02*
X47684836Y-59672419D01*
X48280074Y-59196228D02*
X48280074Y-59672419D01*
X48113408Y-58672419D02*
X48280074Y-59196228D01*
X48280074Y-59196228D02*
X48446741Y-58672419D01*
X104767657Y-77338972D02*
X104720038Y-77315163D01*
X104720038Y-77315163D02*
X104672419Y-77267544D01*
X104672419Y-77267544D02*
X104672419Y-77148496D01*
X104672419Y-77148496D02*
X104720038Y-77100877D01*
X104720038Y-77100877D02*
X104767657Y-77077068D01*
X104767657Y-77077068D02*
X104862895Y-77053258D01*
X104862895Y-77053258D02*
X104958133Y-77053258D01*
X104958133Y-77053258D02*
X105100990Y-77077068D01*
X105100990Y-77077068D02*
X105672419Y-77362782D01*
X105672419Y-77362782D02*
X105672419Y-77053258D01*
X105577180Y-76838973D02*
X105624800Y-76815163D01*
X105624800Y-76815163D02*
X105672419Y-76838973D01*
X105672419Y-76838973D02*
X105624800Y-76862782D01*
X105624800Y-76862782D02*
X105577180Y-76838973D01*
X105577180Y-76838973D02*
X105672419Y-76838973D01*
X105672419Y-76338973D02*
X105672419Y-76624687D01*
X105672419Y-76481830D02*
X104672419Y-76481830D01*
X104672419Y-76481830D02*
X104815276Y-76529449D01*
X104815276Y-76529449D02*
X104910514Y-76577068D01*
X104910514Y-76577068D02*
X104958133Y-76624687D01*
X104672419Y-76029450D02*
X104672419Y-75981831D01*
X104672419Y-75981831D02*
X104720038Y-75934212D01*
X104720038Y-75934212D02*
X104767657Y-75910402D01*
X104767657Y-75910402D02*
X104862895Y-75886593D01*
X104862895Y-75886593D02*
X105053371Y-75862783D01*
X105053371Y-75862783D02*
X105291466Y-75862783D01*
X105291466Y-75862783D02*
X105481942Y-75886593D01*
X105481942Y-75886593D02*
X105577180Y-75910402D01*
X105577180Y-75910402D02*
X105624800Y-75934212D01*
X105624800Y-75934212D02*
X105672419Y-75981831D01*
X105672419Y-75981831D02*
X105672419Y-76029450D01*
X105672419Y-76029450D02*
X105624800Y-76077069D01*
X105624800Y-76077069D02*
X105577180Y-76100878D01*
X105577180Y-76100878D02*
X105481942Y-76124688D01*
X105481942Y-76124688D02*
X105291466Y-76148497D01*
X105291466Y-76148497D02*
X105053371Y-76148497D01*
X105053371Y-76148497D02*
X104862895Y-76124688D01*
X104862895Y-76124688D02*
X104767657Y-76100878D01*
X104767657Y-76100878D02*
X104720038Y-76077069D01*
X104720038Y-76077069D02*
X104672419Y-76029450D01*
X104767657Y-72088972D02*
X104720038Y-72065163D01*
X104720038Y-72065163D02*
X104672419Y-72017544D01*
X104672419Y-72017544D02*
X104672419Y-71898496D01*
X104672419Y-71898496D02*
X104720038Y-71850877D01*
X104720038Y-71850877D02*
X104767657Y-71827068D01*
X104767657Y-71827068D02*
X104862895Y-71803258D01*
X104862895Y-71803258D02*
X104958133Y-71803258D01*
X104958133Y-71803258D02*
X105100990Y-71827068D01*
X105100990Y-71827068D02*
X105672419Y-72112782D01*
X105672419Y-72112782D02*
X105672419Y-71803258D01*
X105577180Y-71588973D02*
X105624800Y-71565163D01*
X105624800Y-71565163D02*
X105672419Y-71588973D01*
X105672419Y-71588973D02*
X105624800Y-71612782D01*
X105624800Y-71612782D02*
X105577180Y-71588973D01*
X105577180Y-71588973D02*
X105672419Y-71588973D01*
X105672419Y-71088973D02*
X105672419Y-71374687D01*
X105672419Y-71231830D02*
X104672419Y-71231830D01*
X104672419Y-71231830D02*
X104815276Y-71279449D01*
X104815276Y-71279449D02*
X104910514Y-71327068D01*
X104910514Y-71327068D02*
X104958133Y-71374687D01*
X105005752Y-70660402D02*
X105672419Y-70660402D01*
X104624800Y-70779450D02*
X105339085Y-70898497D01*
X105339085Y-70898497D02*
X105339085Y-70588974D01*
X105672419Y-79553258D02*
X105672419Y-79838972D01*
X105672419Y-79696115D02*
X104672419Y-79696115D01*
X104672419Y-79696115D02*
X104815276Y-79743734D01*
X104815276Y-79743734D02*
X104910514Y-79791353D01*
X104910514Y-79791353D02*
X104958133Y-79838972D01*
X105577180Y-79338973D02*
X105624800Y-79315163D01*
X105624800Y-79315163D02*
X105672419Y-79338973D01*
X105672419Y-79338973D02*
X105624800Y-79362782D01*
X105624800Y-79362782D02*
X105577180Y-79338973D01*
X105577180Y-79338973D02*
X105672419Y-79338973D01*
X104767657Y-79124687D02*
X104720038Y-79100878D01*
X104720038Y-79100878D02*
X104672419Y-79053259D01*
X104672419Y-79053259D02*
X104672419Y-78934211D01*
X104672419Y-78934211D02*
X104720038Y-78886592D01*
X104720038Y-78886592D02*
X104767657Y-78862783D01*
X104767657Y-78862783D02*
X104862895Y-78838973D01*
X104862895Y-78838973D02*
X104958133Y-78838973D01*
X104958133Y-78838973D02*
X105100990Y-78862783D01*
X105100990Y-78862783D02*
X105672419Y-79148497D01*
X105672419Y-79148497D02*
X105672419Y-78838973D01*
X105005752Y-78410402D02*
X105672419Y-78410402D01*
X104624800Y-78529450D02*
X105339085Y-78648497D01*
X105339085Y-78648497D02*
X105339085Y-78338974D01*
X70161027Y-51086704D02*
X70399122Y-51086704D01*
X70113408Y-51372419D02*
X70280074Y-50372419D01*
X70280074Y-50372419D02*
X70446741Y-51372419D01*
X70708645Y-50372419D02*
X70756264Y-50372419D01*
X70756264Y-50372419D02*
X70803883Y-50420038D01*
X70803883Y-50420038D02*
X70827693Y-50467657D01*
X70827693Y-50467657D02*
X70851502Y-50562895D01*
X70851502Y-50562895D02*
X70875312Y-50753371D01*
X70875312Y-50753371D02*
X70875312Y-50991466D01*
X70875312Y-50991466D02*
X70851502Y-51181942D01*
X70851502Y-51181942D02*
X70827693Y-51277180D01*
X70827693Y-51277180D02*
X70803883Y-51324800D01*
X70803883Y-51324800D02*
X70756264Y-51372419D01*
X70756264Y-51372419D02*
X70708645Y-51372419D01*
X70708645Y-51372419D02*
X70661026Y-51324800D01*
X70661026Y-51324800D02*
X70637217Y-51277180D01*
X70637217Y-51277180D02*
X70613407Y-51181942D01*
X70613407Y-51181942D02*
X70589598Y-50991466D01*
X70589598Y-50991466D02*
X70589598Y-50753371D01*
X70589598Y-50753371D02*
X70613407Y-50562895D01*
X70613407Y-50562895D02*
X70637217Y-50467657D01*
X70637217Y-50467657D02*
X70661026Y-50420038D01*
X70661026Y-50420038D02*
X70708645Y-50372419D01*
X65184836Y-59622419D02*
X65184836Y-58622419D01*
X65184836Y-58622419D02*
X65303884Y-58622419D01*
X65303884Y-58622419D02*
X65375312Y-58670038D01*
X65375312Y-58670038D02*
X65422931Y-58765276D01*
X65422931Y-58765276D02*
X65446741Y-58860514D01*
X65446741Y-58860514D02*
X65470550Y-59050990D01*
X65470550Y-59050990D02*
X65470550Y-59193847D01*
X65470550Y-59193847D02*
X65446741Y-59384323D01*
X65446741Y-59384323D02*
X65422931Y-59479561D01*
X65422931Y-59479561D02*
X65375312Y-59574800D01*
X65375312Y-59574800D02*
X65303884Y-59622419D01*
X65303884Y-59622419D02*
X65184836Y-59622419D01*
X65946741Y-59622419D02*
X65661027Y-59622419D01*
X65803884Y-59622419D02*
X65803884Y-58622419D01*
X65803884Y-58622419D02*
X65756265Y-58765276D01*
X65756265Y-58765276D02*
X65708646Y-58860514D01*
X65708646Y-58860514D02*
X65661027Y-58908133D01*
X52161027Y-38467657D02*
X52184836Y-38420038D01*
X52184836Y-38420038D02*
X52232455Y-38372419D01*
X52232455Y-38372419D02*
X52351503Y-38372419D01*
X52351503Y-38372419D02*
X52399122Y-38420038D01*
X52399122Y-38420038D02*
X52422931Y-38467657D01*
X52422931Y-38467657D02*
X52446741Y-38562895D01*
X52446741Y-38562895D02*
X52446741Y-38658133D01*
X52446741Y-38658133D02*
X52422931Y-38800990D01*
X52422931Y-38800990D02*
X52137217Y-39372419D01*
X52137217Y-39372419D02*
X52446741Y-39372419D01*
X52661026Y-39277180D02*
X52684836Y-39324800D01*
X52684836Y-39324800D02*
X52661026Y-39372419D01*
X52661026Y-39372419D02*
X52637217Y-39324800D01*
X52637217Y-39324800D02*
X52661026Y-39277180D01*
X52661026Y-39277180D02*
X52661026Y-39372419D01*
X52875312Y-38467657D02*
X52899121Y-38420038D01*
X52899121Y-38420038D02*
X52946740Y-38372419D01*
X52946740Y-38372419D02*
X53065788Y-38372419D01*
X53065788Y-38372419D02*
X53113407Y-38420038D01*
X53113407Y-38420038D02*
X53137216Y-38467657D01*
X53137216Y-38467657D02*
X53161026Y-38562895D01*
X53161026Y-38562895D02*
X53161026Y-38658133D01*
X53161026Y-38658133D02*
X53137216Y-38800990D01*
X53137216Y-38800990D02*
X52851502Y-39372419D01*
X52851502Y-39372419D02*
X53161026Y-39372419D01*
X53351502Y-38467657D02*
X53375311Y-38420038D01*
X53375311Y-38420038D02*
X53422930Y-38372419D01*
X53422930Y-38372419D02*
X53541978Y-38372419D01*
X53541978Y-38372419D02*
X53589597Y-38420038D01*
X53589597Y-38420038D02*
X53613406Y-38467657D01*
X53613406Y-38467657D02*
X53637216Y-38562895D01*
X53637216Y-38562895D02*
X53637216Y-38658133D01*
X53637216Y-38658133D02*
X53613406Y-38800990D01*
X53613406Y-38800990D02*
X53327692Y-39372419D01*
X53327692Y-39372419D02*
X53637216Y-39372419D01*
X60161027Y-51086704D02*
X60399122Y-51086704D01*
X60113408Y-51372419D02*
X60280074Y-50372419D01*
X60280074Y-50372419D02*
X60446741Y-51372419D01*
X60827693Y-50705752D02*
X60827693Y-51372419D01*
X60708645Y-50324800D02*
X60589598Y-51039085D01*
X60589598Y-51039085D02*
X60899121Y-51039085D01*
X102967657Y-62088972D02*
X102920038Y-62065163D01*
X102920038Y-62065163D02*
X102872419Y-62017544D01*
X102872419Y-62017544D02*
X102872419Y-61898496D01*
X102872419Y-61898496D02*
X102920038Y-61850877D01*
X102920038Y-61850877D02*
X102967657Y-61827068D01*
X102967657Y-61827068D02*
X103062895Y-61803258D01*
X103062895Y-61803258D02*
X103158133Y-61803258D01*
X103158133Y-61803258D02*
X103300990Y-61827068D01*
X103300990Y-61827068D02*
X103872419Y-62112782D01*
X103872419Y-62112782D02*
X103872419Y-61803258D01*
X103777180Y-61588973D02*
X103824800Y-61565163D01*
X103824800Y-61565163D02*
X103872419Y-61588973D01*
X103872419Y-61588973D02*
X103824800Y-61612782D01*
X103824800Y-61612782D02*
X103777180Y-61588973D01*
X103777180Y-61588973D02*
X103872419Y-61588973D01*
X102967657Y-61374687D02*
X102920038Y-61350878D01*
X102920038Y-61350878D02*
X102872419Y-61303259D01*
X102872419Y-61303259D02*
X102872419Y-61184211D01*
X102872419Y-61184211D02*
X102920038Y-61136592D01*
X102920038Y-61136592D02*
X102967657Y-61112783D01*
X102967657Y-61112783D02*
X103062895Y-61088973D01*
X103062895Y-61088973D02*
X103158133Y-61088973D01*
X103158133Y-61088973D02*
X103300990Y-61112783D01*
X103300990Y-61112783D02*
X103872419Y-61398497D01*
X103872419Y-61398497D02*
X103872419Y-61088973D01*
X103872419Y-60612783D02*
X103872419Y-60898497D01*
X103872419Y-60755640D02*
X102872419Y-60755640D01*
X102872419Y-60755640D02*
X103015276Y-60803259D01*
X103015276Y-60803259D02*
X103110514Y-60850878D01*
X103110514Y-60850878D02*
X103158133Y-60898497D01*
X67661027Y-46967657D02*
X67684836Y-46920038D01*
X67684836Y-46920038D02*
X67732455Y-46872419D01*
X67732455Y-46872419D02*
X67851503Y-46872419D01*
X67851503Y-46872419D02*
X67899122Y-46920038D01*
X67899122Y-46920038D02*
X67922931Y-46967657D01*
X67922931Y-46967657D02*
X67946741Y-47062895D01*
X67946741Y-47062895D02*
X67946741Y-47158133D01*
X67946741Y-47158133D02*
X67922931Y-47300990D01*
X67922931Y-47300990D02*
X67637217Y-47872419D01*
X67637217Y-47872419D02*
X67946741Y-47872419D01*
X68161026Y-47777180D02*
X68184836Y-47824800D01*
X68184836Y-47824800D02*
X68161026Y-47872419D01*
X68161026Y-47872419D02*
X68137217Y-47824800D01*
X68137217Y-47824800D02*
X68161026Y-47777180D01*
X68161026Y-47777180D02*
X68161026Y-47872419D01*
X68422931Y-47872419D02*
X68518169Y-47872419D01*
X68518169Y-47872419D02*
X68565788Y-47824800D01*
X68565788Y-47824800D02*
X68589597Y-47777180D01*
X68589597Y-47777180D02*
X68637216Y-47634323D01*
X68637216Y-47634323D02*
X68661026Y-47443847D01*
X68661026Y-47443847D02*
X68661026Y-47062895D01*
X68661026Y-47062895D02*
X68637216Y-46967657D01*
X68637216Y-46967657D02*
X68613407Y-46920038D01*
X68613407Y-46920038D02*
X68565788Y-46872419D01*
X68565788Y-46872419D02*
X68470550Y-46872419D01*
X68470550Y-46872419D02*
X68422931Y-46920038D01*
X68422931Y-46920038D02*
X68399121Y-46967657D01*
X68399121Y-46967657D02*
X68375312Y-47062895D01*
X68375312Y-47062895D02*
X68375312Y-47300990D01*
X68375312Y-47300990D02*
X68399121Y-47396228D01*
X68399121Y-47396228D02*
X68422931Y-47443847D01*
X68422931Y-47443847D02*
X68470550Y-47491466D01*
X68470550Y-47491466D02*
X68565788Y-47491466D01*
X68565788Y-47491466D02*
X68613407Y-47443847D01*
X68613407Y-47443847D02*
X68637216Y-47396228D01*
X68637216Y-47396228D02*
X68661026Y-47300990D01*
X67661027Y-51086704D02*
X67899122Y-51086704D01*
X67613408Y-51372419D02*
X67780074Y-50372419D01*
X67780074Y-50372419D02*
X67946741Y-51372419D01*
X68375312Y-51372419D02*
X68089598Y-51372419D01*
X68232455Y-51372419D02*
X68232455Y-50372419D01*
X68232455Y-50372419D02*
X68184836Y-50515276D01*
X68184836Y-50515276D02*
X68137217Y-50610514D01*
X68137217Y-50610514D02*
X68089598Y-50658133D01*
X75184836Y-51372419D02*
X75184836Y-50372419D01*
X75184836Y-50372419D02*
X75303884Y-50372419D01*
X75303884Y-50372419D02*
X75375312Y-50420038D01*
X75375312Y-50420038D02*
X75422931Y-50515276D01*
X75422931Y-50515276D02*
X75446741Y-50610514D01*
X75446741Y-50610514D02*
X75470550Y-50800990D01*
X75470550Y-50800990D02*
X75470550Y-50943847D01*
X75470550Y-50943847D02*
X75446741Y-51134323D01*
X75446741Y-51134323D02*
X75422931Y-51229561D01*
X75422931Y-51229561D02*
X75375312Y-51324800D01*
X75375312Y-51324800D02*
X75303884Y-51372419D01*
X75303884Y-51372419D02*
X75184836Y-51372419D01*
X75899122Y-50372419D02*
X75803884Y-50372419D01*
X75803884Y-50372419D02*
X75756265Y-50420038D01*
X75756265Y-50420038D02*
X75732455Y-50467657D01*
X75732455Y-50467657D02*
X75684836Y-50610514D01*
X75684836Y-50610514D02*
X75661027Y-50800990D01*
X75661027Y-50800990D02*
X75661027Y-51181942D01*
X75661027Y-51181942D02*
X75684836Y-51277180D01*
X75684836Y-51277180D02*
X75708646Y-51324800D01*
X75708646Y-51324800D02*
X75756265Y-51372419D01*
X75756265Y-51372419D02*
X75851503Y-51372419D01*
X75851503Y-51372419D02*
X75899122Y-51324800D01*
X75899122Y-51324800D02*
X75922931Y-51277180D01*
X75922931Y-51277180D02*
X75946741Y-51181942D01*
X75946741Y-51181942D02*
X75946741Y-50943847D01*
X75946741Y-50943847D02*
X75922931Y-50848609D01*
X75922931Y-50848609D02*
X75899122Y-50800990D01*
X75899122Y-50800990D02*
X75851503Y-50753371D01*
X75851503Y-50753371D02*
X75756265Y-50753371D01*
X75756265Y-50753371D02*
X75708646Y-50800990D01*
X75708646Y-50800990D02*
X75684836Y-50848609D01*
X75684836Y-50848609D02*
X75661027Y-50943847D01*
X46911027Y-38467657D02*
X46934836Y-38420038D01*
X46934836Y-38420038D02*
X46982455Y-38372419D01*
X46982455Y-38372419D02*
X47101503Y-38372419D01*
X47101503Y-38372419D02*
X47149122Y-38420038D01*
X47149122Y-38420038D02*
X47172931Y-38467657D01*
X47172931Y-38467657D02*
X47196741Y-38562895D01*
X47196741Y-38562895D02*
X47196741Y-38658133D01*
X47196741Y-38658133D02*
X47172931Y-38800990D01*
X47172931Y-38800990D02*
X46887217Y-39372419D01*
X46887217Y-39372419D02*
X47196741Y-39372419D01*
X47411026Y-39277180D02*
X47434836Y-39324800D01*
X47434836Y-39324800D02*
X47411026Y-39372419D01*
X47411026Y-39372419D02*
X47387217Y-39324800D01*
X47387217Y-39324800D02*
X47411026Y-39277180D01*
X47411026Y-39277180D02*
X47411026Y-39372419D01*
X47625312Y-38467657D02*
X47649121Y-38420038D01*
X47649121Y-38420038D02*
X47696740Y-38372419D01*
X47696740Y-38372419D02*
X47815788Y-38372419D01*
X47815788Y-38372419D02*
X47863407Y-38420038D01*
X47863407Y-38420038D02*
X47887216Y-38467657D01*
X47887216Y-38467657D02*
X47911026Y-38562895D01*
X47911026Y-38562895D02*
X47911026Y-38658133D01*
X47911026Y-38658133D02*
X47887216Y-38800990D01*
X47887216Y-38800990D02*
X47601502Y-39372419D01*
X47601502Y-39372419D02*
X47911026Y-39372419D01*
X48339597Y-38705752D02*
X48339597Y-39372419D01*
X48220549Y-38324800D02*
X48101502Y-39039085D01*
X48101502Y-39039085D02*
X48411025Y-39039085D01*
X62161027Y-38467657D02*
X62184836Y-38420038D01*
X62184836Y-38420038D02*
X62232455Y-38372419D01*
X62232455Y-38372419D02*
X62351503Y-38372419D01*
X62351503Y-38372419D02*
X62399122Y-38420038D01*
X62399122Y-38420038D02*
X62422931Y-38467657D01*
X62422931Y-38467657D02*
X62446741Y-38562895D01*
X62446741Y-38562895D02*
X62446741Y-38658133D01*
X62446741Y-38658133D02*
X62422931Y-38800990D01*
X62422931Y-38800990D02*
X62137217Y-39372419D01*
X62137217Y-39372419D02*
X62446741Y-39372419D01*
X62661026Y-39277180D02*
X62684836Y-39324800D01*
X62684836Y-39324800D02*
X62661026Y-39372419D01*
X62661026Y-39372419D02*
X62637217Y-39324800D01*
X62637217Y-39324800D02*
X62661026Y-39277180D01*
X62661026Y-39277180D02*
X62661026Y-39372419D01*
X63161026Y-39372419D02*
X62875312Y-39372419D01*
X63018169Y-39372419D02*
X63018169Y-38372419D01*
X63018169Y-38372419D02*
X62970550Y-38515276D01*
X62970550Y-38515276D02*
X62922931Y-38610514D01*
X62922931Y-38610514D02*
X62875312Y-38658133D01*
X63446740Y-38800990D02*
X63399121Y-38753371D01*
X63399121Y-38753371D02*
X63375311Y-38705752D01*
X63375311Y-38705752D02*
X63351502Y-38610514D01*
X63351502Y-38610514D02*
X63351502Y-38562895D01*
X63351502Y-38562895D02*
X63375311Y-38467657D01*
X63375311Y-38467657D02*
X63399121Y-38420038D01*
X63399121Y-38420038D02*
X63446740Y-38372419D01*
X63446740Y-38372419D02*
X63541978Y-38372419D01*
X63541978Y-38372419D02*
X63589597Y-38420038D01*
X63589597Y-38420038D02*
X63613406Y-38467657D01*
X63613406Y-38467657D02*
X63637216Y-38562895D01*
X63637216Y-38562895D02*
X63637216Y-38610514D01*
X63637216Y-38610514D02*
X63613406Y-38705752D01*
X63613406Y-38705752D02*
X63589597Y-38753371D01*
X63589597Y-38753371D02*
X63541978Y-38800990D01*
X63541978Y-38800990D02*
X63446740Y-38800990D01*
X63446740Y-38800990D02*
X63399121Y-38848609D01*
X63399121Y-38848609D02*
X63375311Y-38896228D01*
X63375311Y-38896228D02*
X63351502Y-38991466D01*
X63351502Y-38991466D02*
X63351502Y-39181942D01*
X63351502Y-39181942D02*
X63375311Y-39277180D01*
X63375311Y-39277180D02*
X63399121Y-39324800D01*
X63399121Y-39324800D02*
X63446740Y-39372419D01*
X63446740Y-39372419D02*
X63541978Y-39372419D01*
X63541978Y-39372419D02*
X63589597Y-39324800D01*
X63589597Y-39324800D02*
X63613406Y-39277180D01*
X63613406Y-39277180D02*
X63637216Y-39181942D01*
X63637216Y-39181942D02*
X63637216Y-38991466D01*
X63637216Y-38991466D02*
X63613406Y-38896228D01*
X63613406Y-38896228D02*
X63589597Y-38848609D01*
X63589597Y-38848609D02*
X63541978Y-38800990D01*
X47411027Y-47586704D02*
X47649122Y-47586704D01*
X47363408Y-47872419D02*
X47530074Y-46872419D01*
X47530074Y-46872419D02*
X47696741Y-47872419D01*
X47934836Y-47300990D02*
X47887217Y-47253371D01*
X47887217Y-47253371D02*
X47863407Y-47205752D01*
X47863407Y-47205752D02*
X47839598Y-47110514D01*
X47839598Y-47110514D02*
X47839598Y-47062895D01*
X47839598Y-47062895D02*
X47863407Y-46967657D01*
X47863407Y-46967657D02*
X47887217Y-46920038D01*
X47887217Y-46920038D02*
X47934836Y-46872419D01*
X47934836Y-46872419D02*
X48030074Y-46872419D01*
X48030074Y-46872419D02*
X48077693Y-46920038D01*
X48077693Y-46920038D02*
X48101502Y-46967657D01*
X48101502Y-46967657D02*
X48125312Y-47062895D01*
X48125312Y-47062895D02*
X48125312Y-47110514D01*
X48125312Y-47110514D02*
X48101502Y-47205752D01*
X48101502Y-47205752D02*
X48077693Y-47253371D01*
X48077693Y-47253371D02*
X48030074Y-47300990D01*
X48030074Y-47300990D02*
X47934836Y-47300990D01*
X47934836Y-47300990D02*
X47887217Y-47348609D01*
X47887217Y-47348609D02*
X47863407Y-47396228D01*
X47863407Y-47396228D02*
X47839598Y-47491466D01*
X47839598Y-47491466D02*
X47839598Y-47681942D01*
X47839598Y-47681942D02*
X47863407Y-47777180D01*
X47863407Y-47777180D02*
X47887217Y-47824800D01*
X47887217Y-47824800D02*
X47934836Y-47872419D01*
X47934836Y-47872419D02*
X48030074Y-47872419D01*
X48030074Y-47872419D02*
X48077693Y-47824800D01*
X48077693Y-47824800D02*
X48101502Y-47777180D01*
X48101502Y-47777180D02*
X48125312Y-47681942D01*
X48125312Y-47681942D02*
X48125312Y-47491466D01*
X48125312Y-47491466D02*
X48101502Y-47396228D01*
X48101502Y-47396228D02*
X48077693Y-47348609D01*
X48077693Y-47348609D02*
X48030074Y-47300990D01*
X65161027Y-51086704D02*
X65399122Y-51086704D01*
X65113408Y-51372419D02*
X65280074Y-50372419D01*
X65280074Y-50372419D02*
X65446741Y-51372419D01*
X65589598Y-50467657D02*
X65613407Y-50420038D01*
X65613407Y-50420038D02*
X65661026Y-50372419D01*
X65661026Y-50372419D02*
X65780074Y-50372419D01*
X65780074Y-50372419D02*
X65827693Y-50420038D01*
X65827693Y-50420038D02*
X65851502Y-50467657D01*
X65851502Y-50467657D02*
X65875312Y-50562895D01*
X65875312Y-50562895D02*
X65875312Y-50658133D01*
X65875312Y-50658133D02*
X65851502Y-50800990D01*
X65851502Y-50800990D02*
X65565788Y-51372419D01*
X65565788Y-51372419D02*
X65875312Y-51372419D01*
X102967657Y-77338972D02*
X102920038Y-77315163D01*
X102920038Y-77315163D02*
X102872419Y-77267544D01*
X102872419Y-77267544D02*
X102872419Y-77148496D01*
X102872419Y-77148496D02*
X102920038Y-77100877D01*
X102920038Y-77100877D02*
X102967657Y-77077068D01*
X102967657Y-77077068D02*
X103062895Y-77053258D01*
X103062895Y-77053258D02*
X103158133Y-77053258D01*
X103158133Y-77053258D02*
X103300990Y-77077068D01*
X103300990Y-77077068D02*
X103872419Y-77362782D01*
X103872419Y-77362782D02*
X103872419Y-77053258D01*
X103777180Y-76838973D02*
X103824800Y-76815163D01*
X103824800Y-76815163D02*
X103872419Y-76838973D01*
X103872419Y-76838973D02*
X103824800Y-76862782D01*
X103824800Y-76862782D02*
X103777180Y-76838973D01*
X103777180Y-76838973D02*
X103872419Y-76838973D01*
X103872419Y-76577068D02*
X103872419Y-76481830D01*
X103872419Y-76481830D02*
X103824800Y-76434211D01*
X103824800Y-76434211D02*
X103777180Y-76410402D01*
X103777180Y-76410402D02*
X103634323Y-76362783D01*
X103634323Y-76362783D02*
X103443847Y-76338973D01*
X103443847Y-76338973D02*
X103062895Y-76338973D01*
X103062895Y-76338973D02*
X102967657Y-76362783D01*
X102967657Y-76362783D02*
X102920038Y-76386592D01*
X102920038Y-76386592D02*
X102872419Y-76434211D01*
X102872419Y-76434211D02*
X102872419Y-76529449D01*
X102872419Y-76529449D02*
X102920038Y-76577068D01*
X102920038Y-76577068D02*
X102967657Y-76600878D01*
X102967657Y-76600878D02*
X103062895Y-76624687D01*
X103062895Y-76624687D02*
X103300990Y-76624687D01*
X103300990Y-76624687D02*
X103396228Y-76600878D01*
X103396228Y-76600878D02*
X103443847Y-76577068D01*
X103443847Y-76577068D02*
X103491466Y-76529449D01*
X103491466Y-76529449D02*
X103491466Y-76434211D01*
X103491466Y-76434211D02*
X103443847Y-76386592D01*
X103443847Y-76386592D02*
X103396228Y-76362783D01*
X103396228Y-76362783D02*
X103300990Y-76338973D01*
X57411027Y-51086704D02*
X57649122Y-51086704D01*
X57363408Y-51372419D02*
X57530074Y-50372419D01*
X57530074Y-50372419D02*
X57696741Y-51372419D01*
X58101502Y-50372419D02*
X57863407Y-50372419D01*
X57863407Y-50372419D02*
X57839598Y-50848609D01*
X57839598Y-50848609D02*
X57863407Y-50800990D01*
X57863407Y-50800990D02*
X57911026Y-50753371D01*
X57911026Y-50753371D02*
X58030074Y-50753371D01*
X58030074Y-50753371D02*
X58077693Y-50800990D01*
X58077693Y-50800990D02*
X58101502Y-50848609D01*
X58101502Y-50848609D02*
X58125312Y-50943847D01*
X58125312Y-50943847D02*
X58125312Y-51181942D01*
X58125312Y-51181942D02*
X58101502Y-51277180D01*
X58101502Y-51277180D02*
X58077693Y-51324800D01*
X58077693Y-51324800D02*
X58030074Y-51372419D01*
X58030074Y-51372419D02*
X57911026Y-51372419D01*
X57911026Y-51372419D02*
X57863407Y-51324800D01*
X57863407Y-51324800D02*
X57839598Y-51277180D01*
X57161027Y-38467657D02*
X57184836Y-38420038D01*
X57184836Y-38420038D02*
X57232455Y-38372419D01*
X57232455Y-38372419D02*
X57351503Y-38372419D01*
X57351503Y-38372419D02*
X57399122Y-38420038D01*
X57399122Y-38420038D02*
X57422931Y-38467657D01*
X57422931Y-38467657D02*
X57446741Y-38562895D01*
X57446741Y-38562895D02*
X57446741Y-38658133D01*
X57446741Y-38658133D02*
X57422931Y-38800990D01*
X57422931Y-38800990D02*
X57137217Y-39372419D01*
X57137217Y-39372419D02*
X57446741Y-39372419D01*
X57661026Y-39277180D02*
X57684836Y-39324800D01*
X57684836Y-39324800D02*
X57661026Y-39372419D01*
X57661026Y-39372419D02*
X57637217Y-39324800D01*
X57637217Y-39324800D02*
X57661026Y-39277180D01*
X57661026Y-39277180D02*
X57661026Y-39372419D01*
X57875312Y-38467657D02*
X57899121Y-38420038D01*
X57899121Y-38420038D02*
X57946740Y-38372419D01*
X57946740Y-38372419D02*
X58065788Y-38372419D01*
X58065788Y-38372419D02*
X58113407Y-38420038D01*
X58113407Y-38420038D02*
X58137216Y-38467657D01*
X58137216Y-38467657D02*
X58161026Y-38562895D01*
X58161026Y-38562895D02*
X58161026Y-38658133D01*
X58161026Y-38658133D02*
X58137216Y-38800990D01*
X58137216Y-38800990D02*
X57851502Y-39372419D01*
X57851502Y-39372419D02*
X58161026Y-39372419D01*
X58470549Y-38372419D02*
X58518168Y-38372419D01*
X58518168Y-38372419D02*
X58565787Y-38420038D01*
X58565787Y-38420038D02*
X58589597Y-38467657D01*
X58589597Y-38467657D02*
X58613406Y-38562895D01*
X58613406Y-38562895D02*
X58637216Y-38753371D01*
X58637216Y-38753371D02*
X58637216Y-38991466D01*
X58637216Y-38991466D02*
X58613406Y-39181942D01*
X58613406Y-39181942D02*
X58589597Y-39277180D01*
X58589597Y-39277180D02*
X58565787Y-39324800D01*
X58565787Y-39324800D02*
X58518168Y-39372419D01*
X58518168Y-39372419D02*
X58470549Y-39372419D01*
X58470549Y-39372419D02*
X58422930Y-39324800D01*
X58422930Y-39324800D02*
X58399121Y-39277180D01*
X58399121Y-39277180D02*
X58375311Y-39181942D01*
X58375311Y-39181942D02*
X58351502Y-38991466D01*
X58351502Y-38991466D02*
X58351502Y-38753371D01*
X58351502Y-38753371D02*
X58375311Y-38562895D01*
X58375311Y-38562895D02*
X58399121Y-38467657D01*
X58399121Y-38467657D02*
X58422930Y-38420038D01*
X58422930Y-38420038D02*
X58470549Y-38372419D01*
X102967657Y-74838972D02*
X102920038Y-74815163D01*
X102920038Y-74815163D02*
X102872419Y-74767544D01*
X102872419Y-74767544D02*
X102872419Y-74648496D01*
X102872419Y-74648496D02*
X102920038Y-74600877D01*
X102920038Y-74600877D02*
X102967657Y-74577068D01*
X102967657Y-74577068D02*
X103062895Y-74553258D01*
X103062895Y-74553258D02*
X103158133Y-74553258D01*
X103158133Y-74553258D02*
X103300990Y-74577068D01*
X103300990Y-74577068D02*
X103872419Y-74862782D01*
X103872419Y-74862782D02*
X103872419Y-74553258D01*
X103777180Y-74338973D02*
X103824800Y-74315163D01*
X103824800Y-74315163D02*
X103872419Y-74338973D01*
X103872419Y-74338973D02*
X103824800Y-74362782D01*
X103824800Y-74362782D02*
X103777180Y-74338973D01*
X103777180Y-74338973D02*
X103872419Y-74338973D01*
X103872419Y-73838973D02*
X103872419Y-74124687D01*
X103872419Y-73981830D02*
X102872419Y-73981830D01*
X102872419Y-73981830D02*
X103015276Y-74029449D01*
X103015276Y-74029449D02*
X103110514Y-74077068D01*
X103110514Y-74077068D02*
X103158133Y-74124687D01*
X103872419Y-73362783D02*
X103872419Y-73648497D01*
X103872419Y-73505640D02*
X102872419Y-73505640D01*
X102872419Y-73505640D02*
X103015276Y-73553259D01*
X103015276Y-73553259D02*
X103110514Y-73600878D01*
X103110514Y-73600878D02*
X103158133Y-73648497D01*
X104767657Y-64588972D02*
X104720038Y-64565163D01*
X104720038Y-64565163D02*
X104672419Y-64517544D01*
X104672419Y-64517544D02*
X104672419Y-64398496D01*
X104672419Y-64398496D02*
X104720038Y-64350877D01*
X104720038Y-64350877D02*
X104767657Y-64327068D01*
X104767657Y-64327068D02*
X104862895Y-64303258D01*
X104862895Y-64303258D02*
X104958133Y-64303258D01*
X104958133Y-64303258D02*
X105100990Y-64327068D01*
X105100990Y-64327068D02*
X105672419Y-64612782D01*
X105672419Y-64612782D02*
X105672419Y-64303258D01*
X105577180Y-64088973D02*
X105624800Y-64065163D01*
X105624800Y-64065163D02*
X105672419Y-64088973D01*
X105672419Y-64088973D02*
X105624800Y-64112782D01*
X105624800Y-64112782D02*
X105577180Y-64088973D01*
X105577180Y-64088973D02*
X105672419Y-64088973D01*
X104767657Y-63874687D02*
X104720038Y-63850878D01*
X104720038Y-63850878D02*
X104672419Y-63803259D01*
X104672419Y-63803259D02*
X104672419Y-63684211D01*
X104672419Y-63684211D02*
X104720038Y-63636592D01*
X104720038Y-63636592D02*
X104767657Y-63612783D01*
X104767657Y-63612783D02*
X104862895Y-63588973D01*
X104862895Y-63588973D02*
X104958133Y-63588973D01*
X104958133Y-63588973D02*
X105100990Y-63612783D01*
X105100990Y-63612783D02*
X105672419Y-63898497D01*
X105672419Y-63898497D02*
X105672419Y-63588973D01*
X104672419Y-63279450D02*
X104672419Y-63231831D01*
X104672419Y-63231831D02*
X104720038Y-63184212D01*
X104720038Y-63184212D02*
X104767657Y-63160402D01*
X104767657Y-63160402D02*
X104862895Y-63136593D01*
X104862895Y-63136593D02*
X105053371Y-63112783D01*
X105053371Y-63112783D02*
X105291466Y-63112783D01*
X105291466Y-63112783D02*
X105481942Y-63136593D01*
X105481942Y-63136593D02*
X105577180Y-63160402D01*
X105577180Y-63160402D02*
X105624800Y-63184212D01*
X105624800Y-63184212D02*
X105672419Y-63231831D01*
X105672419Y-63231831D02*
X105672419Y-63279450D01*
X105672419Y-63279450D02*
X105624800Y-63327069D01*
X105624800Y-63327069D02*
X105577180Y-63350878D01*
X105577180Y-63350878D02*
X105481942Y-63374688D01*
X105481942Y-63374688D02*
X105291466Y-63398497D01*
X105291466Y-63398497D02*
X105053371Y-63398497D01*
X105053371Y-63398497D02*
X104862895Y-63374688D01*
X104862895Y-63374688D02*
X104767657Y-63350878D01*
X104767657Y-63350878D02*
X104720038Y-63327069D01*
X104720038Y-63327069D02*
X104672419Y-63279450D01*
X104767657Y-69838972D02*
X104720038Y-69815163D01*
X104720038Y-69815163D02*
X104672419Y-69767544D01*
X104672419Y-69767544D02*
X104672419Y-69648496D01*
X104672419Y-69648496D02*
X104720038Y-69600877D01*
X104720038Y-69600877D02*
X104767657Y-69577068D01*
X104767657Y-69577068D02*
X104862895Y-69553258D01*
X104862895Y-69553258D02*
X104958133Y-69553258D01*
X104958133Y-69553258D02*
X105100990Y-69577068D01*
X105100990Y-69577068D02*
X105672419Y-69862782D01*
X105672419Y-69862782D02*
X105672419Y-69553258D01*
X105577180Y-69338973D02*
X105624800Y-69315163D01*
X105624800Y-69315163D02*
X105672419Y-69338973D01*
X105672419Y-69338973D02*
X105624800Y-69362782D01*
X105624800Y-69362782D02*
X105577180Y-69338973D01*
X105577180Y-69338973D02*
X105672419Y-69338973D01*
X105672419Y-68838973D02*
X105672419Y-69124687D01*
X105672419Y-68981830D02*
X104672419Y-68981830D01*
X104672419Y-68981830D02*
X104815276Y-69029449D01*
X104815276Y-69029449D02*
X104910514Y-69077068D01*
X104910514Y-69077068D02*
X104958133Y-69124687D01*
X104672419Y-68410402D02*
X104672419Y-68505640D01*
X104672419Y-68505640D02*
X104720038Y-68553259D01*
X104720038Y-68553259D02*
X104767657Y-68577069D01*
X104767657Y-68577069D02*
X104910514Y-68624688D01*
X104910514Y-68624688D02*
X105100990Y-68648497D01*
X105100990Y-68648497D02*
X105481942Y-68648497D01*
X105481942Y-68648497D02*
X105577180Y-68624688D01*
X105577180Y-68624688D02*
X105624800Y-68600878D01*
X105624800Y-68600878D02*
X105672419Y-68553259D01*
X105672419Y-68553259D02*
X105672419Y-68458021D01*
X105672419Y-68458021D02*
X105624800Y-68410402D01*
X105624800Y-68410402D02*
X105577180Y-68386593D01*
X105577180Y-68386593D02*
X105481942Y-68362783D01*
X105481942Y-68362783D02*
X105243847Y-68362783D01*
X105243847Y-68362783D02*
X105148609Y-68386593D01*
X105148609Y-68386593D02*
X105100990Y-68410402D01*
X105100990Y-68410402D02*
X105053371Y-68458021D01*
X105053371Y-68458021D02*
X105053371Y-68553259D01*
X105053371Y-68553259D02*
X105100990Y-68600878D01*
X105100990Y-68600878D02*
X105148609Y-68624688D01*
X105148609Y-68624688D02*
X105243847Y-68648497D01*
X49911027Y-47586704D02*
X50149122Y-47586704D01*
X49863408Y-47872419D02*
X50030074Y-46872419D01*
X50030074Y-46872419D02*
X50196741Y-47872419D01*
X50387217Y-47872419D02*
X50482455Y-47872419D01*
X50482455Y-47872419D02*
X50530074Y-47824800D01*
X50530074Y-47824800D02*
X50553883Y-47777180D01*
X50553883Y-47777180D02*
X50601502Y-47634323D01*
X50601502Y-47634323D02*
X50625312Y-47443847D01*
X50625312Y-47443847D02*
X50625312Y-47062895D01*
X50625312Y-47062895D02*
X50601502Y-46967657D01*
X50601502Y-46967657D02*
X50577693Y-46920038D01*
X50577693Y-46920038D02*
X50530074Y-46872419D01*
X50530074Y-46872419D02*
X50434836Y-46872419D01*
X50434836Y-46872419D02*
X50387217Y-46920038D01*
X50387217Y-46920038D02*
X50363407Y-46967657D01*
X50363407Y-46967657D02*
X50339598Y-47062895D01*
X50339598Y-47062895D02*
X50339598Y-47300990D01*
X50339598Y-47300990D02*
X50363407Y-47396228D01*
X50363407Y-47396228D02*
X50387217Y-47443847D01*
X50387217Y-47443847D02*
X50434836Y-47491466D01*
X50434836Y-47491466D02*
X50530074Y-47491466D01*
X50530074Y-47491466D02*
X50577693Y-47443847D01*
X50577693Y-47443847D02*
X50601502Y-47396228D01*
X50601502Y-47396228D02*
X50625312Y-47300990D01*
X104767657Y-59588972D02*
X104720038Y-59565163D01*
X104720038Y-59565163D02*
X104672419Y-59517544D01*
X104672419Y-59517544D02*
X104672419Y-59398496D01*
X104672419Y-59398496D02*
X104720038Y-59350877D01*
X104720038Y-59350877D02*
X104767657Y-59327068D01*
X104767657Y-59327068D02*
X104862895Y-59303258D01*
X104862895Y-59303258D02*
X104958133Y-59303258D01*
X104958133Y-59303258D02*
X105100990Y-59327068D01*
X105100990Y-59327068D02*
X105672419Y-59612782D01*
X105672419Y-59612782D02*
X105672419Y-59303258D01*
X105577180Y-59088973D02*
X105624800Y-59065163D01*
X105624800Y-59065163D02*
X105672419Y-59088973D01*
X105672419Y-59088973D02*
X105624800Y-59112782D01*
X105624800Y-59112782D02*
X105577180Y-59088973D01*
X105577180Y-59088973D02*
X105672419Y-59088973D01*
X104767657Y-58874687D02*
X104720038Y-58850878D01*
X104720038Y-58850878D02*
X104672419Y-58803259D01*
X104672419Y-58803259D02*
X104672419Y-58684211D01*
X104672419Y-58684211D02*
X104720038Y-58636592D01*
X104720038Y-58636592D02*
X104767657Y-58612783D01*
X104767657Y-58612783D02*
X104862895Y-58588973D01*
X104862895Y-58588973D02*
X104958133Y-58588973D01*
X104958133Y-58588973D02*
X105100990Y-58612783D01*
X105100990Y-58612783D02*
X105672419Y-58898497D01*
X105672419Y-58898497D02*
X105672419Y-58588973D01*
X105005752Y-58160402D02*
X105672419Y-58160402D01*
X104624800Y-58279450D02*
X105339085Y-58398497D01*
X105339085Y-58398497D02*
X105339085Y-58088974D01*
X54970550Y-59622419D02*
X54803884Y-59146228D01*
X54684836Y-59622419D02*
X54684836Y-58622419D01*
X54684836Y-58622419D02*
X54875312Y-58622419D01*
X54875312Y-58622419D02*
X54922931Y-58670038D01*
X54922931Y-58670038D02*
X54946741Y-58717657D01*
X54946741Y-58717657D02*
X54970550Y-58812895D01*
X54970550Y-58812895D02*
X54970550Y-58955752D01*
X54970550Y-58955752D02*
X54946741Y-59050990D01*
X54946741Y-59050990D02*
X54922931Y-59098609D01*
X54922931Y-59098609D02*
X54875312Y-59146228D01*
X54875312Y-59146228D02*
X54684836Y-59146228D01*
X55541979Y-58574800D02*
X55113408Y-59860514D01*
X55661027Y-58622419D02*
X55780075Y-59622419D01*
X55780075Y-59622419D02*
X55875313Y-58908133D01*
X55875313Y-58908133D02*
X55970551Y-59622419D01*
X55970551Y-59622419D02*
X56089599Y-58622419D01*
X67161027Y-38467657D02*
X67184836Y-38420038D01*
X67184836Y-38420038D02*
X67232455Y-38372419D01*
X67232455Y-38372419D02*
X67351503Y-38372419D01*
X67351503Y-38372419D02*
X67399122Y-38420038D01*
X67399122Y-38420038D02*
X67422931Y-38467657D01*
X67422931Y-38467657D02*
X67446741Y-38562895D01*
X67446741Y-38562895D02*
X67446741Y-38658133D01*
X67446741Y-38658133D02*
X67422931Y-38800990D01*
X67422931Y-38800990D02*
X67137217Y-39372419D01*
X67137217Y-39372419D02*
X67446741Y-39372419D01*
X67661026Y-39277180D02*
X67684836Y-39324800D01*
X67684836Y-39324800D02*
X67661026Y-39372419D01*
X67661026Y-39372419D02*
X67637217Y-39324800D01*
X67637217Y-39324800D02*
X67661026Y-39277180D01*
X67661026Y-39277180D02*
X67661026Y-39372419D01*
X68161026Y-39372419D02*
X67875312Y-39372419D01*
X68018169Y-39372419D02*
X68018169Y-38372419D01*
X68018169Y-38372419D02*
X67970550Y-38515276D01*
X67970550Y-38515276D02*
X67922931Y-38610514D01*
X67922931Y-38610514D02*
X67875312Y-38658133D01*
X68589597Y-38372419D02*
X68494359Y-38372419D01*
X68494359Y-38372419D02*
X68446740Y-38420038D01*
X68446740Y-38420038D02*
X68422930Y-38467657D01*
X68422930Y-38467657D02*
X68375311Y-38610514D01*
X68375311Y-38610514D02*
X68351502Y-38800990D01*
X68351502Y-38800990D02*
X68351502Y-39181942D01*
X68351502Y-39181942D02*
X68375311Y-39277180D01*
X68375311Y-39277180D02*
X68399121Y-39324800D01*
X68399121Y-39324800D02*
X68446740Y-39372419D01*
X68446740Y-39372419D02*
X68541978Y-39372419D01*
X68541978Y-39372419D02*
X68589597Y-39324800D01*
X68589597Y-39324800D02*
X68613406Y-39277180D01*
X68613406Y-39277180D02*
X68637216Y-39181942D01*
X68637216Y-39181942D02*
X68637216Y-38943847D01*
X68637216Y-38943847D02*
X68613406Y-38848609D01*
X68613406Y-38848609D02*
X68589597Y-38800990D01*
X68589597Y-38800990D02*
X68541978Y-38753371D01*
X68541978Y-38753371D02*
X68446740Y-38753371D01*
X68446740Y-38753371D02*
X68399121Y-38800990D01*
X68399121Y-38800990D02*
X68375311Y-38848609D01*
X68375311Y-38848609D02*
X68351502Y-38943847D01*
X97411027Y-53512475D02*
X97744360Y-54512475D01*
X97744360Y-54512475D02*
X98077693Y-53512475D01*
X99696741Y-54512475D02*
X99125313Y-54512475D01*
X99411027Y-54512475D02*
X99411027Y-53512475D01*
X99411027Y-53512475D02*
X99315789Y-53655332D01*
X99315789Y-53655332D02*
X99220551Y-53750570D01*
X99220551Y-53750570D02*
X99125313Y-53798189D01*
X100125313Y-54417236D02*
X100172932Y-54464856D01*
X100172932Y-54464856D02*
X100125313Y-54512475D01*
X100125313Y-54512475D02*
X100077694Y-54464856D01*
X100077694Y-54464856D02*
X100125313Y-54417236D01*
X100125313Y-54417236D02*
X100125313Y-54512475D01*
X101077693Y-53512475D02*
X100601503Y-53512475D01*
X100601503Y-53512475D02*
X100553884Y-53988665D01*
X100553884Y-53988665D02*
X100601503Y-53941046D01*
X100601503Y-53941046D02*
X100696741Y-53893427D01*
X100696741Y-53893427D02*
X100934836Y-53893427D01*
X100934836Y-53893427D02*
X101030074Y-53941046D01*
X101030074Y-53941046D02*
X101077693Y-53988665D01*
X101077693Y-53988665D02*
X101125312Y-54083903D01*
X101125312Y-54083903D02*
X101125312Y-54321998D01*
X101125312Y-54321998D02*
X101077693Y-54417236D01*
X101077693Y-54417236D02*
X101030074Y-54464856D01*
X101030074Y-54464856D02*
X100934836Y-54512475D01*
X100934836Y-54512475D02*
X100696741Y-54512475D01*
X100696741Y-54512475D02*
X100601503Y-54464856D01*
X100601503Y-54464856D02*
X100553884Y-54417236D01*
X98077693Y-56122419D02*
X97506265Y-56122419D01*
X97791979Y-56122419D02*
X97791979Y-55122419D01*
X97791979Y-55122419D02*
X97696741Y-55265276D01*
X97696741Y-55265276D02*
X97601503Y-55360514D01*
X97601503Y-55360514D02*
X97506265Y-55408133D01*
X99030074Y-56122419D02*
X98458646Y-56122419D01*
X98744360Y-56122419D02*
X98744360Y-55122419D01*
X98744360Y-55122419D02*
X98649122Y-55265276D01*
X98649122Y-55265276D02*
X98553884Y-55360514D01*
X98553884Y-55360514D02*
X98458646Y-55408133D01*
X100172932Y-56074800D02*
X100315789Y-56122419D01*
X100315789Y-56122419D02*
X100553884Y-56122419D01*
X100553884Y-56122419D02*
X100649122Y-56074800D01*
X100649122Y-56074800D02*
X100696741Y-56027180D01*
X100696741Y-56027180D02*
X100744360Y-55931942D01*
X100744360Y-55931942D02*
X100744360Y-55836704D01*
X100744360Y-55836704D02*
X100696741Y-55741466D01*
X100696741Y-55741466D02*
X100649122Y-55693847D01*
X100649122Y-55693847D02*
X100553884Y-55646228D01*
X100553884Y-55646228D02*
X100363408Y-55598609D01*
X100363408Y-55598609D02*
X100268170Y-55550990D01*
X100268170Y-55550990D02*
X100220551Y-55503371D01*
X100220551Y-55503371D02*
X100172932Y-55408133D01*
X100172932Y-55408133D02*
X100172932Y-55312895D01*
X100172932Y-55312895D02*
X100220551Y-55217657D01*
X100220551Y-55217657D02*
X100268170Y-55170038D01*
X100268170Y-55170038D02*
X100363408Y-55122419D01*
X100363408Y-55122419D02*
X100601503Y-55122419D01*
X100601503Y-55122419D02*
X100744360Y-55170038D01*
X101553884Y-56074800D02*
X101458646Y-56122419D01*
X101458646Y-56122419D02*
X101268170Y-56122419D01*
X101268170Y-56122419D02*
X101172932Y-56074800D01*
X101172932Y-56074800D02*
X101125313Y-55979561D01*
X101125313Y-55979561D02*
X101125313Y-55598609D01*
X101125313Y-55598609D02*
X101172932Y-55503371D01*
X101172932Y-55503371D02*
X101268170Y-55455752D01*
X101268170Y-55455752D02*
X101458646Y-55455752D01*
X101458646Y-55455752D02*
X101553884Y-55503371D01*
X101553884Y-55503371D02*
X101601503Y-55598609D01*
X101601503Y-55598609D02*
X101601503Y-55693847D01*
X101601503Y-55693847D02*
X101125313Y-55789085D01*
X102030075Y-55455752D02*
X102030075Y-56455752D01*
X102030075Y-55503371D02*
X102125313Y-55455752D01*
X102125313Y-55455752D02*
X102315789Y-55455752D01*
X102315789Y-55455752D02*
X102411027Y-55503371D01*
X102411027Y-55503371D02*
X102458646Y-55550990D01*
X102458646Y-55550990D02*
X102506265Y-55646228D01*
X102506265Y-55646228D02*
X102506265Y-55931942D01*
X102506265Y-55931942D02*
X102458646Y-56027180D01*
X102458646Y-56027180D02*
X102411027Y-56074800D01*
X102411027Y-56074800D02*
X102315789Y-56122419D01*
X102315789Y-56122419D02*
X102125313Y-56122419D01*
X102125313Y-56122419D02*
X102030075Y-56074800D01*
X102791980Y-55455752D02*
X103172932Y-55455752D01*
X102934837Y-55122419D02*
X102934837Y-55979561D01*
X102934837Y-55979561D02*
X102982456Y-56074800D01*
X102982456Y-56074800D02*
X103077694Y-56122419D01*
X103077694Y-56122419D02*
X103172932Y-56122419D01*
X104220552Y-55217657D02*
X104268171Y-55170038D01*
X104268171Y-55170038D02*
X104363409Y-55122419D01*
X104363409Y-55122419D02*
X104601504Y-55122419D01*
X104601504Y-55122419D02*
X104696742Y-55170038D01*
X104696742Y-55170038D02*
X104744361Y-55217657D01*
X104744361Y-55217657D02*
X104791980Y-55312895D01*
X104791980Y-55312895D02*
X104791980Y-55408133D01*
X104791980Y-55408133D02*
X104744361Y-55550990D01*
X104744361Y-55550990D02*
X104172933Y-56122419D01*
X104172933Y-56122419D02*
X104791980Y-56122419D01*
X105411028Y-55122419D02*
X105506266Y-55122419D01*
X105506266Y-55122419D02*
X105601504Y-55170038D01*
X105601504Y-55170038D02*
X105649123Y-55217657D01*
X105649123Y-55217657D02*
X105696742Y-55312895D01*
X105696742Y-55312895D02*
X105744361Y-55503371D01*
X105744361Y-55503371D02*
X105744361Y-55741466D01*
X105744361Y-55741466D02*
X105696742Y-55931942D01*
X105696742Y-55931942D02*
X105649123Y-56027180D01*
X105649123Y-56027180D02*
X105601504Y-56074800D01*
X105601504Y-56074800D02*
X105506266Y-56122419D01*
X105506266Y-56122419D02*
X105411028Y-56122419D01*
X105411028Y-56122419D02*
X105315790Y-56074800D01*
X105315790Y-56074800D02*
X105268171Y-56027180D01*
X105268171Y-56027180D02*
X105220552Y-55931942D01*
X105220552Y-55931942D02*
X105172933Y-55741466D01*
X105172933Y-55741466D02*
X105172933Y-55503371D01*
X105172933Y-55503371D02*
X105220552Y-55312895D01*
X105220552Y-55312895D02*
X105268171Y-55217657D01*
X105268171Y-55217657D02*
X105315790Y-55170038D01*
X105315790Y-55170038D02*
X105411028Y-55122419D01*
X106125314Y-55217657D02*
X106172933Y-55170038D01*
X106172933Y-55170038D02*
X106268171Y-55122419D01*
X106268171Y-55122419D02*
X106506266Y-55122419D01*
X106506266Y-55122419D02*
X106601504Y-55170038D01*
X106601504Y-55170038D02*
X106649123Y-55217657D01*
X106649123Y-55217657D02*
X106696742Y-55312895D01*
X106696742Y-55312895D02*
X106696742Y-55408133D01*
X106696742Y-55408133D02*
X106649123Y-55550990D01*
X106649123Y-55550990D02*
X106077695Y-56122419D01*
X106077695Y-56122419D02*
X106696742Y-56122419D01*
X107601504Y-55122419D02*
X107125314Y-55122419D01*
X107125314Y-55122419D02*
X107077695Y-55598609D01*
X107077695Y-55598609D02*
X107125314Y-55550990D01*
X107125314Y-55550990D02*
X107220552Y-55503371D01*
X107220552Y-55503371D02*
X107458647Y-55503371D01*
X107458647Y-55503371D02*
X107553885Y-55550990D01*
X107553885Y-55550990D02*
X107601504Y-55598609D01*
X107601504Y-55598609D02*
X107649123Y-55693847D01*
X107649123Y-55693847D02*
X107649123Y-55931942D01*
X107649123Y-55931942D02*
X107601504Y-56027180D01*
X107601504Y-56027180D02*
X107553885Y-56074800D01*
X107553885Y-56074800D02*
X107458647Y-56122419D01*
X107458647Y-56122419D02*
X107220552Y-56122419D01*
X107220552Y-56122419D02*
X107125314Y-56074800D01*
X107125314Y-56074800D02*
X107077695Y-56027180D01*
X59970550Y-59622419D02*
X59803884Y-59146228D01*
X59684836Y-59622419D02*
X59684836Y-58622419D01*
X59684836Y-58622419D02*
X59875312Y-58622419D01*
X59875312Y-58622419D02*
X59922931Y-58670038D01*
X59922931Y-58670038D02*
X59946741Y-58717657D01*
X59946741Y-58717657D02*
X59970550Y-58812895D01*
X59970550Y-58812895D02*
X59970550Y-58955752D01*
X59970550Y-58955752D02*
X59946741Y-59050990D01*
X59946741Y-59050990D02*
X59922931Y-59098609D01*
X59922931Y-59098609D02*
X59875312Y-59146228D01*
X59875312Y-59146228D02*
X59684836Y-59146228D01*
X60375312Y-59574800D02*
X60327693Y-59622419D01*
X60327693Y-59622419D02*
X60232455Y-59622419D01*
X60232455Y-59622419D02*
X60184836Y-59574800D01*
X60184836Y-59574800D02*
X60161027Y-59479561D01*
X60161027Y-59479561D02*
X60161027Y-59098609D01*
X60161027Y-59098609D02*
X60184836Y-59003371D01*
X60184836Y-59003371D02*
X60232455Y-58955752D01*
X60232455Y-58955752D02*
X60327693Y-58955752D01*
X60327693Y-58955752D02*
X60375312Y-59003371D01*
X60375312Y-59003371D02*
X60399122Y-59098609D01*
X60399122Y-59098609D02*
X60399122Y-59193847D01*
X60399122Y-59193847D02*
X60161027Y-59289085D01*
X60589598Y-59574800D02*
X60637217Y-59622419D01*
X60637217Y-59622419D02*
X60732455Y-59622419D01*
X60732455Y-59622419D02*
X60780074Y-59574800D01*
X60780074Y-59574800D02*
X60803883Y-59479561D01*
X60803883Y-59479561D02*
X60803883Y-59431942D01*
X60803883Y-59431942D02*
X60780074Y-59336704D01*
X60780074Y-59336704D02*
X60732455Y-59289085D01*
X60732455Y-59289085D02*
X60661026Y-59289085D01*
X60661026Y-59289085D02*
X60613407Y-59241466D01*
X60613407Y-59241466D02*
X60589598Y-59146228D01*
X60589598Y-59146228D02*
X60589598Y-59098609D01*
X60589598Y-59098609D02*
X60613407Y-59003371D01*
X60613407Y-59003371D02*
X60661026Y-58955752D01*
X60661026Y-58955752D02*
X60732455Y-58955752D01*
X60732455Y-58955752D02*
X60780074Y-59003371D01*
X61208645Y-59574800D02*
X61161026Y-59622419D01*
X61161026Y-59622419D02*
X61065788Y-59622419D01*
X61065788Y-59622419D02*
X61018169Y-59574800D01*
X61018169Y-59574800D02*
X60994360Y-59479561D01*
X60994360Y-59479561D02*
X60994360Y-59098609D01*
X60994360Y-59098609D02*
X61018169Y-59003371D01*
X61018169Y-59003371D02*
X61065788Y-58955752D01*
X61065788Y-58955752D02*
X61161026Y-58955752D01*
X61161026Y-58955752D02*
X61208645Y-59003371D01*
X61208645Y-59003371D02*
X61232455Y-59098609D01*
X61232455Y-59098609D02*
X61232455Y-59193847D01*
X61232455Y-59193847D02*
X60994360Y-59289085D01*
X61375312Y-58955752D02*
X61565788Y-58955752D01*
X61446740Y-58622419D02*
X61446740Y-59479561D01*
X61446740Y-59479561D02*
X61470550Y-59574800D01*
X61470550Y-59574800D02*
X61518169Y-59622419D01*
X61518169Y-59622419D02*
X61565788Y-59622419D01*
X64661027Y-38467657D02*
X64684836Y-38420038D01*
X64684836Y-38420038D02*
X64732455Y-38372419D01*
X64732455Y-38372419D02*
X64851503Y-38372419D01*
X64851503Y-38372419D02*
X64899122Y-38420038D01*
X64899122Y-38420038D02*
X64922931Y-38467657D01*
X64922931Y-38467657D02*
X64946741Y-38562895D01*
X64946741Y-38562895D02*
X64946741Y-38658133D01*
X64946741Y-38658133D02*
X64922931Y-38800990D01*
X64922931Y-38800990D02*
X64637217Y-39372419D01*
X64637217Y-39372419D02*
X64946741Y-39372419D01*
X65161026Y-39277180D02*
X65184836Y-39324800D01*
X65184836Y-39324800D02*
X65161026Y-39372419D01*
X65161026Y-39372419D02*
X65137217Y-39324800D01*
X65137217Y-39324800D02*
X65161026Y-39277180D01*
X65161026Y-39277180D02*
X65161026Y-39372419D01*
X65661026Y-39372419D02*
X65375312Y-39372419D01*
X65518169Y-39372419D02*
X65518169Y-38372419D01*
X65518169Y-38372419D02*
X65470550Y-38515276D01*
X65470550Y-38515276D02*
X65422931Y-38610514D01*
X65422931Y-38610514D02*
X65375312Y-38658133D01*
X65827692Y-38372419D02*
X66161025Y-38372419D01*
X66161025Y-38372419D02*
X65946740Y-39372419D01*
X62411027Y-47586704D02*
X62649122Y-47586704D01*
X62363408Y-47872419D02*
X62530074Y-46872419D01*
X62530074Y-46872419D02*
X62696741Y-47872419D01*
X63125312Y-47872419D02*
X62839598Y-47872419D01*
X62982455Y-47872419D02*
X62982455Y-46872419D01*
X62982455Y-46872419D02*
X62934836Y-47015276D01*
X62934836Y-47015276D02*
X62887217Y-47110514D01*
X62887217Y-47110514D02*
X62839598Y-47158133D01*
X63553883Y-47205752D02*
X63553883Y-47872419D01*
X63434835Y-46824800D02*
X63315788Y-47539085D01*
X63315788Y-47539085D02*
X63625311Y-47539085D01*
D11*
X85497806Y-71492238D02*
X85116853Y-71492238D01*
X85116853Y-71492238D02*
X84926377Y-71587476D01*
X84926377Y-71587476D02*
X84831139Y-71682714D01*
X84831139Y-71682714D02*
X84640663Y-71968428D01*
X84640663Y-71968428D02*
X84545425Y-72349380D01*
X84545425Y-72349380D02*
X84545425Y-73111285D01*
X84545425Y-73111285D02*
X84640663Y-73301761D01*
X84640663Y-73301761D02*
X84735901Y-73397000D01*
X84735901Y-73397000D02*
X84926377Y-73492238D01*
X84926377Y-73492238D02*
X85307330Y-73492238D01*
X85307330Y-73492238D02*
X85497806Y-73397000D01*
X85497806Y-73397000D02*
X85593044Y-73301761D01*
X85593044Y-73301761D02*
X85688282Y-73111285D01*
X85688282Y-73111285D02*
X85688282Y-72635095D01*
X85688282Y-72635095D02*
X85593044Y-72444619D01*
X85593044Y-72444619D02*
X85497806Y-72349380D01*
X85497806Y-72349380D02*
X85307330Y-72254142D01*
X85307330Y-72254142D02*
X84926377Y-72254142D01*
X84926377Y-72254142D02*
X84735901Y-72349380D01*
X84735901Y-72349380D02*
X84640663Y-72444619D01*
X84640663Y-72444619D02*
X84545425Y-72635095D01*
X87497806Y-71492238D02*
X86545425Y-71492238D01*
X86545425Y-71492238D02*
X86450187Y-72444619D01*
X86450187Y-72444619D02*
X86545425Y-72349380D01*
X86545425Y-72349380D02*
X86735901Y-72254142D01*
X86735901Y-72254142D02*
X87212092Y-72254142D01*
X87212092Y-72254142D02*
X87402568Y-72349380D01*
X87402568Y-72349380D02*
X87497806Y-72444619D01*
X87497806Y-72444619D02*
X87593044Y-72635095D01*
X87593044Y-72635095D02*
X87593044Y-73111285D01*
X87593044Y-73111285D02*
X87497806Y-73301761D01*
X87497806Y-73301761D02*
X87402568Y-73397000D01*
X87402568Y-73397000D02*
X87212092Y-73492238D01*
X87212092Y-73492238D02*
X86735901Y-73492238D01*
X86735901Y-73492238D02*
X86545425Y-73397000D01*
X86545425Y-73397000D02*
X86450187Y-73301761D01*
X88831139Y-71492238D02*
X89021616Y-71492238D01*
X89021616Y-71492238D02*
X89212092Y-71587476D01*
X89212092Y-71587476D02*
X89307330Y-71682714D01*
X89307330Y-71682714D02*
X89402568Y-71873190D01*
X89402568Y-71873190D02*
X89497806Y-72254142D01*
X89497806Y-72254142D02*
X89497806Y-72730333D01*
X89497806Y-72730333D02*
X89402568Y-73111285D01*
X89402568Y-73111285D02*
X89307330Y-73301761D01*
X89307330Y-73301761D02*
X89212092Y-73397000D01*
X89212092Y-73397000D02*
X89021616Y-73492238D01*
X89021616Y-73492238D02*
X88831139Y-73492238D01*
X88831139Y-73492238D02*
X88640663Y-73397000D01*
X88640663Y-73397000D02*
X88545425Y-73301761D01*
X88545425Y-73301761D02*
X88450187Y-73111285D01*
X88450187Y-73111285D02*
X88354949Y-72730333D01*
X88354949Y-72730333D02*
X88354949Y-72254142D01*
X88354949Y-72254142D02*
X88450187Y-71873190D01*
X88450187Y-71873190D02*
X88545425Y-71682714D01*
X88545425Y-71682714D02*
X88640663Y-71587476D01*
X88640663Y-71587476D02*
X88831139Y-71492238D01*
X90259711Y-71682714D02*
X90354949Y-71587476D01*
X90354949Y-71587476D02*
X90545425Y-71492238D01*
X90545425Y-71492238D02*
X91021616Y-71492238D01*
X91021616Y-71492238D02*
X91212092Y-71587476D01*
X91212092Y-71587476D02*
X91307330Y-71682714D01*
X91307330Y-71682714D02*
X91402568Y-71873190D01*
X91402568Y-71873190D02*
X91402568Y-72063666D01*
X91402568Y-72063666D02*
X91307330Y-72349380D01*
X91307330Y-72349380D02*
X90164473Y-73492238D01*
X90164473Y-73492238D02*
X91402568Y-73492238D01*
D10*
X57411027Y-47586704D02*
X57649122Y-47586704D01*
X57363408Y-47872419D02*
X57530074Y-46872419D01*
X57530074Y-46872419D02*
X57696741Y-47872419D01*
X58125312Y-47872419D02*
X57839598Y-47872419D01*
X57982455Y-47872419D02*
X57982455Y-46872419D01*
X57982455Y-46872419D02*
X57934836Y-47015276D01*
X57934836Y-47015276D02*
X57887217Y-47110514D01*
X57887217Y-47110514D02*
X57839598Y-47158133D01*
X58315788Y-46967657D02*
X58339597Y-46920038D01*
X58339597Y-46920038D02*
X58387216Y-46872419D01*
X58387216Y-46872419D02*
X58506264Y-46872419D01*
X58506264Y-46872419D02*
X58553883Y-46920038D01*
X58553883Y-46920038D02*
X58577692Y-46967657D01*
X58577692Y-46967657D02*
X58601502Y-47062895D01*
X58601502Y-47062895D02*
X58601502Y-47158133D01*
X58601502Y-47158133D02*
X58577692Y-47300990D01*
X58577692Y-47300990D02*
X58291978Y-47872419D01*
X58291978Y-47872419D02*
X58601502Y-47872419D01*
D12*
X88454819Y-43733333D02*
X89169104Y-43733333D01*
X89169104Y-43733333D02*
X89311961Y-43780952D01*
X89311961Y-43780952D02*
X89407200Y-43876190D01*
X89407200Y-43876190D02*
X89454819Y-44019047D01*
X89454819Y-44019047D02*
X89454819Y-44114285D01*
X88550057Y-43304761D02*
X88502438Y-43257142D01*
X88502438Y-43257142D02*
X88454819Y-43161904D01*
X88454819Y-43161904D02*
X88454819Y-42923809D01*
X88454819Y-42923809D02*
X88502438Y-42828571D01*
X88502438Y-42828571D02*
X88550057Y-42780952D01*
X88550057Y-42780952D02*
X88645295Y-42733333D01*
X88645295Y-42733333D02*
X88740533Y-42733333D01*
X88740533Y-42733333D02*
X88883390Y-42780952D01*
X88883390Y-42780952D02*
X89454819Y-43352380D01*
X89454819Y-43352380D02*
X89454819Y-42733333D01*
X97204819Y-62083333D02*
X97919104Y-62083333D01*
X97919104Y-62083333D02*
X98061961Y-62130952D01*
X98061961Y-62130952D02*
X98157200Y-62226190D01*
X98157200Y-62226190D02*
X98204819Y-62369047D01*
X98204819Y-62369047D02*
X98204819Y-62464285D01*
X98204819Y-61607142D02*
X97204819Y-61607142D01*
X97204819Y-61607142D02*
X97204819Y-61226190D01*
X97204819Y-61226190D02*
X97252438Y-61130952D01*
X97252438Y-61130952D02*
X97300057Y-61083333D01*
X97300057Y-61083333D02*
X97395295Y-61035714D01*
X97395295Y-61035714D02*
X97538152Y-61035714D01*
X97538152Y-61035714D02*
X97633390Y-61083333D01*
X97633390Y-61083333D02*
X97681009Y-61130952D01*
X97681009Y-61130952D02*
X97728628Y-61226190D01*
X97728628Y-61226190D02*
X97728628Y-61607142D01*
X98204819Y-60083333D02*
X98204819Y-60654761D01*
X98204819Y-60369047D02*
X97204819Y-60369047D01*
X97204819Y-60369047D02*
X97347676Y-60464285D01*
X97347676Y-60464285D02*
X97442914Y-60559523D01*
X97442914Y-60559523D02*
X97490533Y-60654761D01*
X97204819Y-73261904D02*
X98014342Y-73261904D01*
X98014342Y-73261904D02*
X98109580Y-73214285D01*
X98109580Y-73214285D02*
X98157200Y-73166666D01*
X98157200Y-73166666D02*
X98204819Y-73071428D01*
X98204819Y-73071428D02*
X98204819Y-72880952D01*
X98204819Y-72880952D02*
X98157200Y-72785714D01*
X98157200Y-72785714D02*
X98109580Y-72738095D01*
X98109580Y-72738095D02*
X98014342Y-72690476D01*
X98014342Y-72690476D02*
X97204819Y-72690476D01*
X98204819Y-71690476D02*
X98204819Y-72261904D01*
X98204819Y-71976190D02*
X97204819Y-71976190D01*
X97204819Y-71976190D02*
X97347676Y-72071428D01*
X97347676Y-72071428D02*
X97442914Y-72166666D01*
X97442914Y-72166666D02*
X97490533Y-72261904D01*
X109146666Y-55704819D02*
X109146666Y-56419104D01*
X109146666Y-56419104D02*
X109099047Y-56561961D01*
X109099047Y-56561961D02*
X109003809Y-56657200D01*
X109003809Y-56657200D02*
X108860952Y-56704819D01*
X108860952Y-56704819D02*
X108765714Y-56704819D01*
X109527619Y-55704819D02*
X110146666Y-55704819D01*
X110146666Y-55704819D02*
X109813333Y-56085771D01*
X109813333Y-56085771D02*
X109956190Y-56085771D01*
X109956190Y-56085771D02*
X110051428Y-56133390D01*
X110051428Y-56133390D02*
X110099047Y-56181009D01*
X110099047Y-56181009D02*
X110146666Y-56276247D01*
X110146666Y-56276247D02*
X110146666Y-56514342D01*
X110146666Y-56514342D02*
X110099047Y-56609580D01*
X110099047Y-56609580D02*
X110051428Y-56657200D01*
X110051428Y-56657200D02*
X109956190Y-56704819D01*
X109956190Y-56704819D02*
X109670476Y-56704819D01*
X109670476Y-56704819D02*
X109575238Y-56657200D01*
X109575238Y-56657200D02*
X109527619Y-56609580D01*
X88454819Y-54763333D02*
X89169104Y-54763333D01*
X89169104Y-54763333D02*
X89311961Y-54810952D01*
X89311961Y-54810952D02*
X89407200Y-54906190D01*
X89407200Y-54906190D02*
X89454819Y-55049047D01*
X89454819Y-55049047D02*
X89454819Y-55144285D01*
X89454819Y-53763333D02*
X89454819Y-54334761D01*
X89454819Y-54049047D02*
X88454819Y-54049047D01*
X88454819Y-54049047D02*
X88597676Y-54144285D01*
X88597676Y-54144285D02*
X88692914Y-54239523D01*
X88692914Y-54239523D02*
X88740533Y-54334761D01*
D13*
%TO.C,D1*%
X79730000Y-61000000D02*
X80380000Y-61000000D01*
X80980000Y-59880000D02*
X80980000Y-62120000D01*
X81100000Y-59880000D02*
X81100000Y-62120000D01*
X81220000Y-59880000D02*
X81220000Y-62120000D01*
X85270000Y-61000000D02*
X84620000Y-61000000D01*
X80380000Y-59880000D02*
X84620000Y-59880000D01*
X84620000Y-62120000D01*
X80380000Y-62120000D01*
X80380000Y-59880000D01*
%TO.C,J2*%
X46330000Y-40270000D02*
X46330000Y-42870000D01*
X46330000Y-40270000D02*
X87090000Y-40270000D01*
X46330000Y-42870000D02*
X48930000Y-42870000D01*
X46330000Y-44140000D02*
X46330000Y-45470000D01*
X46330000Y-45470000D02*
X47660000Y-45470000D01*
X48930000Y-42870000D02*
X48930000Y-45470000D01*
X48930000Y-45470000D02*
X87090000Y-45470000D01*
X87090000Y-40270000D02*
X87090000Y-45470000D01*
%TO.C,JP1*%
X88580000Y-62380000D02*
X88580000Y-61000000D01*
X89960000Y-62380000D02*
X88580000Y-62380000D01*
X91230000Y-59620000D02*
X96420000Y-59620000D01*
X91230000Y-62380000D02*
X91230000Y-59620000D01*
X91230000Y-62380000D02*
X96420000Y-62380000D01*
X96420000Y-62380000D02*
X96420000Y-59620000D01*
%TO.C,U1*%
X50910000Y-65670000D02*
X50910000Y-78590000D01*
X50910000Y-78590000D02*
X101830000Y-78590000D01*
X101830000Y-65670000D02*
X50910000Y-65670000D01*
X101830000Y-71130000D02*
X101830000Y-65670000D01*
X101830000Y-78590000D02*
X101830000Y-73130000D01*
X101830000Y-73130000D02*
G75*
G02*
X101830000Y-71130000I0J1000000D01*
G01*
%TO.C,J3*%
X106880000Y-77930000D02*
X106880000Y-57550000D01*
X106880000Y-80530000D02*
X106880000Y-79200000D01*
X108210000Y-80530000D02*
X106880000Y-80530000D01*
X109480000Y-77930000D02*
X106880000Y-77930000D01*
X109480000Y-80530000D02*
X109480000Y-77930000D01*
X112080000Y-57550000D02*
X106880000Y-57550000D01*
X112080000Y-80530000D02*
X109480000Y-80530000D01*
X112080000Y-80530000D02*
X112080000Y-57550000D01*
%TO.C,J1*%
X46250000Y-52270000D02*
X46250000Y-54870000D01*
X46250000Y-52270000D02*
X87010000Y-52270000D01*
X46250000Y-54870000D02*
X48850000Y-54870000D01*
X46250000Y-56140000D02*
X46250000Y-57470000D01*
X46250000Y-57470000D02*
X47580000Y-57470000D01*
X48850000Y-54870000D02*
X48850000Y-57470000D01*
X48850000Y-57470000D02*
X87010000Y-57470000D01*
X87010000Y-52270000D02*
X87010000Y-57470000D01*
%TD*%
M02*
