%TF.GenerationSoftware,KiCad,Pcbnew,9.0.3*%
%TF.CreationDate,2025-09-07T17:51:58-04:00*%
%TF.ProjectId,6502-interposer,36353032-2d69-46e7-9465-72706f736572,rev?*%
%TF.SameCoordinates,Original*%
%TF.FileFunction,Soldermask,Top*%
%TF.FilePolarity,Negative*%
%FSLAX46Y46*%
G04 Gerber Fmt 4.6, Leading zero omitted, Abs format (unit mm)*
G04 Created by KiCad (PCBNEW 9.0.3) date 2025-09-07 17:51:58*
%MOMM*%
%LPD*%
G01*
G04 APERTURE LIST*
G04 Aperture macros list*
%AMRoundRect*
0 Rectangle with rounded corners*
0 $1 Rounding radius*
0 $2 $3 $4 $5 $6 $7 $8 $9 X,Y pos of 4 corners*
0 Add a 4 corners polygon primitive as box body*
4,1,4,$2,$3,$4,$5,$6,$7,$8,$9,$2,$3,0*
0 Add four circle primitives for the rounded corners*
1,1,$1+$1,$2,$3*
1,1,$1+$1,$4,$5*
1,1,$1+$1,$6,$7*
1,1,$1+$1,$8,$9*
0 Add four rect primitives between the rounded corners*
20,1,$1+$1,$2,$3,$4,$5,0*
20,1,$1+$1,$4,$5,$6,$7,0*
20,1,$1+$1,$6,$7,$8,$9,0*
20,1,$1+$1,$8,$9,$2,$3,0*%
G04 Aperture macros list end*
%ADD10RoundRect,0.250000X-0.550000X-0.550000X0.550000X-0.550000X0.550000X0.550000X-0.550000X0.550000X0*%
%ADD11C,1.600000*%
%ADD12R,1.700000X1.700000*%
%ADD13C,1.700000*%
%ADD14RoundRect,0.250000X-0.550000X0.550000X-0.550000X-0.550000X0.550000X-0.550000X0.550000X0.550000X0*%
G04 APERTURE END LIST*
D10*
%TO.C,D1*%
X78690000Y-61000000D03*
D11*
X86310000Y-61000000D03*
%TD*%
D12*
%TO.C,J2*%
X85860000Y-44250000D03*
D13*
X85860000Y-41710000D03*
X83320000Y-44250000D03*
X83320000Y-41710000D03*
X80780000Y-44250000D03*
X80780000Y-41710000D03*
X78240000Y-44250000D03*
X78240000Y-41710000D03*
X75700000Y-44250000D03*
X75700000Y-41710000D03*
X73160000Y-44250000D03*
X73160000Y-41710000D03*
X70620000Y-44250000D03*
X70620000Y-41710000D03*
X68080000Y-44250000D03*
X68080000Y-41710000D03*
X65540000Y-44250000D03*
X65540000Y-41710000D03*
X63000000Y-44250000D03*
X63000000Y-41710000D03*
X60460000Y-44250000D03*
X60460000Y-41710000D03*
X57920000Y-44250000D03*
X57920000Y-41710000D03*
X55380000Y-44250000D03*
X55380000Y-41710000D03*
X52840000Y-44250000D03*
X52840000Y-41710000D03*
X50300000Y-44250000D03*
X50300000Y-41710000D03*
X47760000Y-44250000D03*
X47760000Y-41710000D03*
%TD*%
D12*
%TO.C,JP1*%
X89960000Y-61000000D03*
D13*
X92500000Y-61000000D03*
X95040000Y-61000000D03*
%TD*%
D14*
%TO.C,U1*%
X100500000Y-64510000D03*
D11*
X97960000Y-64510000D03*
X95420000Y-64510000D03*
X92880000Y-64510000D03*
X90340000Y-64510000D03*
X87800000Y-64510000D03*
X85260000Y-64510000D03*
X82720000Y-64510000D03*
X80180000Y-64510000D03*
X77640000Y-64510000D03*
X75100000Y-64510000D03*
X72560000Y-64510000D03*
X70020000Y-64510000D03*
X67480000Y-64510000D03*
X64940000Y-64510000D03*
X62400000Y-64510000D03*
X59860000Y-64510000D03*
X57320000Y-64510000D03*
X54780000Y-64510000D03*
X52240000Y-64510000D03*
X52240000Y-79750000D03*
X54780000Y-79750000D03*
X57320000Y-79750000D03*
X59860000Y-79750000D03*
X62400000Y-79750000D03*
X64940000Y-79750000D03*
X67480000Y-79750000D03*
X70020000Y-79750000D03*
X72560000Y-79750000D03*
X75100000Y-79750000D03*
X77640000Y-79750000D03*
X80180000Y-79750000D03*
X82720000Y-79750000D03*
X85260000Y-79750000D03*
X87800000Y-79750000D03*
X90340000Y-79750000D03*
X92880000Y-79750000D03*
X95420000Y-79750000D03*
X97960000Y-79750000D03*
X100500000Y-79750000D03*
%TD*%
D12*
%TO.C,J3*%
X108210000Y-79200000D03*
D13*
X110750000Y-79200000D03*
X108210000Y-76660000D03*
X110750000Y-76660000D03*
X108210000Y-74120000D03*
X110750000Y-74120000D03*
X108210000Y-71580000D03*
X110750000Y-71580000D03*
X108210000Y-69040000D03*
X110750000Y-69040000D03*
X108210000Y-66500000D03*
X110750000Y-66500000D03*
X108210000Y-63960000D03*
X110750000Y-63960000D03*
X108210000Y-61420000D03*
X110750000Y-61420000D03*
X108210000Y-58880000D03*
X110750000Y-58880000D03*
%TD*%
D12*
%TO.C,J1*%
X85780000Y-56290000D03*
D13*
X85780000Y-53750000D03*
X83240000Y-56290000D03*
X83240000Y-53750000D03*
X80700000Y-56290000D03*
X80700000Y-53750000D03*
X78160000Y-56290000D03*
X78160000Y-53750000D03*
X75620000Y-56290000D03*
X75620000Y-53750000D03*
X73080000Y-56290000D03*
X73080000Y-53750000D03*
X70540000Y-56290000D03*
X70540000Y-53750000D03*
X68000000Y-56290000D03*
X68000000Y-53750000D03*
X65460000Y-56290000D03*
X65460000Y-53750000D03*
X62920000Y-56290000D03*
X62920000Y-53750000D03*
X60380000Y-56290000D03*
X60380000Y-53750000D03*
X57840000Y-56290000D03*
X57840000Y-53750000D03*
X55300000Y-56290000D03*
X55300000Y-53750000D03*
X52760000Y-56290000D03*
X52760000Y-53750000D03*
X50220000Y-56290000D03*
X50220000Y-53750000D03*
X47680000Y-56290000D03*
X47680000Y-53750000D03*
%TD*%
M02*
