M48
; DRILL file {KiCad 9.0.3} date 2025-09-07T17:52:02-0400
; FORMAT={-:-/ absolute / metric / decimal}
; #@! TF.CreationDate,2025-09-07T17:52:02-04:00
; #@! TF.GenerationSoftware,Kicad,Pcbnew,9.0.3
; #@! TF.FileFunction,Plated,1,2,PTH
FMAT,2
METRIC
; #@! TA.AperFunction,Plated,PTH,ViaDrill
T1C0.300
; #@! TA.AperFunction,Plated,PTH,ComponentDrill
T2C0.800
; #@! TA.AperFunction,Plated,PTH,ComponentDrill
T3C1.000
%
G90
G05
T1
X49.25Y-47.001
X50.652Y-63.249
X51.5Y-51.75
X51.75Y-48.0
X52.5Y-62.25
X53.991Y-47.152
X54.25Y-66.75
X54.75Y-67.75
X55.38Y-51.75
X56.75Y-48.75
X59.25Y-47.553
X59.75Y-67.75
X61.125Y-73.25
X62.25Y-49.75
X64.182Y-73.75
X64.406Y-47.902
X65.0Y-61.101
X66.5Y-74.25
X67.0Y-50.25
X67.459Y-60.1
X67.5Y-68.75
X68.0Y-50.5
X69.42Y-74.5
X69.469Y-47.5
X70.0Y-68.25
X70.02Y-59.652
X70.62Y-50.37
X72.0Y-50.75
X72.0Y-75.0
X72.201Y-59.549
X73.625Y-51.125
X73.701Y-61.049
X74.0Y-75.75
X74.311Y-47.704
X74.5Y-58.25
X75.003Y-60.577
X75.855Y-50.848
X77.098Y-50.447
X79.0Y-68.25
X79.079Y-66.75
X85.25Y-69.5
X86.38Y-47.89
X86.924Y-47.303
X87.581Y-47.969
X87.75Y-71.4
X88.194Y-47.336
X88.85Y-47.969
X89.668Y-48.332
X91.5Y-69.25
X93.0Y-71.75
X97.25Y-72.25
X101.0Y-74.25
T2
X52.24Y-64.51
X52.24Y-79.75
X54.78Y-64.51
X54.78Y-79.75
X57.32Y-64.51
X57.32Y-79.75
X59.86Y-64.51
X59.86Y-79.75
X62.4Y-64.51
X62.4Y-79.75
X64.94Y-64.51
X64.94Y-79.75
X67.48Y-64.51
X67.48Y-79.75
X70.02Y-64.51
X70.02Y-79.75
X72.56Y-64.51
X72.56Y-79.75
X75.1Y-64.51
X75.1Y-79.75
X77.64Y-64.51
X77.64Y-79.75
X78.69Y-61.0
X80.18Y-64.51
X80.18Y-79.75
X82.72Y-64.51
X82.72Y-79.75
X85.26Y-64.51
X85.26Y-79.75
X86.31Y-61.0
X87.8Y-64.51
X87.8Y-79.75
X90.34Y-64.51
X90.34Y-79.75
X92.88Y-64.51
X92.88Y-79.75
X95.42Y-64.51
X95.42Y-79.75
X97.96Y-64.51
X97.96Y-79.75
X100.5Y-64.51
X100.5Y-79.75
T3
X47.68Y-53.75
X47.68Y-56.29
X47.76Y-41.71
X47.76Y-44.25
X50.22Y-53.75
X50.22Y-56.29
X50.3Y-41.71
X50.3Y-44.25
X52.76Y-53.75
X52.76Y-56.29
X52.84Y-41.71
X52.84Y-44.25
X55.3Y-53.75
X55.3Y-56.29
X55.38Y-41.71
X55.38Y-44.25
X57.84Y-53.75
X57.84Y-56.29
X57.92Y-41.71
X57.92Y-44.25
X60.38Y-53.75
X60.38Y-56.29
X60.46Y-41.71
X60.46Y-44.25
X62.92Y-53.75
X62.92Y-56.29
X63.0Y-41.71
X63.0Y-44.25
X65.46Y-53.75
X65.46Y-56.29
X65.54Y-41.71
X65.54Y-44.25
X68.0Y-53.75
X68.0Y-56.29
X68.08Y-41.71
X68.08Y-44.25
X70.54Y-53.75
X70.54Y-56.29
X70.62Y-41.71
X70.62Y-44.25
X73.08Y-53.75
X73.08Y-56.29
X73.16Y-41.71
X73.16Y-44.25
X75.62Y-53.75
X75.62Y-56.29
X75.7Y-41.71
X75.7Y-44.25
X78.16Y-53.75
X78.16Y-56.29
X78.24Y-41.71
X78.24Y-44.25
X80.7Y-53.75
X80.7Y-56.29
X80.78Y-41.71
X80.78Y-44.25
X83.24Y-53.75
X83.24Y-56.29
X83.32Y-41.71
X83.32Y-44.25
X85.78Y-53.75
X85.78Y-56.29
X85.86Y-41.71
X85.86Y-44.25
X89.96Y-61.0
X92.5Y-61.0
X95.04Y-61.0
X108.21Y-58.88
X108.21Y-61.42
X108.21Y-63.96
X108.21Y-66.5
X108.21Y-69.04
X108.21Y-71.58
X108.21Y-74.12
X108.21Y-76.66
X108.21Y-79.2
X110.75Y-58.88
X110.75Y-61.42
X110.75Y-63.96
X110.75Y-66.5
X110.75Y-69.04
X110.75Y-71.58
X110.75Y-74.12
X110.75Y-76.66
X110.75Y-79.2
M30
